<svg xmlns="http://www.w3.org/2000/svg" viewBox="0 0 113.98 102.77"><defs><style>.a{fill:#f6f5f4;}</style></defs><title>Element 6</title><polygon class="a" points="3.25 6.7 3.29 6.7 3.29 27.51 7.86 27.51 7.86 0.32 4.21 0.32 0 5.25 0 10.03 0.04 10.03 3.25 6.7"/><path class="a" d="M10.59,5.94V9.22h4.17V5.81c0-1.64.8-2.12,1.76-2.12s1.65.36,1.65,2V8c0,2.25-.2,3.13-1.69,4.69L13.91,15.4c-2.48,2.65-3.41,4.41-3.41,7.1v5H22.38V23.78h-7.5V22.5c0-2.13.76-2.93,1.92-4.17l2.93-3.09c2.36-2.53,2.89-4.13,2.89-6.86V5.73c0-3.89-1.89-5.73-6-5.73s-6.05,2.13-6.05,5.94"/><path class="a" d="M94.14,61.21A24.38,24.38,0,0,0,79.47,56.4a16.07,16.07,0,0,0-3.54.34l-.37.09c-3.48.82-9.31,2.2-16.1,10.62l-.19.25a.82.82,0,0,0-.17.51.87.87,0,0,0,.11.44l.16.25c1.12,1.88,2.05,3.5,2.79,4.89a.9.9,0,0,0,1.45.2l.13-.18c5.86-8.11,10.45-9.19,13.49-9.9l.38-.09a8.89,8.89,0,0,1,1.86-.16,17.28,17.28,0,0,1,10.16,3.26c3.41,2.69,5.14,7,5.14,12.78,0,9.7-4.69,13.48-8.63,15a13.71,13.71,0,0,1-4.81.84,17.16,17.16,0,0,1-7.22-1.64l-.28-.14c-3.39-1.47-8.44-4.53-13.22-14.13C50.81,59.9,42.58,58,37.13,56.8l-.29-.06a15.78,15.78,0,0,0-3.51-.32A23.42,23.42,0,0,0,18.9,61.19c-3.55,2.84-7.79,8.34-7.79,18.47,0,6.17,1.28,10.25,4.53,14.54a21.75,21.75,0,0,0,17.2,8.16,26.89,26.89,0,0,0,5-.48A21.34,21.34,0,0,0,46.31,98l2.86,2.59a.87.87,0,0,0,1.17,0,.75.75,0,0,0,.2-.55l2.22-13.65v-.16a.8.8,0,0,0-.26-.6.81.81,0,0,0-.58-.21h0L38.62,89l-.25,0a.77.77,0,0,0-.43.24.84.84,0,0,0-.21.6.81.81,0,0,0,.27.57L40.76,93a13,13,0,0,1-4.31,1.75,18.85,18.85,0,0,1-3.53.35,14.38,14.38,0,0,1-11.39-5.16l-.07-.1c-2.3-3-3.07-5.57-3.07-10.16,0-5.81,1.7-10.11,5.05-12.78a16.69,16.69,0,0,1,9.91-3.21,9.24,9.24,0,0,1,1.88.16l.3.06c4.35,1,10.31,2.34,18.56,18.93,4.37,8.76,9.84,14.49,16.71,17.51a24.62,24.62,0,0,0,10.54,2.44,21,21,0,0,0,7.34-1.3C92.7,100,102,94.84,102,79.7,102,69.58,97.75,64.06,94.14,61.21Z"/><path class="a" d="M34.68,6.23v5H32.83V.26h2.7c1.86,0,2.55.93,2.55,2.47V4.15A1.87,1.87,0,0,1,36.6,6.28l1.77,5H36.42Zm0-4.45V5.2h.62a.8.8,0,0,0,.91-.91V2.67c0-.6-.28-.89-.91-.89Z"/><path class="a" d="M39.07.26h4.42V1.78H40.92V4.93h1.84V6.42H40.92V9.77h2.57v1.51H39.07Z"/><path class="a" d="M44.37,8.91V7.43h1.72V8.94c0,.62.28,1,.91,1s.85-.39.85-1V8.52A2,2,0,0,0,47,7L45.93,5.87c-1.06-1-1.54-1.67-1.54-2.94V2.56A2.3,2.3,0,0,1,47,.13c1.85,0,2.58.91,2.58,2.51v.89H47.88v-1c0-.63-.29-.94-.88-.94a.81.81,0,0,0-.88.91v.23c0,.61.35,1,.88,1.49l1.19,1.17c1,1,1.49,1.64,1.49,2.86v.54A2.38,2.38,0,0,1,47,11.41,2.29,2.29,0,0,1,44.37,8.91Z"/><path class="a" d="M50.61.26h2.75c1.87,0,2.55.93,2.55,2.47V5.06c0,1.54-.68,2.48-2.55,2.48h-.9v3.74H50.61Zm1.85,1.52V6.11h.69a.79.79,0,0,0,.91-.91V2.67c0-.6-.28-.89-.91-.89Z"/><path class="a" d="M56.85,8.44V3.11c0-1.72.85-3,2.8-3s2.81,1.26,2.81,3V8.44c0,1.71-.84,3-2.81,3S56.85,10.15,56.85,8.44Zm3.76.29V2.82c0-.67-.29-1.14-1-1.14s-.94.47-.94,1.14V8.73c0,.67.29,1.14.94,1.14S60.61,9.4,60.61,8.73Z"/><path class="a" d="M65.06,4.36v6.92H63.5V.26h1.82l2,6.33V.26h1.55v11H67.24Z"/><path class="a" d="M69.83,8.91V7.43h1.72V8.94c0,.62.28,1,.91,1s.84-.39.84-1V8.52A2,2,0,0,0,72.48,7L71.39,5.87c-1.06-1-1.55-1.67-1.55-2.94V2.56A2.3,2.3,0,0,1,72.44.13C74.3.13,75,1,75,2.64v.89H73.34v-1c0-.63-.3-.94-.88-.94a.81.81,0,0,0-.88.91v.23c0,.61.34,1,.88,1.49l1.19,1.17c1,1,1.49,1.64,1.49,2.86v.54a2.38,2.38,0,0,1-2.7,2.58A2.29,2.29,0,0,1,69.83,8.91Z"/><path class="a" d="M76.07.26h1.85v11H76.07Z"/><path class="a" d="M79,.26h2.68c1.85,0,2.47.87,2.47,2.43V3.81A1.6,1.6,0,0,1,83,5.56,1.68,1.68,0,0,1,84.41,7.4V8.86c0,1.56-.7,2.42-2.55,2.42H79Zm1.85,4.65h.65A.78.78,0,0,0,82.36,4V2.67a.78.78,0,0,0-.89-.89h-.64Zm0,1.42V9.77h.81a.8.8,0,0,0,.91-.89V7.22c0-.59-.27-.89-.92-.89Z"/><path class="a" d="M85.32.26h1.85V9.77h2.21v1.51H85.32Z"/><path class="a" d="M90.21.26h4.42V1.78H92.06V4.93H93.9V6.42H92.06V9.77h2.57v1.51H90.21Z"/><path class="a" d="M32.83,24.62V19.29c0-1.72.81-3,2.76-3s2.62,1.14,2.62,2.76v1.3H36.52V18.93c0-.68-.23-1.07-.9-1.07s-.94.47-.94,1.14v5.92c0,.66.28,1.13.94,1.13s.9-.42.9-1.07V23h1.69v1.9c0,1.58-.65,2.75-2.62,2.75S32.83,26.33,32.83,24.62Z"/><path class="a" d="M39.38,24.62V19.29c0-1.72.84-3,2.79-3s2.82,1.25,2.82,3v5.33c0,1.71-.85,3-2.82,3S39.38,26.33,39.38,24.62Zm3.75.3V19c0-.67-.29-1.14-1-1.14s-.94.47-.94,1.14v5.92c0,.66.3,1.13.94,1.13S43.13,25.58,43.13,24.92Z"/><path class="a" d="M47.77,20.54v6.93H46.21v-11H48l2,6.32V16.45h1.54v11H49.94Z"/><path class="a" d="M52.69,25.09V23.62h1.73v1.51c0,.61.27,1,.91,1s.84-.39.84-1V24.7a2,2,0,0,0-.83-1.56l-1.09-1.08c-1-1-1.54-1.68-1.54-2.95v-.37a2.3,2.3,0,0,1,2.6-2.42c1.85,0,2.58.91,2.58,2.5v.89H56.2v-.95c0-.64-.29-1-.87-1a.82.82,0,0,0-.88.91V19c0,.62.34,1,.88,1.5l1.18,1.17c1,1,1.5,1.64,1.5,2.86V25a2.39,2.39,0,0,1-2.7,2.59A2.3,2.3,0,0,1,52.69,25.09Z"/><path class="a" d="M64.53,16.45v8.33c0,1.71-.73,2.82-2.62,2.82a2.49,2.49,0,0,1-2.76-2.82V16.45H61V25c0,.65.26,1.09.91,1.09s.91-.44.91-1.09V16.45Z"/><path class="a" d="M70.85,20.32h0l-1.25,7.15h-.86l-1.38-7.15h0v7.15H65.75v-11h2.16l1.2,6.21h0l1.07-6.21h2.34v11H70.85Z"/><path class="a" d="M73.76,16.45h2.75c1.87,0,2.55.92,2.55,2.47v2.32c0,1.55-.68,2.49-2.55,2.49h-.9v3.74H73.76ZM75.61,18V22.3h.69a.8.8,0,0,0,.91-.91V18.85c0-.6-.28-.89-.91-.89Z"/><path class="a" d="M79.66,16.45h4.93V18H83.06v9.51H81.19V18H79.66Z"/><path class="a" d="M85.47,16.45h1.85v11H85.47Z"/><path class="a" d="M88.39,24.62V19.29c0-1.72.85-3,2.8-3s2.81,1.25,2.81,3v5.33c0,1.71-.85,3-2.81,3S88.39,26.33,88.39,24.62Zm3.76.3V19c0-.67-.3-1.14-1-1.14s-1,.47-1,1.14v5.92c0,.66.3,1.13,1,1.13S92.15,25.58,92.15,24.92Z"/><path class="a" d="M96.63,20.54v6.93H95.07v-11h1.82l2,6.32V16.45h1.55v11H98.81Z"/><path class="a" d="M32.54,43.65l2.08-11h2.11l2.1,11H36.92l-.34-2h-2l-.33,2Zm2.32-3.49h1.48l-.73-4.42h0Z"/><path class="a" d="M41.2,36.73v6.92H39.64v-11h1.82l2,6.32V32.63H45v11H43.38Z"/><path class="a" d="M51.65,35.59v5.1c0,1.69-.7,3-2.68,3H46.11v-11H49C51,32.63,51.65,33.88,51.65,35.59Zm-2.91,6.55c.77,0,1.06-.46,1.06-1.12V35.25a1,1,0,0,0-1.06-1.11H48v8Z"/><path class="a" d="M54.51,32.63h2.75c1.87,0,2.55.93,2.55,2.47v2.33c0,1.54-.68,2.48-2.55,2.48h-.89v3.74H54.51Zm1.86,1.51v4.34h.68a.8.8,0,0,0,.91-.91V35a.79.79,0,0,0-.91-.9Z"/><path class="a" d="M62.67,38.6v5H60.82v-11h2.7c1.87,0,2.55.93,2.55,2.47v1.42c0,1.18-.42,1.88-1.48,2.13l1.77,5h-2Zm0-4.46v3.43h.62a.8.8,0,0,0,.91-.91V35c0-.6-.27-.9-.91-.9Z"/><path class="a" d="M67.13,40.81V35.48c0-1.73.84-3,2.79-3s2.82,1.25,2.82,3v5.33c0,1.7-.85,3-2.82,3S67.13,42.51,67.13,40.81Zm3.75.29V35.18c0-.66-.29-1.13-1-1.13s-.94.47-.94,1.13V41.1c0,.67.29,1.14.94,1.14S70.88,41.77,70.88,41.1Z"/><path class="a" d="M79.38,35.59v5.1c0,1.69-.69,3-2.68,3H73.84v-11H76.7C78.69,32.63,79.38,33.88,79.38,35.59Zm-2.9,6.55c.76,0,1-.46,1-1.12V35.25c0-.65-.29-1.11-1-1.11H75.7v8Z"/><path class="a" d="M85.87,32.63V41c0,1.71-.73,2.81-2.62,2.81A2.48,2.48,0,0,1,80.49,41V32.63h1.85v8.52c0,.65.26,1.09.91,1.09s.91-.44.91-1.09V32.63Z"/><path class="a" d="M87,40.81V35.48c0-1.73.81-3,2.76-3s2.62,1.14,2.62,2.76v1.31H90.67V35.12c0-.68-.23-1.07-.9-1.07s-.94.47-.94,1.13V41.1c0,.67.28,1.14.94,1.14s.9-.43.9-1.08v-2h1.69V41c0,1.58-.65,2.75-2.62,2.75S87,42.51,87,40.81Z"/><path class="a" d="M93.2,32.63h4.93v1.51H96.6v9.51H94.73V34.14H93.2Z"/><path class="a" d="M99,32.63h1.85v11H99Z"/><path class="a" d="M101.93,40.81V35.48c0-1.73.85-3,2.8-3s2.81,1.25,2.81,3v5.33c0,1.7-.84,3-2.81,3S101.93,42.51,101.93,40.81Zm3.76.29V35.18c0-.66-.29-1.13-1-1.13s-.94.47-.94,1.13V41.1c0,.67.29,1.14.94,1.14S105.69,41.77,105.69,41.1Z"/><path class="a" d="M110.17,36.73v6.92h-1.56v-11h1.82l2,6.32V32.63H114v11h-1.63Z"/></svg>