<svg xmlns="http://www.w3.org/2000/svg" viewBox="0 0 101.87 106.9"><defs><style>.a{fill:#f6f5f4;}</style></defs><title>Element 8_1</title><polygon class="a" points="7.86 0.14 7.86 27.32 3.29 27.32 3.29 6.51 3.25 6.51 0.04 9.84 0 9.84 0 5.07 4.21 0.14 7.86 0.14"/><polygon class="a" points="9.94 0.14 21.41 0.14 21.41 4.34 15.44 27.32 10.9 27.32 17 3.86 9.94 3.86 9.94 0.14"/><path class="a" d="M89.38,70.62A17.59,17.59,0,0,0,72.46,53.07a17.56,17.56,0,0,0-33.12,0A17.55,17.55,0,0,0,29.2,84.46,17.55,17.55,0,0,0,56,103.82,17.56,17.56,0,0,0,82.63,84.44a17.56,17.56,0,0,0,6.75-13.82M69.93,58.92A14,14,0,0,1,58,72.77a13.86,13.86,0,0,1-.18-2.15A14,14,0,0,1,69.74,56.76a13.88,13.88,0,0,1,.19,2.16M56,99.27a14,14,0,0,1-.12-20,14,14,0,0,1,.12,20M42.06,56.76A14,14,0,0,1,54,70.62a13.86,13.86,0,0,1-.19,2.15,14,14,0,0,1-12-13.85,13.88,13.88,0,0,1,.19-2.16M52.51,76.89a14,14,0,0,1-19,6.17,14,14,0,0,1,19-6.17m6.73-.09A14,14,0,0,1,78.3,83,14,14,0,0,1,59.24,76.8M55.9,44.89a14.06,14.06,0,0,1,12.86,8.43A17.65,17.65,0,0,0,55.9,63.19,17.65,17.65,0,0,0,43,53.32,14.06,14.06,0,0,1,55.9,44.89M26,70.62a14.05,14.05,0,0,1,12.52-14,18.62,18.62,0,0,0-.14,2.25,17.52,17.52,0,0,0,5.73,13A17.57,17.57,0,0,0,30.61,81,14,14,0,0,1,26,70.62M32,89.34a14,14,0,0,1,.31-2.91A17.53,17.53,0,0,0,48.47,86a17.25,17.25,0,0,0-.31,3.23,17.53,17.53,0,0,0,5,12.22A14,14,0,0,1,32,89.34m47.72-.12a14,14,0,0,1-21,12.19A17.45,17.45,0,0,0,63.31,86a17.53,17.53,0,0,0,16.16.44,13.57,13.57,0,0,1,.29,2.8M67.83,71.79a17.51,17.51,0,0,0,5.63-12.87,18.62,18.62,0,0,0-.14-2.25A14,14,0,0,1,81.23,81a17.6,17.6,0,0,0-13.4-9.19"/><path class="a" d="M30.73.13h2.75C35.35.13,36,1.06,36,2.6V4.92c0,1.55-.68,2.49-2.55,2.49h-.89v3.74H30.73Zm1.86,1.51V6h.68a.8.8,0,0,0,.91-.91V2.54c0-.61-.28-.9-.91-.9Z"/><path class="a" d="M36.26,11.15l2.08-11h2.11l2.1,11h-1.9l-.34-2h-2l-.32,2Zm2.32-3.5h1.48l-.73-4.42h0Z"/><path class="a" d="M45.33,6.09v5.06H43.48V.13h2.7c1.86,0,2.55.93,2.55,2.47V4c0,1.19-.43,1.89-1.48,2.13l1.77,5h-2Zm0-4.45V5.07H46a.8.8,0,0,0,.91-.91V2.54c0-.61-.28-.9-.91-.9Z"/><path class="a" d="M49.38.13H54.3V1.64H52.78v9.51H50.91V1.64H49.38Z"/><path class="a" d="M57,4.23v6.92H55.48V.13H57.3l2,6.32V.13h1.55v11H59.21Z"/><path class="a" d="M62.37.13h4.42V1.64H64.22V4.79h1.84v1.5H64.22V9.64h2.57v1.51H62.37Z"/><path class="a" d="M69.8,6.09v5.06H67.94V.13h2.7c1.87,0,2.55.93,2.55,2.47V4c0,1.19-.42,1.89-1.48,2.13l1.78,5h-2Zm0-4.45V5.07h.61a.8.8,0,0,0,.91-.91V2.54c0-.61-.27-.9-.91-.9Z"/><path class="a" d="M74.12,8.78V7.3h1.72V8.81c0,.62.28,1,.91,1s.85-.39.85-1V8.39a2,2,0,0,0-.83-1.56L75.68,5.74c-1.06-1-1.54-1.68-1.54-2.94V2.42A2.3,2.3,0,0,1,76.74,0c1.85,0,2.58.91,2.58,2.5v.9H77.63v-1c0-.64-.29-.94-.88-.94a.81.81,0,0,0-.87.91v.22c0,.62.34,1,.87,1.5L77.94,5.3c1,1,1.49,1.64,1.49,2.86v.53a2.38,2.38,0,0,1-2.69,2.59A2.3,2.3,0,0,1,74.12,8.78Z"/><path class="a" d="M84.22,6.29H82.43v4.86H80.57V.13h1.86V4.79h1.79V.13h1.86v11H84.22Z"/><path class="a" d="M87.3.13h1.86v11H87.3Z"/><path class="a" d="M90.39.13h2.75c1.87,0,2.55.93,2.55,2.47V4.92c0,1.55-.68,2.49-2.55,2.49h-.89v3.74H90.39Zm1.86,1.51V6h.68a.8.8,0,0,0,.91-.91V2.54c0-.61-.28-.9-.91-.9Z"/><path class="a" d="M96.41,8.78V7.3h1.72V8.81c0,.62.28,1,.91,1s.85-.39.85-1V8.39a2,2,0,0,0-.83-1.56L98,5.74c-1.06-1-1.54-1.68-1.54-2.94V2.42A2.3,2.3,0,0,1,99,0c1.85,0,2.58.91,2.58,2.5v.9H99.92v-1c0-.64-.29-.94-.88-.94a.81.81,0,0,0-.88.91v.22c0,.62.35,1,.88,1.5l1.19,1.17c1,1,1.49,1.64,1.49,2.86v.53A2.38,2.38,0,0,1,99,11.28,2.3,2.3,0,0,1,96.41,8.78Z"/><path class="a" d="M30.74,16.14h4.41v1.53H32.62v3.2H34.5v1.52H32.62v4.94H30.74Z"/><path class="a" d="M35.79,24.44V19c0-1.75.86-3,2.84-3s2.86,1.27,2.86,3v5.42c0,1.73-.86,3-2.86,3S35.79,26.17,35.79,24.44Zm3.81.3v-6c0-.68-.29-1.16-1-1.16s-1,.48-1,1.16v6c0,.67.3,1.15,1,1.15S39.6,25.41,39.6,24.74Z"/><path class="a" d="M44.61,22.19v5.14H42.72V16.14h2.74c1.9,0,2.6.94,2.6,2.5v1.44c0,1.21-.43,1.92-1.51,2.16l1.8,5.09h-2Zm0-4.52v3.48h.62a.81.81,0,0,0,.93-.92V18.58c0-.61-.28-.91-.93-.91Z"/><path class="a" d="M51,16.14h5v1.53H54.46v9.66h-1.9V17.67H51Z"/><path class="a" d="M60.6,22.39H58.79v4.94H56.9V16.14h1.89v4.73H60.6V16.14h1.9V27.33H60.6Z"/><path class="a" d="M63.74,16.14h4.49v1.53H65.62v3.2h1.86v1.52H65.62v3.4h2.61v1.54H63.74Z"/><path class="a" d="M74.24,21.35h2.67v6H75.56V26.11a1.7,1.7,0,0,1-1.8,1.35c-1.62,0-2.36-1.29-2.36-3V19c0-1.75.84-3,2.82-3s2.69,1.16,2.69,2.81v1H75.19V18.66c0-.69-.26-1.09-.94-1.09s-1,.48-1,1.16v6c0,.67.28,1.15.92,1.15s.93-.35.93-1.07v-2h-.89Z"/><path class="a" d="M78,24.44V19c0-1.75.86-3,2.84-3s2.85,1.27,2.85,3v5.42c0,1.73-.86,3-2.85,3S78,26.17,78,24.44Zm3.81.3v-6c0-.68-.3-1.16-1-1.16s-1,.48-1,1.16v6c0,.67.3,1.15,1,1.15S81.78,25.41,81.78,24.74Z"/><path class="a" d="M84.19,27.33,86.3,16.14h2.15l2.13,11.19H88.65l-.35-2h-2l-.33,2Zm2.36-3.55h1.5l-.74-4.49h0Z"/><path class="a" d="M91.67,16.14h1.88v9.65H95.8v1.54H91.67Z"/><path class="a" d="M96.47,24.92v-1.5h1.75V25c0,.63.28,1,.93,1s.86-.4.86-1v-.43a2,2,0,0,0-.85-1.58l-1.1-1.11c-1.08-1.06-1.57-1.7-1.57-3v-.38A2.34,2.34,0,0,1,99.13,16c1.88,0,2.62.93,2.62,2.55v.9H100v-1c0-.64-.3-1-.89-1a.83.83,0,0,0-.89.93v.23c0,.62.34,1,.89,1.52l1.2,1.18c1,1,1.52,1.67,1.52,2.91v.54a2.42,2.42,0,0,1-2.74,2.63A2.33,2.33,0,0,1,96.47,24.92Z"/></svg>