<svg xmlns="http://www.w3.org/2000/svg" viewBox="0 0 95.7 83.93"><defs><style>.a{fill:#56c22b;}.b{fill:#dda63a;}.c{fill:#c5192d;}.d{fill:#4c9f38;}.e{fill:#3f7e44;}.f{fill:#fcc30b;}.g{fill:#ff3a21;}.h{fill:#ff9f24;}.i{fill:#0a97d9;}.j{fill:#a21942;}.k{fill:#26bde2;}.l{fill:#ff6924;}.m{fill:#e8203a;}.n{fill:#dd1367;}.o{fill:#19486a;}.p{fill:#bf8b2e;}.q{fill:#00689d;}</style></defs><title>Element 9</title><path class="a" d="M32.87,22.14a17.51,17.51,0,0,1,2.77-3.57l-9.1-10a31,31,0,0,0-5.78,7.53Z"/><path class="b" d="M55.19,15.09A17.15,17.15,0,0,1,59,17.48l9.13-10a30.74,30.74,0,0,0-8.09-5Z"/><path class="c" d="M76.11,18.09,64,24.12a17.1,17.1,0,0,1,1.21,4.28l13.47-1.27a30.85,30.85,0,0,0-2.57-9"/><path class="d" d="M63.13,22.37l12.11-6a30.88,30.88,0,0,0-5.66-7.51l-9.13,10a17.64,17.64,0,0,1,2.68,3.57"/><path class="e" d="M30.46,31c0-.27,0-.54,0-.81L17,29c-.05.67-.07,1.34-.07,2a31.37,31.37,0,0,0,.91,7.5l13-3.74A17.83,17.83,0,0,1,30.46,31"/><path class="f" d="M61.44,42a17.46,17.46,0,0,1-3.28,3.09l7.11,11.52a31.69,31.69,0,0,0,7-6.47Z"/><path class="g" d="M65.4,31a16.9,16.9,0,0,1-.4,3.72l13,3.74A31.1,31.1,0,0,0,78.92,31c0-.63,0-1.27-.06-1.9L65.39,30.34c0,.22,0,.42,0,.63"/><path class="h" d="M34.64,42.3,23.88,50.48a30.9,30.9,0,0,0,7,6.37L38,45.35a17.81,17.81,0,0,1-3.38-3.05"/><path class="i" d="M30.68,28.22A17,17,0,0,1,32,23.88l-12.1-6A30.68,30.68,0,0,0,17.2,27Z"/><path class="j" d="M63.61,57.69l-7.1-11.5a17.21,17.21,0,0,1-4.14,1.68l2.5,13.3a30.56,30.56,0,0,0,8.74-3.48"/><path class="k" d="M64.48,36.57a17.15,17.15,0,0,1-1.89,3.9l10.8,8.14a30.72,30.72,0,0,0,4.09-8.3Z"/><path class="l" d="M50.45,48.26a17.38,17.38,0,0,1-2.52.19,19.41,19.41,0,0,1-2-.12l-2.5,13.3a32.2,32.2,0,0,0,4.53.33,30.94,30.94,0,0,0,5-.41Z"/><path class="m" d="M49.05,13.54a17.13,17.13,0,0,1,4.32.83L58.23,1.75A30.69,30.69,0,0,0,49.05,0Z"/><path class="n" d="M44,48a17.11,17.11,0,0,1-4.28-1.62L32.57,57.88a31.2,31.2,0,0,0,8.9,3.4Z"/><path class="o" d="M42.68,14.31a17.5,17.5,0,0,1,4.42-.78V0a30.83,30.83,0,0,0-9.31,1.7Z"/><path class="p" d="M33.46,40.75a17.33,17.33,0,0,1-2.06-4.13l-13,3.73a30.81,30.81,0,0,0,4.29,8.58Z"/><path class="q" d="M37.11,17.27A17.78,17.78,0,0,1,40.85,15L36,2.39a31.17,31.17,0,0,0-8,4.89Z"/><path d="M0,71.26H5.6V73H3.86V83.78H1.74V73H0Z"/><path d="M10.53,78.26h-2v5.52H6.39V71.26H8.5v5.3h2v-5.3h2.13V83.78H10.53Z"/><path d="M13.69,71.26h5V73H15.8v3.59h2.09v1.7H15.8v3.8h2.92v1.72h-5Z"/><path d="M24.62,77.1h3v6.68H26.09V82.42a1.88,1.88,0,0,1-2,1.51c-1.81,0-2.64-1.44-2.64-3.38V74.49c0-2,.94-3.38,3.16-3.38s3,1.29,3,3.14v1.11H25.69V74.08c0-.77-.3-1.22-1.06-1.22s-1.09.54-1.09,1.3v6.72c0,.76.32,1.3,1,1.3s1-.39,1-1.21V78.76h-1Z"/><path d="M28.65,71.26h2.1v10.8h2.52v1.72H28.65Z"/><path d="M33.71,80.55V74.49c0-2,1-3.38,3.18-3.38s3.2,1.42,3.2,3.38v6.06c0,1.94-1,3.38-3.2,3.38S33.71,82.49,33.71,80.55Zm4.27.33V74.16c0-.76-.33-1.3-1.09-1.3s-1.07.54-1.07,1.3v6.72c0,.76.33,1.3,1.07,1.3S38,81.64,38,80.88Z"/><path d="M41.1,71.26h3c2.11,0,2.81,1,2.81,2.75v1.27a1.83,1.83,0,0,1-1.26,2,1.9,1.9,0,0,1,1.58,2.09V81c0,1.77-.8,2.75-2.91,2.75H41.1Zm2.11,5.28H44a.89.89,0,0,0,1-1V74a.89.89,0,0,0-1-1h-.72Zm0,1.61v3.91h.92a.9.9,0,0,0,1-1V79.16c0-.66-.32-1-1.05-1Z"/><path d="M47.72,83.78l2.37-12.52h2.4l2.38,12.52H52.71l-.39-2.29H50.09l-.37,2.29Zm2.64-4H52l-.83-5h0Z"/><path d="M55.59,71.26H57.7v10.8h2.51v1.72H55.59Z"/><path d="M65.94,77.1h3v6.68H67.42V82.42a1.9,1.9,0,0,1-2,1.51c-1.81,0-2.65-1.44-2.65-3.38V74.49c0-2,1-3.38,3.16-3.38s3,1.29,3,3.14v1.11H67V74.08c0-.77-.29-1.22-1.05-1.22s-1.09.54-1.09,1.3v6.72c0,.76.32,1.3,1,1.3s1-.39,1-1.21V78.76h-1Z"/><path d="M69.94,80.55V74.49c0-2,1-3.38,3.17-3.38s3.2,1.42,3.2,3.38v6.06c0,1.94-1,3.38-3.2,3.38S69.94,82.49,69.94,80.55Zm4.26.33V74.16c0-.76-.33-1.3-1.09-1.3S72,73.4,72,74.16v6.72c0,.76.34,1.3,1.07,1.3S74.2,81.64,74.2,80.88Z"/><path d="M76.74,83.78,79.1,71.26h2.4l2.39,12.52H81.73l-.39-2.29H79.1l-.37,2.29Zm2.64-4h1.68l-.83-5h0Z"/><path d="M84.57,71.26h2.11v10.8h2.51v1.72H84.57Z"/><path d="M89.66,81.09V79.4h2v1.72c0,.71.32,1.11,1,1.11s1-.44,1-1.11v-.48a2.27,2.27,0,0,0-.94-1.77l-1.24-1.24c-1.2-1.18-1.75-1.9-1.75-3.34v-.43a2.61,2.61,0,0,1,2.95-2.75c2.11,0,2.94,1,2.94,2.84v1H93.65V73.88c0-.72-.34-1.07-1-1.07a.92.92,0,0,0-1,1v.26c0,.7.39,1.11,1,1.7L94,77.13c1.14,1.17,1.7,1.87,1.7,3.25V81a2.72,2.72,0,0,1-3.07,2.94C90.49,83.93,89.66,82.73,89.66,81.09Z"/></svg>