<?xml version="1.0" encoding="utf-8"?>
<!-- Generator: Adobe Illustrator 24.1.3, SVG Export Plug-In . SVG Version: 6.00 Build 0)  -->
<svg version="1.1" id="Ebene_1" xmlns="http://www.w3.org/2000/svg" xmlns:xlink="http://www.w3.org/1999/xlink" x="0px" y="0px"
	 viewBox="0 0 687.2 372.8" style="enable-background:new 0 0 687.2 372.8;" xml:space="preserve">
<style type="text/css">
	.st0{fill:#FFFFFF;}
</style>
<path class="st0" d="M301,181.9h7.4c3.7,0,6.5,2.3,6.5,5.7c0,1.8-0.9,3.5-2.5,4.4c1.8,0.9,2.9,2.8,2.8,4.8c0,3.5-2.8,5.8-6.5,5.8
	H301V181.9z M308.5,190.6c1.7,0,3.4-0.8,3.4-3s-1.7-3-3.4-3H304v5.9L308.5,190.6z M308.8,199.7c1.8,0.1,3.3-1.2,3.4-3
	c0,0,0-0.1,0-0.1c0-2.3-1.7-3.1-3.4-3.1H304v6.2H308.8z"/>
<path class="st0" d="M318.8,181.9h12.4v2.8h-9.5v5.9h9.2v2.8h-9.2v6.2h9.5v2.8h-12.4V181.9z"/>
<path class="st0" d="M336.2,181.9l5.3,16.5l5.4-16.5h3l-6.8,20.6H340l-6.8-20.6H336.2z"/>
<path class="st0" d="M352.8,181.9h12.4v2.8h-9.5v5.9h9.2v2.8h-9.2v6.2h9.5v2.8h-12.4V181.9z"/>
<path class="st0" d="M383.3,201.9v0.6h-3.4l-7.2-9h-0.6v9h-3v-20.6h7.4c3.4,0,6.4,2.1,6.4,5.8c0,3.5-3.2,5.8-6.6,5.8L383.3,201.9z
	 M376.6,190.6c1.6,0.3,3.2-0.9,3.4-2.5c0.3-1.6-0.9-3.2-2.5-3.4c-0.3,0-0.6,0-0.9,0h-4.5v5.9H376.6z"/>
<path class="st0" d="M392,181.9h3.1l7.1,20.6h-3l-1.8-5.4h-7.7l-1.8,5.4h-3L392,181.9z M390.7,194.3h5.7l-2.9-8.5L390.7,194.3z"/>
<path class="st0" d="M420.6,187.3c-1.4-2-3.8-3.2-6.3-3.1c-4.7,0-7.6,3.4-7.6,8.1s2.9,8,7.6,8c4.1,0,7.3-2.7,7.6-6.5h-10.5v-2.8H422
	l2.7,2.7c-0.5,5.4-5,9.5-10.5,9.5c-6,0-10.9-4.9-10.9-10.9c0-6,4.9-10.9,10.9-10.9c3.2,0,6.3,1.4,8.4,3.9L420.6,187.3z"/>
<path class="st0" d="M427.5,181.9h12.4v2.8h-9.5v5.9h9.2v2.8h-9.2v6.2h9.5v2.8h-12.4V181.9z"/>
<path class="st0" d="M302.3,233.6h0.5v-15h-0.5v-2.8h3.9v2.8h-0.5v15h0.5v2.8h-3.9V233.6z"/>
<path class="st0" d="M323,215.8h2.9v20.6h-3.3l-8.8-15.5v15.5h-2.9v-20.6h3.3L323,231V215.8z"/>
<path class="st0" d="M342.7,215.8h2.9v20.6h-3.3l-8.8-15.5v15.5h-2.9v-20.6h3.3l8.8,15.3V215.8z"/>
<path class="st0" d="M360,215.2c6,0,10.9,4.9,10.9,10.9S366,237,360,237c-6,0-10.9-4.9-10.9-10.9c0,0,0,0,0,0
	C349.1,220.1,353.9,215.2,360,215.2C359.9,215.2,359.9,215.2,360,215.2z M360,234.2c4.2,0.1,7.8-3.2,7.9-7.4c0-0.2,0-0.4,0-0.6
	c0-4.7-3.2-8.1-7.9-8.1c-4.4,0.2-7.9,3.9-7.8,8.3C352.3,230.6,355.7,234,360,234.2L360,234.2z"/>
<path class="st0" d="M375,215.8l5.3,16.5l5.4-16.5h3l-6.8,20.6h-3.1l-6.8-20.6H375z"/>
<path class="st0" d="M394.9,215.8h3.1l7.1,20.6h-3l-1.8-5.4h-7.6l-1.8,5.4h-3L394.9,215.8z M393.5,228.2h5.7l-2.9-8.5L393.5,228.2z"
	/>
<path class="st0" d="M413.2,236.4h-3v-17.8h-5.7v-2.8h14.4v2.8h-5.7V236.4z"/>
<path class="st0" d="M421.6,233.6h0.5v-15h-0.5v-2.8h4v2.8h-0.5v15h0.5v2.8h-4V233.6z"/>
<path class="st0" d="M439.4,215.2c6,0,10.9,4.9,10.9,10.9s-4.9,10.9-10.9,10.9c-6,0-10.9-4.9-10.9-10.9c0,0,0,0,0,0
	C428.5,220.1,433.4,215.2,439.4,215.2C439.4,215.2,439.4,215.2,439.4,215.2z M439.4,234.2c4.2,0.1,7.8-3.2,7.9-7.4
	c0-0.2,0-0.4,0-0.6c0-4.7-3.2-8.1-7.9-8.1c-4.4,0.2-7.9,3.9-7.8,8.3C431.8,230.6,435.1,234,439.4,234.2L439.4,234.2z"/>
<path class="st0" d="M465.4,215.8h3v20.6h-3.3l-8.8-15.5v15.5h-3v-20.6h3.3l8.8,15.3V215.8z"/>
<path class="st0" d="M482.2,221.2c-0.1-1.8-1.7-3.2-3.5-3.1c-2.1,0-3.4,1.3-3.4,3c0,1.6,1,2.6,3.3,3.3c0.8,0.2,1.5,0.4,2.3,0.5
	c2.8,0.7,5.1,2.4,5.1,6c0,3.1-2.5,6.2-6.9,6.2c-3.9,0-7.1-3-7.2-6.2l3-1.1c-0.1,2.3,1.7,4.3,4,4.4c0.1,0,0.2,0,0.2,0
	c2.4,0,4-1.3,4-3.3s-1.8-2.8-3.3-3.1c-0.7-0.1-1.5-0.4-2.3-0.6c-2.7-0.8-5.1-2.7-5.1-6.2c0-3.3,2.8-5.6,6.4-5.6s6.6,2.5,6.6,5.9
	L482.2,221.2z"/>
<path class="st0" d="M501.1,229.8c-1.2-1.4-3.4-1.6-4.8-0.4c-1.4,1.2-1.6,3.4-0.4,4.8c0.6,0.7,1.5,1.2,2.5,1.2
	c1.7,0.1,3.1-1.1,3.3-2.8H497v-1.2h4.7l1.2,1.2c-0.2,2.4-2.2,4.1-4.5,4.1c-2.6,0-4.7-2.1-4.7-4.7s2.1-4.7,4.7-4.7
	c1.4,0,2.7,0.6,3.6,1.7L501.1,229.8z"/>
<path class="st0" d="M508.7,231.1c0.4-0.4,0.9-0.6,1.4-0.6c1.1-0.1,2,0.7,2.1,1.8c0,0.1,0,0.2,0,0.3v3.8H511v-3.7
	c0-0.7-0.4-1.1-1-1.1c-0.7,0-1.3,0.6-1.4,1.3v3.5h-1.3v-3.7c0-0.7-0.4-1.1-1-1.1c-0.7,0-1.3,0.6-1.4,1.3v3.5h-1.2v-5.8h1.1l0.1,0.5
	l0.1,0.1l0.1-0.1c0.3-0.4,0.8-0.6,1.4-0.6c0.8,0,1.5,0.3,1.8,1L508.7,231.1z"/>
<path class="st0" d="M513.6,227.1h1.2v4l0.1,0.1l0.1-0.1c0.4-0.4,1-0.6,1.6-0.6c1.7,0,3,1.3,3,3s-1.3,3-3,3c-0.6,0-1.2-0.2-1.6-0.6
	l-0.1-0.1l-0.1,0.1l-0.1,0.5h-1.1V227.1z M516.4,235.4c1.1-0.1,1.8-1,1.8-2c-0.1-0.9-0.8-1.7-1.8-1.8c-1.1,0.1-1.8,1-1.8,2
	C514.7,234.6,515.5,235.4,516.4,235.4z"/>
<path class="st0" d="M525.5,227.5h1.3v9h-1.3v-3.9h-3.4v3.9h-1.3v-9h1.3v3.8h3.4V227.5z"/>
<path class="st0" d="M218.8,189.4l-15.9,12.9c9.8,0.5,16.7,7.7,16.7,17.3c-0.2,9.7-8.1,17.5-17.9,17.5c-10.4,0-17.9-7.8-17.9-16.8
	h7.4c0,5.6,4.5,9.7,10.4,9.7c5.7,0,10.4-4.7,10.4-10.4c0,0,0,0,0,0c0-6.7-4.8-10.8-11.2-10.8h-7.5v-6.7l15.3-12.7H186v-7.4h28.3
	L218.8,189.4z"/>
<path class="st0" d="M259.7,189.4l-15.9,12.9c9.8,0.5,16.7,7.7,16.7,17.3c-0.2,9.7-8.1,17.5-17.9,17.5c-10.4,0-17.9-7.8-17.9-16.8
	h7.4c0,5.6,4.5,9.7,10.4,9.7c5.7,0,10.4-4.7,10.4-10.4c0,0,0,0,0,0c0-6.7-4.8-10.8-11.2-10.8h-7.5v-6.7l15.3-12.7H227v-7.4h28.3
	L259.7,189.4z"/>
<path class="st0" d="M167.7,230.4h-7.3v-69.8c0-4.5,2-8.8,5.4-11.7l33-28.4c1.8-1.6,2.8-3.8,2.8-6.2V87h7.3v27.2
	c0,4.5-2,8.8-5.4,11.8l-32.9,28.3c-1.8,1.6-2.8,3.8-2.8,6.2V230.4z"/>
<path class="st0" d="M267,285.8h-91.2c-8.6,0-15.5-6.9-15.5-15.5v-2.7h7.3v2.7c0,4.5,3.7,8.2,8.2,8.2H267c4.6,0,8.3-3.7,8.3-8.3
	V165.1h7.3v105.1C282.6,278.8,275.6,285.8,267,285.8z"/>
</svg>
