<?xml version="1.0" encoding="utf-8"?>
<!-- Generator: Adobe Illustrator 24.2.0, SVG Export Plug-In . SVG Version: 6.00 Build 0)  -->
<svg version="1.1" id="Ebene_1" xmlns="http://www.w3.org/2000/svg" xmlns:xlink="http://www.w3.org/1999/xlink" x="0px" y="0px"
	 viewBox="0 0 229.2 110" style="enable-background:new 0 0 229.2 110;" xml:space="preserve">
<style type="text/css">
	.st0{fill:#FFFFFF;}
</style>
<path class="st0" d="M0,28.5v-3.4C0,8.8,11,0,27.5,0s27.4,7.3,27.7,22.9v1.3H33.8v-0.6c-0.2-3.7-2.1-6.2-6.3-6.2
	c-4.6,0-6.9,2.9-6.9,8.2v2.1c0,5.4,2.3,8,6.8,8c4.1,0,6.2-2.4,6.4-6.2v-0.7h21.4v1C54.9,46.4,43.5,53,27.1,53C9.6,53,0,45.7,0,28.5z
	 M91.3,35.5H80v16.4H60V1.2h20v16.6h11.3V1.2h20v50.6h-20V35.5z M116.8,27.5V1.2h20.6v26.2c0,5.5,1.6,7.4,4.8,7.4s4.6-1.8,4.6-7.4
	V1.2h20.6v26.4c0,17.9-9.1,25.5-25.3,25.5C123.9,53,116.8,45.2,116.8,27.5L116.8,27.5z M191.7,38v13.8h-19.3V1.2h26.2
	c18.2,0,24.3,6,24.3,16.8c0,6.2-2.6,10.3-7.7,12.7c4.9,1.8,6.7,5.4,6.7,12.3v5.3c-0.1,1.5,0.6,2.9,1.9,3.6h-20.6
	c-1.1-0.7-1.7-2-1.6-3.3v-5.6c0-3.7-1.3-4.8-5-4.8L191.7,38z M191.7,16.6v6.8h7.1c2.7,0.1,4.2-1.3,4.2-3.3s-1.3-3.3-4.2-3.3
	L191.7,16.6z M34.3,86.4c-0.2,3.8-2.3,6.2-6.4,6.2c-4.6,0-6.9-2.6-6.9-7.9v-2.1c0-5.3,2.3-8.2,6.9-8.2c4.2,0,6.1,2.5,6.3,6.2v0.6
	h21.4v-1.3C55.3,64.3,44.3,57,27.9,57S0.4,65.8,0.4,82.1v3.4c0,17.2,9.6,24.5,27.1,24.5c16.4,0,27.8-6.6,28.1-23.3v-1H34.3V86.4z
	 M91.3,74.8H80V58.2H60v50.6h20V92.5h11.3v16.3h20V58.2h-20L91.3,74.8z M162.3,58.2h-20.7v50.6h42.1V90h-21.3L162.3,58.2z M207.9,90
	V58.2h-20.8v50.6h42.1V90H207.9z M116.7,108.8h19.4V58.2h-19.4V108.8z"/>
</svg>
