<svg xmlns="http://www.w3.org/2000/svg" viewBox="0 0 229.19 110.01"><defs><style>.a{fill:#3f3f3f;}</style></defs><path class="a" d="M0,28.48V25.11C0,8.79,11,0,27.5,0S54.86,7.31,55.21,22.93v1.26H33.83v-.63c-.21-3.73-2.11-6.19-6.33-6.19-4.57,0-6.89,2.89-6.89,8.16v2.11c0,5.42,2.25,8,6.82,8,4.08,0,6.19-2.39,6.4-6.19v-.7H55.28v1C54.93,46.42,43.53,53,27.15,53,9.57,53,0,45.65,0,28.48Zm91.29,7H80V51.83h-20V1.2H80V17.79H91.29V1.2h20V51.83h-20Zm25.53-8V1.2h20.61V27.36c0,5.48,1.55,7.38,4.78,7.38s4.64-1.75,4.64-7.38V1.2h20.61V27.57c0,17.86-9.14,25.46-25.32,25.46C123.86,53,116.82,45.22,116.82,27.57Zm74.84,10.55V51.83H172.38V1.2h26.17c18.21,0,24.26,6,24.26,16.8,0,6.19-2.6,10.27-7.66,12.66,4.92,1.76,6.68,5.42,6.68,12.31v5.28a3.79,3.79,0,0,0,1.9,3.58H203.12a3.64,3.64,0,0,1-1.62-3.3V42.9c0-3.73-1.26-4.78-5-4.78Zm0-21.45v6.75h7.1C201.5,23.42,203,22,203,20s-1.27-3.3-4.22-3.3ZM34.25,86.38c-.21,3.8-2.32,6.19-6.4,6.19C23.28,92.57,21,90,21,84.62V82.51c0-5.28,2.32-8.16,6.89-8.16,4.22,0,6.12,2.46,6.33,6.19v.63H55.63V79.91C55.28,64.29,44.31,57,27.92,57S.42,65.77.42,82.09v3.37C.42,102.62,10,110,27.57,110,44,110,55.35,103.4,55.7,86.66v-1H34.25Zm57-11.61H80V58.17h-20v50.64H80V92.5H91.29v16.31h20V58.17h-20Zm71-16.6H141.53v50.64h42.06V90H162.28ZM207.88,90V58.17H187.13v50.64h42.06V90Zm-91.15,18.85h19.41V58.17H116.73Z"/></svg>