<svg xmlns="http://www.w3.org/2000/svg" viewBox="0 0 643.94 94.96"><defs><style>.a{fill:#084a9a;}.b{fill:#24bbf0;}</style></defs><path class="a" d="M207.94,66.89a38.89,38.89,0,0,1-10.22,0V29.29a46.06,46.06,0,0,1,9.21-.13c1.4.91.57,2.37,1.37,3.47,7.76-5.05,15.48-8,22.54,1.37,1.49-.18,2.19-1.71,3.34-2.59a16.15,16.15,0,0,1,12.7-3.18c4.89.73,8.05,4.33,8.16,9.83.19,9.47.05,18.95.05,28.69-3.16.91-6.28.32-9.26.4-1.3-1.16-.82-2.58-.82-3.84,0-6.33,0-12.66,0-19-.05-5-1.81-7.18-5.63-7.18-4.62,0-8,3.1-8,7.52,0,7.3,0,14.61,0,22.11-3.33.89-6.45.23-9.73.49-.87-4-.31-7.81-.41-11.57s-.07-7.66,0-11.49c0-2.6-.16-5.07-2.81-6.44s-5.19-.49-7.53,1a25.06,25.06,0,0,0-2.88,2.47Z"/><path class="a" d="M382.57,14.5c8.9,0,17.89-.53,26.78.15s14.26,6.78,14.83,14.83c.65,9.11-3.57,15.93-11.43,18.2a34.15,34.15,0,0,1-9.41,1h-10V66.93H382.63C381.84,63,381.76,19.55,382.57,14.5Zm11.05,9.84a21.75,21.75,0,0,0-.4,6.92c0,2.27-.47,4.6.48,7.08,4.16,0,8.27.06,12.38,0a6.35,6.35,0,0,0,6-3.73c2.36-4.77-.49-9.64-6.32-10.17C401.81,24.05,397.83,24.34,393.62,24.34Z"/><path class="a" d="M36.52,95H24.26l10-23.24c17.28,1.53,29.35-4.84,35.13-18.21,5.18-12,2.61-27.14-10.71-37.63a60.61,60.61,0,0,1,3.86-9.27C76,13,84.3,30.63,82.05,47.82,79.61,66.38,65.46,79,42.19,83.17,39.83,86.63,39,91,36.52,95Z"/><path class="a" d="M143.49,50.78a42,42,0,0,1,8.89,4.46c-3.59,9.35-15.48,15.22-28.24,12.29-13.71-3.16-21.33-13.29-21.33-27.38a26.15,26.15,0,0,1,21.28-25.93c12.85-2.69,24,2.26,28.29,12.48l-8.63,4.35c-8.67-8.78-17.92-9.64-24.76-2.45-6.44,6.76-6.1,19.1.69,25.3C126.82,60.42,136,59.36,143.49,50.78Z"/><path class="b" d="M41.11,60.12c-10.37-.06-19.42-9.07-18.72-19.24s8.46-18.07,18.76-18.12A18.72,18.72,0,0,1,60,41.69C60,52.06,50.44,60.81,41.11,60.12Z"/><path class="a" d="M19.79,76.3C6.06,69.19-5.89,47.87,3.15,25.67,11.64,4.8,34.64-3.95,51.79,1.66c.35,1.76-.87,3.07-1.47,4.55s-1.33,3-2.14,4.85C31,9.22,17.77,15.19,12.19,32.27c-4.5,13.8.21,25.48,11.62,34.65A56.37,56.37,0,0,1,19.79,76.3Z"/><path class="a" d="M291.32,29.18h9.2c1,3.48,1.21,31.56.27,37.8h-9c-1.3-.64-.08-2.39-1.21-3.45-3.08,2.54-6.35,4.62-10.63,4.66-7.42.08-13.25-3.67-15.81-10.64a26.75,26.75,0,0,1,.09-19c3.88-10.34,15.71-13.68,24.62-7.11.52.39,1,.84,2,1.68C291,31.68,291.13,30.66,291.32,29.18Zm-.27,12.39c-3.21-5.28-11.15-5.79-14.92-2C272.07,43.7,272,52.37,276,56.51c3.93,4,9.94,3.33,15-1.74Z"/><path class="a" d="M455.86,32.86l.65-3.63h9.67c.7,6.45.13,12.74.24,19s0,12.27,0,18.65c-3.16.7-6.29.15-9,.35-1.72-.9-.82-2.38-1.5-3.36-.24,0-.63-.12-.78,0-5.23,4.85-11.28,5.62-17.56,2.85S428.72,58.5,428,52c-.49-4.66-.38-9.3,1.41-13.75,4.73-11.75,18.38-12.64,24.7-6.73C454.6,32,455.16,32.32,455.86,32.86Zm.24,8.46C452.29,36,444.58,36,441.05,39.81c-3.85,4.21-3.92,12.43,0,16.56S451,60,456.1,54.92Z"/><path class="a" d="M614.56,51.32H587.37c.57,9.09,9.24,11.34,20.23,5.53,1.17.51,1.54,1.71,2.24,2.62s1.41,2.16,2.08,3.21c-12.1,10.87-31.45,5.89-35.21-9-2-7.76-.52-14.92,5.64-20.56,5.83-5.35,12.69-6.36,20-4C610.79,31.85,615.65,40.62,614.56,51.32Zm-9.83-7.19c-1.05-5.55-3.94-8.08-9-8s-7.92,2.59-8.76,8Z"/><path class="a" d="M346.23,51.05c2.57,9.68,9.4,11.43,20.86,5.89,1.87,1.52,2.94,3.69,4.13,5.7-5.12,6.52-19.7,7.15-26.55,2.85-7.31-4.59-10.89-13.38-8.7-22.6,2.27-9.53,10.53-15.39,20.84-14.79,9.06.53,16.17,7.55,17.22,17.08a14.54,14.54,0,0,1-.18,5.87Zm17.85-6.93c-1.16-5.82-4.09-8.23-9.27-8-4.89.21-7.73,2.85-8.42,8Z"/><path class="a" d="M533.34,29.17h9c1.46,1,.16,2.68,1.48,3.75,3.94-3.2,8.36-5.16,13.64-4.88,6.82.38,11.12,3.94,11.4,10.77.37,9.28.09,18.58.09,28.14h-10v-18c0-1.17,0-2.33,0-3.5-.18-7.76-5.9-10.89-12.54-6.82a31.14,31.14,0,0,0-3.27,2.7V66.91h-9.78Z"/><path class="a" d="M330.76,58.59c.67,2.31,1.31,4.52,1.95,6.71-4,3.31-10.68,4-14.85,1.48a8.69,8.69,0,0,1-4-6c-.79-3.64-.48-7.3-.53-11s0-7.58,0-11.08c-2.1-1.31-4.1-.16-6-1.31V29.63c1.51-1.28,3.51-.12,5.5-1,1.22-2.92-.16-6.34.84-9.76,3.11-.86,6.33-.49,10.08-.25v9.76c2.66,1.27,5.12,0,7.48,1.13v7.83c-2.21,1.33-4.69,0-7.34,1.21,0,5.66-.09,11.59,0,17.51,0,2.19,1.56,3.22,3.75,3C328.67,59,329.61,58.78,330.76,58.59Z"/><path class="a" d="M527.31,65.68c-4.27,3.21-8.57,3.07-12.8,1.91s-6.21-4.36-6.34-8.6c-.16-5-.09-10-.11-15,0-1.81,0-3.62,0-5.33-1.89-1.31-3.89-.17-5.92-1.29-.64-2.45-.27-5.17-.19-7.72,2-1.21,3.94-.09,6.07-1.25V18.66h10v9.48c2.49,1.77,5.17.19,7.77,1.38a34.33,34.33,0,0,1,.13,7.75c-2.24,1.52-4.92,0-7.73,1.28,0,5.36-.13,11,0,16.59.1,3,1.5,4,4.54,3.94.79,0,1.5-.79,2.68,0C526,61,526.62,63.2,527.31,65.68Z"/><path class="a" d="M168.61,67a37.59,37.59,0,0,1-9.89-.07V14.64c3.24-.69,6.43-.25,9.89-.22Z"/><path class="a" d="M643.94,28.16V37.8c-4.29-.19-8.32.47-11.88,4.17V67h-9.88V29.32h9.31c1,.95.23,2.28.93,3.57C635.85,30.84,639.05,28.08,643.94,28.16Z"/><path class="a" d="M476.32,29.16h9.07c1.35,1.05.11,2.69,1.37,3.85,3.26-2.36,6.5-5,11.21-4.79V37.5c-4.17.49-8.61.55-11.88,4.77V66.94h-9.77Z"/><path class="a" d="M187.9,67h-9.46V29.31h9.46Z"/><path class="a" d="M177.11,18.81a5.94,5.94,0,0,1,6.1-5.87,5.73,5.73,0,0,1,5.89,6A6.07,6.07,0,0,1,183,25,6.14,6.14,0,0,1,177.11,18.81Z"/></svg>