<?xml version="1.0" encoding="utf-8"?>
<!-- Generator: Adobe Illustrator 24.2.0, SVG Export Plug-In . SVG Version: 6.00 Build 0)  -->
<svg version="1.1" id="Ebene_2" xmlns="http://www.w3.org/2000/svg" xmlns:xlink="http://www.w3.org/1999/xlink" x="0px" y="0px"
	 viewBox="0 0 214 192.9" style="enable-background:new 0 0 214 192.9;" xml:space="preserve">
<style type="text/css">
	.st0{fill:#FFFFFF;}
	.st1{fill:none;stroke:#FFFFFF;stroke-width:1.3067;stroke-linecap:round;stroke-miterlimit:10;}
</style>
<g>
	<polygon class="st0" points="66,61.1 66.1,61.1 66.1,79.5 70.1,79.5 70.1,55.5 66.9,55.5 63.2,59.9 63.2,64.1 63.2,64.1 	"/>
	<g>
		<path class="st0" d="M140.9,102.2c0-1.8,1.5-3.3,3.3-3.3c1.8,0,3.3,1.5,3.3,3.3c0,1.8-1.5,3.3-3.3,3.3
			C142.4,105.5,140.9,104,140.9,102.2"/>
		<path class="st0" d="M148,106.7c2.2,0.2,4,2.1,4,4.4v1.1v0.5v7.5c0,0.7-0.6,1.3-1.3,1.3c-0.7,0-1.3-0.6-1.3-1.3v-7.8
			c0-0.3-0.1-0.7-0.6-0.7c-0.4,0-0.4,0.4-0.5,0.6v23.5c0,1-0.8,1.8-1.8,1.8c-1,0-1.8-0.8-1.8-1.8v-13.5c0-0.1-0.1-0.5-0.5-0.5h0
			c-0.5,0-0.5,0.4-0.5,0.5v13.5c0,1-0.8,1.8-1.8,1.8c-1,0-1.8-0.8-1.8-1.8v-23.5c0-0.3-0.1-0.6-0.5-0.6c-0.5,0-0.6,0.4-0.6,0.7v7.8
			c0,0.7-0.6,1.3-1.3,1.3c-0.7,0-1.3-0.6-1.3-1.3v-7.5v-0.5v-1.1c0-2.3,1.7-4.2,4-4.4c0.1,0,0.2,0,0.2,0h3.6h3.6
			C147.9,106.7,147.9,106.7,148,106.7"/>
	</g>
	<g>
		<path class="st0" d="M121.4,103.9c0-1.7-1.4-3.1-3.1-3.1c-1.7,0-3.1,1.4-3.1,3.1c0,1.7,1.4,3.1,3.1,3.1
			C120,107,121.4,105.6,121.4,103.9"/>
		<path class="st0" d="M112,111l-2.6,8.4c0,0-0.5,1.5,0.8,1.9c1.3,0.4,1.7-1.1,1.7-1.1l2.1-7c0,0,0.1-0.5,0.5-0.4
			c0.4,0.1,0.3,0.7,0.3,0.7l-3.6,13.2h3.4v9.4c0,0.9,0.7,1.6,1.6,1.6c0.9,0,1.6-0.7,1.6-1.6v-9.4h0.5h0.5v9.4c0,0.9,0.7,1.6,1.6,1.6
			c0.9,0,1.6-0.7,1.6-1.6v-9.4h3.4l-3.6-13.2c0,0-0.2-0.6,0.3-0.7c0.4-0.1,0.5,0.4,0.5,0.4l2.1,7c0,0,0.4,1.5,1.7,1.1
			c1.3-0.4,0.8-1.9,0.8-1.9l-2.6-8.4c0,0-0.9-2.4-3-2.4h-3.3h-3.3C112.9,108.5,112,111,112,111"/>
	</g>
	<g>
		<path class="st0" d="M102.7,103.9c0-1.7-1.4-3.1-3.1-3.1c-1.7,0-3.1,1.4-3.1,3.1c0,1.7,1.4,3.1,3.1,3.1
			C101.3,107,102.7,105.6,102.7,103.9"/>
		<path class="st0" d="M93.3,111l-2.6,8.4c0,0-0.5,1.5,0.8,1.9c1.3,0.4,1.7-1.1,1.7-1.1l2.1-7c0,0,0.1-0.5,0.5-0.4
			c0.4,0.1,0.3,0.7,0.3,0.7l-3.6,13.2h3.4v9.4c0,0.9,0.7,1.6,1.6,1.6c0.9,0,1.6-0.7,1.6-1.6v-9.4h0.5h0.5v9.4c0,0.9,0.7,1.6,1.6,1.6
			c0.9,0,1.6-0.7,1.6-1.6v-9.4h3.4l-3.6-13.2c0,0-0.2-0.6,0.3-0.7c0.4-0.1,0.5,0.4,0.5,0.4l2.1,7c0,0,0.4,1.5,1.7,1.1
			c1.3-0.4,0.8-1.9,0.8-1.9l-2.6-8.4c0,0-0.9-2.4-3-2.4h-3.3h-3.3C94.3,108.5,93.3,111,93.3,111"/>
	</g>
	<g>
		<path class="st0" d="M131.8,121.3c1.4,0,2.6-1.2,2.6-2.6c0-1.4-1.2-2.6-2.6-2.6s-2.6,1.2-2.6,2.6
			C129.2,120.2,130.4,121.3,131.8,121.3"/>
		<path class="st0" d="M125.6,129.4c-0.1,0.3-0.2,0.9,0.4,1.2c0.7,0.3,1.1-0.4,1.1-0.4l1.4-4.5c0,0,0.2-0.3,0.2,0v10.6h0
			c0,0.7,0.6,1.3,1.3,1.3c0.7,0,1.3-0.6,1.3-1.3v-4.2c0,0-0.1-0.6,0.4-0.6c0.5,0,0.4,0.6,0.4,0.6v4.2c0,0.7,0.6,1.3,1.3,1.3
			c0.7,0,1.3-0.6,1.3-1.3v-10.6c0-0.3,0.2-0.1,0.2-0.1l1.1,3.1c0,0,0.5,1.4,0.6,1.4c0.5,0.2,1.1,0,1.3-0.5c0.1-0.3,0.1-0.7-0.1-0.9
			l0,0c0-0.1-1.6-4.1-1.8-4.6c-0.6-1.7-1.6-1.7-2.7-1.7c-1,0-1.6,0-1.6,0s-0.7,0-2,0c-1.3,0-1.8,0.7-3.3,4.6
			C126.3,127.5,125.6,129.3,125.6,129.4L125.6,129.4z"/>
	</g>
	<g>
		<g>
			<path class="st0" d="M74.9,102.2c0-1.8-1.5-3.3-3.3-3.3c-1.8,0-3.3,1.5-3.3,3.3c0,1.8,1.5,3.3,3.3,3.3
				C73.4,105.5,74.9,104,74.9,102.2"/>
			<path class="st0" d="M67.8,106.7c-2.2,0.2-4,2.1-4,4.4v1.1v0.5v7.5c0,0.7,0.6,1.3,1.3,1.3c0.7,0,1.3-0.6,1.3-1.3v-7.8
				c0-0.3,0.1-0.7,0.6-0.7c0.4,0,0.4,0.4,0.5,0.6v23.5c0,1,0.8,1.8,1.8,1.8c1,0,1.8-0.8,1.8-1.8v-13.5c0-0.1,0.1-0.5,0.5-0.5h0
				c0.5,0,0.5,0.4,0.5,0.5v13.5c0,1,0.8,1.8,1.8,1.8c1,0,1.8-0.8,1.8-1.8v-23.5c0-0.3,0.1-0.6,0.5-0.6c0.5,0,0.6,0.4,0.6,0.7v7.8
				c0,0.7,0.6,1.3,1.3,1.3c0.7,0,1.3-0.6,1.3-1.3v-7.5v-0.5v-1.1c0-2.3-1.7-4.2-4-4.4c-0.1,0-0.2,0-0.2,0h-3.6H68
				C67.9,106.7,67.9,106.7,67.8,106.7"/>
		</g>
		<line class="st1" x1="64.9" y1="121.5" x2="62" y2="137"/>
	</g>
	<g>
		<path class="st0" d="M81,120c-0.2-0.3-0.5-0.4-0.8-0.4c-0.5,0-0.9,0.4-0.9,0.9c0,0.2,0.1,0.4,0.1,0.4l2.6,4.7c0,0,0.2,0.3,0.2,0.6
			v10.1h0c0,0.7,0.6,1.3,1.3,1.3c0.7,0,1.3-0.6,1.3-1.3v-4c0,0-0.1-0.6,0.4-0.6c0.5,0,0.4,0.6,0.4,0.6v4c0,0.7,0.6,1.3,1.3,1.3
			c0.7,0,1.3-0.6,1.3-1.3v-10.1c0-0.3,0.2-0.6,0.2-0.6l2.4-4.4c0,0,0.3-0.6,0.3-0.8c0-0.5-0.4-0.9-0.9-0.9c-0.3,0-0.6,0.2-0.8,0.4
			l0,0c-0.1,0.1-1.3,2.2-1.7,2.6c-0.4,0.4-0.8,0.4-0.8,0.4h-1.6h-1.6c0,0-0.4,0-0.8-0.4C82.3,122.2,81.1,120,81,120L81,120z"/>
		<path class="st0" d="M85.1,121.3c1.4,0,2.6-1.2,2.6-2.6c0-1.4-1.2-2.6-2.6-2.6c-1.4,0-2.6,1.2-2.6,2.6
			C82.5,120.2,83.6,121.3,85.1,121.3"/>
		<polygon class="st0" points="85.1,125 88,127.1 89.4,132.2 85.1,132.2 80.7,132.2 82.1,127.1 		"/>
	</g>
	<g>
		<path class="st0" d="M85,59v6.1h-1.4v-9.7h1.6l1.8,5.6v-5.6h1.4v9.7h-1.4L85,59z"/>
		<path class="st0" d="M89.4,62.6v-4.7c0-1.5,0.7-2.6,2.5-2.6c1.7,0,2.5,1.1,2.5,2.6v4.7c0,1.5-0.7,2.6-2.5,2.6
			C90.1,65.2,89.4,64.1,89.4,62.6z M92.7,62.8v-5.2c0-0.6-0.3-1-0.8-1c-0.6,0-0.8,0.4-0.8,1v5.2c0,0.6,0.3,1,0.8,1
			C92.5,63.8,92.7,63.4,92.7,62.8z"/>
	</g>
	<g>
		<path class="st0" d="M83.6,69.7H86c1.6,0,2.2,0.8,2.2,2.2v2c0,1.4-0.6,2.2-2.2,2.2h-0.8v3.3h-1.6V69.7z M85.2,71v3.8h0.6
			c0.6,0,0.8-0.3,0.8-0.8v-2.2c0-0.5-0.2-0.8-0.8-0.8H85.2z"/>
		<path class="st0" d="M89.3,76.9v-4.7c0-1.5,0.7-2.6,2.5-2.6c1.7,0,2.5,1.1,2.5,2.6v4.7c0,1.5-0.7,2.6-2.5,2.6
			C90,79.5,89.3,78.4,89.3,76.9z M92.6,77.2V72c0-0.6-0.3-1-0.8-1c-0.6,0-0.8,0.4-0.8,1v5.2c0,0.6,0.3,1,0.8,1
			C92.3,78.2,92.6,77.8,92.6,77.2z"/>
		<path class="st0" d="M100.2,69.7l-1.8,9.7h-1.8l-1.8-9.7h1.7l1.1,6.8h0l1.1-6.8H100.2z"/>
		<path class="st0" d="M101,69.7h3.9V71h-2.3v2.8h1.6v1.3h-1.6v2.9h2.3v1.3H101V69.7z"/>
		<path class="st0" d="M107.6,75v4.5h-1.6v-9.7h2.4c1.6,0,2.2,0.8,2.2,2.2v1.2c0,1-0.4,1.7-1.3,1.9l1.6,4.4h-1.7L107.6,75z
			 M107.6,71v3h0.5c0.6,0,0.8-0.3,0.8-0.8v-1.4c0-0.5-0.2-0.8-0.8-0.8H107.6z"/>
		<path class="st0" d="M111.3,69.7h4.3V71h-1.3v8.4h-1.6V71h-1.3V69.7z"/>
		<path class="st0" d="M119.7,75.7v3.7H118v-3.7l-1.8-6h1.7l1,3.7h0l1-3.7h1.6L119.7,75.7z"/>
	</g>
</g>
</svg>
