<?xml version="1.0" encoding="utf-8"?>
<!-- Generator: Adobe Illustrator 24.2.0, SVG Export Plug-In . SVG Version: 6.00 Build 0)  -->
<svg version="1.1" id="Ebene_2" xmlns="http://www.w3.org/2000/svg" xmlns:xlink="http://www.w3.org/1999/xlink" x="0px" y="0px"
	 viewBox="0 0 214 192.9" style="enable-background:new 0 0 214 192.9;" xml:space="preserve">
<style type="text/css">
	.st0{fill:#FFFFFF;}
</style>
<g>
	<polygon class="st0" points="65.1,51.7 65.1,71.4 69.4,71.4 69.4,45.7 66,45.7 62,50.3 62,54.8 62,54.8 65.1,51.7 	"/>
	<path class="st0" d="M85.2,64.7V52.3c0-4-2-6.9-6.4-6.9c-4.4,0-6.4,2.9-6.4,6.9v12.4c0,4,2,6.9,6.4,6.9
		C83.2,71.7,85.2,68.7,85.2,64.7 M76.8,65.4V51.6c0-1.6,0.6-2.7,2-2.7c1.5,0,2.1,1.1,2.1,2.7v13.8c0,1.6-0.6,2.7-2.1,2.7
		C77.3,68.1,76.8,67,76.8,65.4"/>
	<path class="st0" d="M129.7,119.1h-25.5c-0.2,0-0.3,0.1-0.3,0.3v5.8c0,0.2,0.1,0.3,0.3,0.3h25.5c0.2,0,0.3-0.1,0.3-0.3v-5.8
		C129.9,119.3,129.8,119.1,129.7,119.1"/>
	<path class="st0" d="M129.9,108.6c0-0.2-0.1-0.3-0.3-0.3h-21.1h-4.4c-0.2,0-0.3,0.1-0.3,0.3v2.3v3.5c0,0.2,0.1,0.3,0.3,0.3h25.5
		c0.2,0,0.3-0.1,0.3-0.3V108.6z"/>
	<path class="st0" d="M144.7,110.8c-1-4.2-2.9-7.9-5.5-11.1l-0.1,0c0.8,1.2,1.6,2.5,2.2,3.9c3.3,6.1,4.3,13.4,2.2,20.5
		c-4.2,14.3-19.2,22.6-33.5,18.4c-6-1.8-11-5.4-14.4-10.2c-2.1-2.7-3.7-5.9-4.6-9.5c-3.4-13.7,4.9-27.5,18.6-30.9
		c8.5-2.1,17,0.3,23.1,5.7c0.1,0,0.1,0.1,0.2,0.1c0.2,0.1,0.4,0.2,0.6,0.2c0.2,0,0.5-0.1,0.6-0.2l0.1-0.1l3.2-3.2l0.2-0.2
		c0.1-0.2,0.2-0.4,0.2-0.6c0-0.3-0.1-0.5-0.3-0.7c0,0-0.1-0.1-0.1-0.1c-7.5-6.7-18-9.7-28.5-7.1c-16.8,4.2-27,21.2-22.9,38
		c1.8,7,5.8,12.9,11.1,17.1c5.3,4.3,12,6.8,19,6.7c2.3,0,4.6-0.3,6.9-0.9C139,142.7,148.6,126.7,144.7,110.8"/>
	<g>
		<path class="st0" d="M95.3,51.4v4.8h-1.8V45.6h2.6c1.8,0,2.4,0.9,2.4,2.4v1.4c0,1.1-0.4,1.8-1.4,2l1.7,4.8h-1.9L95.3,51.4z
			 M95.3,47.1v3.3h0.6c0.6,0,0.9-0.3,0.9-0.9v-1.6c0-0.6-0.3-0.9-0.9-0.9H95.3z"/>
		<path class="st0" d="M99.6,45.6h4.2v1.5h-2.5v3h1.8v1.4h-1.8v3.2h2.5v1.5h-4.2V45.6z"/>
		<path class="st0" d="M110.3,48.5v4.9c0,1.6-0.7,2.8-2.6,2.8H105V45.6h2.7C109.6,45.6,110.3,46.8,110.3,48.5z M107.5,54.8
			c0.7,0,1-0.4,1-1.1v-5.5c0-0.6-0.3-1.1-1-1.1h-0.7v7.7H107.5z"/>
		<path class="st0" d="M116.6,45.6v8c0,1.6-0.7,2.7-2.5,2.7c-1.9,0-2.7-1.1-2.7-2.7v-8h1.8v8.2c0,0.6,0.2,1,0.9,1
			c0.6,0,0.9-0.4,0.9-1v-8.2H116.6z"/>
		<path class="st0" d="M117.8,53.5v-5.1c0-1.7,0.8-2.9,2.7-2.9c2,0,2.5,1.1,2.5,2.7v1.2h-1.6V48c0-0.7-0.2-1-0.9-1
			c-0.6,0-0.9,0.5-0.9,1.1v5.7c0,0.6,0.3,1.1,0.9,1.1c0.6,0,0.9-0.4,0.9-1v-1.9h1.6v1.8c0,1.5-0.6,2.6-2.5,2.6
			C118.6,56.3,117.8,55.1,117.8,53.5z"/>
		<path class="st0" d="M124.1,45.6h4.2v1.5h-2.5v3h1.8v1.4h-1.8v3.2h2.5v1.5h-4.2V45.6z"/>
		<path class="st0" d="M134.8,48.5v4.9c0,1.6-0.7,2.8-2.6,2.8h-2.7V45.6h2.7C134.1,45.6,134.8,46.8,134.8,48.5z M132,54.8
			c0.7,0,1-0.4,1-1.1v-5.5c0-0.6-0.3-1.1-1-1.1h-0.7v7.7H132z"/>
	</g>
	<g>
		<path class="st0" d="M93.5,60.8h1.8v10.6h-1.8V60.8z"/>
		<path class="st0" d="M97.9,64.7v6.6h-1.5V60.8h1.7l1.9,6.1v-6.1h1.5v10.6H100L97.9,64.7z"/>
		<path class="st0" d="M102.6,60.8h4.2v1.5h-2.5v3h1.8v1.4h-1.8v3.2h2.5v1.5h-4.2V60.8z"/>
		<path class="st0" d="M109.5,72.1v-0.7c-1.4-0.2-2-1.3-2-2.7v-5.1c0-1.7,0.8-2.9,2.7-2.9c1.9,0,2.7,1.2,2.7,2.9v5.1
			c0,1.2-0.4,2.1-1.3,2.5l1.3,0.2v1.3L109.5,72.1z M111.1,69v-5.8c0-0.6-0.3-1.1-0.9-1.1c-0.6,0-0.9,0.5-0.9,1.1V69
			c0,0.6,0.3,1.1,0.9,1.1C110.8,70.1,111.1,69.6,111.1,69z"/>
		<path class="st0" d="M119,60.8v8c0,1.6-0.7,2.7-2.5,2.7c-1.9,0-2.7-1.1-2.7-2.7v-8h1.8v8.2c0,0.6,0.2,1,0.9,1c0.6,0,0.9-0.4,0.9-1
			v-8.2H119z"/>
		<path class="st0" d="M119.6,71.3l2-10.6h2l2,10.6h-1.8l-0.3-1.9h-1.9l-0.3,1.9H119.6z M121.8,68h1.4l-0.7-4.2h0L121.8,68z"/>
		<path class="st0" d="M126.3,60.8h1.8v9.1h2.1v1.5h-3.9V60.8z"/>
		<path class="st0" d="M131,60.8h1.8v10.6H131V60.8z"/>
		<path class="st0" d="M133.6,60.8h4.7v1.5h-1.5v9.1h-1.8v-9.1h-1.5V60.8z"/>
		<path class="st0" d="M139.2,60.8h1.8v10.6h-1.8V60.8z"/>
		<path class="st0" d="M142,60.8h4.2v1.5h-2.5v3h1.8v1.4h-1.8v3.2h2.5v1.5H142V60.8z"/>
		<path class="st0" d="M146.9,69.1v-1.4h1.7v1.4c0,0.6,0.3,0.9,0.9,0.9c0.6,0,0.8-0.4,0.8-0.9v-0.4c0-0.6-0.2-1-0.8-1.5l-1-1
			c-1-1-1.5-1.6-1.5-2.8V63c0-1.3,0.8-2.3,2.5-2.3c1.8,0,2.5,0.9,2.5,2.4v0.9h-1.6V63c0-0.6-0.3-0.9-0.8-0.9c-0.5,0-0.8,0.3-0.8,0.9
			v0.2c0,0.6,0.3,0.9,0.8,1.4l1.1,1.1c1,1,1.4,1.6,1.4,2.7V69c0,1.5-0.8,2.5-2.6,2.5C147.6,71.5,146.9,70.5,146.9,69.1z"/>
	</g>
</g>
</svg>
