<?xml version="1.0" encoding="utf-8"?>
<!-- Generator: Adobe Illustrator 24.2.0, SVG Export Plug-In . SVG Version: 6.00 Build 0)  -->
<svg version="1.1" id="Ebene_2" xmlns="http://www.w3.org/2000/svg" xmlns:xlink="http://www.w3.org/1999/xlink" x="0px" y="0px"
	 viewBox="0 0 214 192.9" style="enable-background:new 0 0 214 192.9;" xml:space="preserve">
<style type="text/css">
	.st0{fill:#FFFFFF;}
</style>
<g>
	<polygon class="st0" points="62,58.4 62,62.1 62,62.1 64.5,59.5 64.5,59.5 64.5,75.3 68,75.3 68,54.7 65.2,54.7 	"/>
	<polygon class="st0" points="69.9,58.4 69.9,62.1 69.9,62.1 72.4,59.5 72.4,59.5 72.4,75.3 75.9,75.3 75.9,54.7 73.1,54.7 	"/>
	<g>
		<g>
			<path class="st0" d="M72.3,124h0.2h15.2c0.2,0,0.4-0.2,0.4-0.4c0-0.1,0-0.2-0.1-0.3l0,0l-7.6-9.9l-0.1-0.1
				c-0.1-0.1-0.2-0.1-0.3-0.1c-0.1,0-0.2,0-0.2,0.1l0,0.1l-0.1,0.1l-7.5,9.8l-0.1,0.1c0,0.1-0.1,0.1-0.1,0.2
				C71.9,123.8,72.1,124,72.3,124z"/>
			<path class="st0" d="M87.6,125.3H72.2c-0.2,0-0.4,0.2-0.4,0.4v12.1c0,0.2,0.2,0.4,0.4,0.4h5v-7.6c0-0.2,0.2-0.4,0.4-0.4h4.6
				c0.2,0,0.4,0.2,0.4,0.4v7.6h5.1c0.2,0,0.4-0.2,0.4-0.4v-12.1C88,125.5,87.8,125.3,87.6,125.3z"/>
		</g>
		<path class="st0" d="M140.8,122.2h-15.2c-0.2,0-0.4,0.2-0.4,0.4v15.4c0,0.2,0.2,0.4,0.4,0.4h15.2c0.2,0,0.4-0.2,0.4-0.4v-15.4
			C141.2,122.4,141,122.2,140.8,122.2 M132.5,132.2c0,0.2-0.2,0.4-0.4,0.4h-4.6c-0.2,0-0.4-0.2-0.4-0.4v-2.8c0-0.2,0.2-0.4,0.4-0.4
			h4.6c0.2,0,0.4,0.2,0.4,0.4V132.2z M132.5,127.1c0,0.2-0.2,0.4-0.4,0.4h-4.6c-0.2,0-0.4-0.2-0.4-0.4v-2.8c0-0.2,0.2-0.4,0.4-0.4
			h4.6c0.2,0,0.4,0.2,0.4,0.4V127.1z M139.4,132.2c0,0.2-0.2,0.4-0.4,0.4h-4.6c-0.2,0-0.4-0.2-0.4-0.4v-2.8c0-0.2,0.2-0.4,0.4-0.4
			h4.6c0.2,0,0.4,0.2,0.4,0.4V132.2z M139.4,127.1c0,0.2-0.2,0.4-0.4,0.4h-4.6c-0.2,0-0.4-0.2-0.4-0.4v-2.8c0-0.2,0.2-0.4,0.4-0.4
			h4.6c0.2,0,0.4,0.2,0.4,0.4V127.1z"/>
		<path class="st0" d="M105.4,86.5H90.5c-0.2,0-0.4,0.2-0.4,0.4v51c0,0.2,0.2,0.4,0.4,0.4h14.9c0.2,0,0.4-0.2,0.4-0.4v-51
			C105.8,86.6,105.6,86.5,105.4,86.5 M96.5,132.4c0,0.1-0.1,0.2-0.2,0.2h-3.4c-0.1,0-0.2-0.1-0.2-0.2v-3.8c0-0.1,0.1-0.2,0.2-0.2
			h3.4c0.1,0,0.2,0.1,0.2,0.2V132.4z M96.5,123.6c0,0.1-0.1,0.2-0.2,0.2h-3.4c-0.1,0-0.2-0.1-0.2-0.2v-3.8c0-0.1,0.1-0.2,0.2-0.2
			h3.4c0.1,0,0.2,0.1,0.2,0.2V123.6z M96.5,114.9c0,0.1-0.1,0.2-0.2,0.2h-3.4c-0.1,0-0.2-0.1-0.2-0.2v-3.8c0-0.1,0.1-0.2,0.2-0.2
			h3.4c0.1,0,0.2,0.1,0.2,0.2V114.9z M96.5,106.1c0,0.1-0.1,0.2-0.2,0.2h-3.4c-0.1,0-0.2-0.1-0.2-0.2v-3.8c0-0.1,0.1-0.2,0.2-0.2
			h3.4c0.1,0,0.2,0.1,0.2,0.2V106.1z M96.5,97.4c0,0.1-0.1,0.2-0.2,0.2h-3.4c-0.1,0-0.2-0.1-0.2-0.2v-3.8c0-0.1,0.1-0.2,0.2-0.2h3.4
			c0.1,0,0.2,0.1,0.2,0.2V97.4z M103.2,132.4c0,0.1-0.1,0.2-0.2,0.2h-3.4c-0.1,0-0.2-0.1-0.2-0.2v-3.8c0-0.1,0.1-0.2,0.2-0.2h3.4
			c0.1,0,0.2,0.1,0.2,0.2V132.4z M103.2,123.6c0,0.1-0.1,0.2-0.2,0.2h-3.4c-0.1,0-0.2-0.1-0.2-0.2v-3.8c0-0.1,0.1-0.2,0.2-0.2h3.4
			c0.1,0,0.2,0.1,0.2,0.2V123.6z M103.2,114.9c0,0.1-0.1,0.2-0.2,0.2h-3.4c-0.1,0-0.2-0.1-0.2-0.2v-3.8c0-0.1,0.1-0.2,0.2-0.2h3.4
			c0.1,0,0.2,0.1,0.2,0.2V114.9z M103.2,106.1c0,0.1-0.1,0.2-0.2,0.2h-3.4c-0.1,0-0.2-0.1-0.2-0.2v-3.8c0-0.1,0.1-0.2,0.2-0.2h3.4
			c0.1,0,0.2,0.1,0.2,0.2V106.1z M103.2,97.4c0,0.1-0.1,0.2-0.2,0.2h-3.4c-0.1,0-0.2-0.1-0.2-0.2v-3.8c0-0.1,0.1-0.2,0.2-0.2h3.4
			c0.1,0,0.2,0.1,0.2,0.2V97.4z"/>
		<path class="st0" d="M141.2,120.6c0,0.2-0.1,0.3-0.3,0.3h-15.3c-0.2,0-0.3-0.1-0.3-0.3v-3.1c0-0.2,0.1-0.3,0.3-0.3h15.3
			c0.2,0,0.3,0.1,0.3,0.3V120.6z"/>
		<path class="st0" d="M123.4,96.1c0-0.2-0.2-0.3-0.4-0.3c-0.1,0-0.2,0-0.2,0.1c0,0,0,0,0,0l-0.1,0.2L108,114.6l-0.1,0.1
			c-0.1,0.1-0.1,0.2-0.1,0.3v0v22.8c0,0.2,0.2,0.4,0.4,0.4h14.9c0.2,0,0.4-0.2,0.4-0.4V96.2C123.4,96.2,123.4,96.1,123.4,96.1z
			 M117.2,106.2l0.1-0.1c1-1.3,2.7-3.4,3.5-4.4l0.1-0.1c0.1-0.1,0.2-0.2,0.3-0.2c0.2,0,0.4,0.1,0.4,0.3v0.2v0.1v4.4
			c0,0.2-0.2,0.4-0.4,0.4c0,0,0,0,0,0s0,0,0,0h-3.5h-0.2c0,0,0,0,0,0s0,0,0,0c-0.2,0-0.4-0.2-0.4-0.4
			C117.2,106.3,117.2,106.3,117.2,106.2z M114.9,132.2c0,0.2-0.2,0.4-0.4,0.4h-4.4c-0.2,0-0.4-0.2-0.4-0.4v-2.8
			c0-0.2,0.2-0.4,0.4-0.4h4.4c0.2,0,0.4,0.2,0.4,0.4V132.2z M114.9,127.1c0,0.2-0.2,0.4-0.4,0.4h-4.4c-0.2,0-0.4-0.2-0.4-0.4v-2.8
			c0-0.2,0.2-0.4,0.4-0.4h4.4c0.2,0,0.4,0.2,0.4,0.4V127.1z M114.9,122c0,0.2-0.2,0.4-0.4,0.4h-4.4c-0.2,0-0.4-0.2-0.4-0.4v-2.8
			c0-0.2,0.2-0.4,0.4-0.4h4.4c0.2,0,0.4,0.2,0.4,0.4V122z M114.9,110.7v0.1v6c0,0.2-0.2,0.4-0.4,0.4h-4.4c-0.2,0-0.4-0.2-0.4-0.4
			v-0.7v0c0,0,0-0.1,0-0.1c0,0,0,0,0,0c0,0,0,0,0,0c0,0,0,0,0-0.1c0.6-0.8,3.1-4,4.2-5.3l0.1-0.1c0.1-0.1,0.2-0.2,0.3-0.2
			c0.2,0,0.4,0.1,0.4,0.3V110.7z M121.7,132.2c0,0.2-0.2,0.4-0.4,0.4h-4.4c-0.2,0-0.4-0.2-0.4-0.4v-2.8c0-0.2,0.2-0.4,0.4-0.4h4.4
			c0.2,0,0.4,0.2,0.4,0.4V132.2z M121.7,127.1c0,0.2-0.2,0.4-0.4,0.4h-4.4c-0.2,0-0.4-0.2-0.4-0.4v-2.8c0-0.2,0.2-0.4,0.4-0.4h4.4
			c0.2,0,0.4,0.2,0.4,0.4V127.1z M121.7,122c0,0.2-0.2,0.4-0.4,0.4h-4.4c-0.2,0-0.4-0.2-0.4-0.4v-2.8c0-0.2,0.2-0.4,0.4-0.4h4.4
			c0.2,0,0.4,0.2,0.4,0.4V122z M121.7,116.8c0,0.2-0.2,0.4-0.4,0.4h-4.4c-0.2,0-0.4-0.2-0.4-0.4V114c0-0.2,0.2-0.4,0.4-0.4h4.4
			c0.2,0,0.4,0.2,0.4,0.4V116.8z M121.7,111.7c0,0.2-0.2,0.4-0.4,0.4h-4.4c-0.2,0-0.4-0.2-0.4-0.4v-2.8c0-0.2,0.2-0.4,0.4-0.4h4.4
			c0.2,0,0.4,0.2,0.4,0.4V111.7z"/>
	</g>
	<g>
		<path class="st0" d="M82.6,61.2v-1.1h1.3v1.1c0,0.5,0.2,0.7,0.7,0.7c0.4,0,0.6-0.3,0.6-0.7v-0.3c0-0.5-0.2-0.8-0.6-1.2l-0.8-0.8
			c-0.8-0.8-1.2-1.3-1.2-2.2v-0.3c0-1,0.6-1.8,2-1.8c1.4,0,2,0.7,2,1.9v0.7h-1.3v-0.7c0-0.5-0.2-0.7-0.7-0.7c-0.4,0-0.7,0.2-0.7,0.7
			v0.2c0,0.5,0.3,0.7,0.7,1.1l0.9,0.9c0.8,0.8,1.1,1.2,1.1,2.2v0.4c0,1.1-0.6,2-2,2C83.1,63.1,82.6,62.3,82.6,61.2z"/>
		<path class="st0" d="M91.3,54.7V61c0,1.3-0.6,2.1-2,2.1c-1.5,0-2.1-0.8-2.1-2.1v-6.3h1.4v6.5c0,0.5,0.2,0.8,0.7,0.8
			c0.5,0,0.7-0.3,0.7-0.8v-6.5H91.3z"/>
		<path class="st0" d="M92,61.2v-1.1h1.3v1.1c0,0.5,0.2,0.7,0.7,0.7c0.4,0,0.6-0.3,0.6-0.7v-0.3c0-0.5-0.2-0.8-0.6-1.2l-0.8-0.8
			c-0.8-0.8-1.2-1.3-1.2-2.2v-0.3c0-1,0.6-1.8,2-1.8c1.4,0,2,0.7,2,1.9v0.7h-1.3v-0.7c0-0.5-0.2-0.7-0.7-0.7c-0.4,0-0.7,0.2-0.7,0.7
			v0.2c0,0.5,0.3,0.7,0.7,1.1l0.9,0.9c0.8,0.8,1.1,1.2,1.1,2.2v0.4c0,1.1-0.6,2-2,2C92.6,63.1,92,62.3,92,61.2z"/>
		<path class="st0" d="M96.4,54.7h3.7v1.1H99V63h-1.4v-7.2h-1.2V54.7z"/>
		<path class="st0" d="M99.9,63l1.6-8.4h1.6l1.6,8.4h-1.4l-0.3-1.5h-1.5l-0.2,1.5H99.9z M101.6,60.4h1.1l-0.6-3.4h0L101.6,60.4z"/>
		<path class="st0" d="M105.2,54.7h1.4V63h-1.4V54.7z"/>
		<path class="st0" d="M108.6,57.8V63h-1.2v-8.4h1.4l1.5,4.8v-4.8h1.2V63h-1.2L108.6,57.8z"/>
		<path class="st0" d="M111.9,63l1.6-8.4h1.6l1.6,8.4h-1.4l-0.3-1.5h-1.5l-0.2,1.5H111.9z M113.7,60.4h1.1l-0.6-3.4h0L113.7,60.4z"
			/>
		<path class="st0" d="M117.1,54.7h2c1.4,0,1.9,0.7,1.9,1.8v0.8c0,0.7-0.3,1.1-0.8,1.3c0.7,0.2,1,0.6,1,1.4v1.1
			c0,1.2-0.5,1.8-1.9,1.8h-2.2V54.7z M118.5,58.2h0.5c0.5,0,0.7-0.2,0.7-0.7v-1c0-0.5-0.2-0.7-0.7-0.7h-0.5V58.2z M118.5,59.3v2.6
			h0.6c0.5,0,0.7-0.2,0.7-0.7V60c0-0.4-0.2-0.7-0.7-0.7H118.5z"/>
		<path class="st0" d="M121.8,54.7h1.4v7.2h1.7V63h-3.1V54.7z"/>
		<path class="st0" d="M125.4,54.7h3.4v1.1h-1.9v2.4h1.4v1.1h-1.4v2.5h1.9V63h-3.4V54.7z"/>
		<path class="st0" d="M131.2,60.9v-4c0-1.3,0.6-2.3,2.1-2.3c1.6,0,2,0.9,2,2.1v1h-1.3v-1.1c0-0.5-0.2-0.8-0.7-0.8
			c-0.5,0-0.7,0.4-0.7,0.9v4.5c0,0.5,0.2,0.9,0.7,0.9c0.5,0,0.7-0.3,0.7-0.8v-1.5h1.3v1.4c0,1.2-0.5,2.1-2,2.1
			C131.8,63.1,131.2,62.2,131.2,60.9z"/>
		<path class="st0" d="M135.9,54.7h1.4V63h-1.4V54.7z"/>
		<path class="st0" d="M137.8,54.7h3.7v1.1h-1.2V63H139v-7.2h-1.2V54.7z"/>
		<path class="st0" d="M142.1,54.7h1.4V63h-1.4V54.7z"/>
		<path class="st0" d="M144.2,54.7h3.4v1.1h-1.9v2.4h1.4v1.1h-1.4v2.5h1.9V63h-3.4V54.7z"/>
		<path class="st0" d="M148,61.2v-1.1h1.3v1.1c0,0.5,0.2,0.7,0.7,0.7c0.4,0,0.6-0.3,0.6-0.7v-0.3c0-0.5-0.2-0.8-0.6-1.2l-0.8-0.8
			c-0.8-0.8-1.2-1.3-1.2-2.2v-0.3c0-1,0.6-1.8,2-1.8c1.4,0,2,0.7,2,1.9v0.7h-1.3v-0.7c0-0.5-0.2-0.7-0.7-0.7c-0.4,0-0.7,0.2-0.7,0.7
			v0.2c0,0.5,0.3,0.7,0.7,1.1l0.9,0.9c0.8,0.8,1.1,1.2,1.1,2.2v0.4c0,1.1-0.6,2-2,2C148.5,63.1,148,62.3,148,61.2z"/>
	</g>
	<g>
		<path class="st0" d="M82.6,75.3l1.6-8.4h1.6l1.6,8.4h-1.4l-0.3-1.5h-1.5l-0.2,1.5H82.6z M84.4,72.7h1.1l-0.6-3.4h0L84.4,72.7z"/>
		<path class="st0" d="M89.3,70.1v5.2h-1.2V67h1.4l1.5,4.8V67h1.2v8.4h-1.2L89.3,70.1z"/>
		<path class="st0" d="M97.3,69.2v3.9c0,1.3-0.5,2.2-2,2.2h-2.2V67h2.2C96.8,67,97.3,67.9,97.3,69.2z M95.1,74.2
			c0.6,0,0.8-0.3,0.8-0.8v-4.4c0-0.5-0.2-0.8-0.8-0.8h-0.6v6.1H95.1z"/>
		<path class="st0" d="M99.6,73.2v-4c0-1.3,0.6-2.3,2.1-2.3c1.6,0,2,0.9,2,2.1v1h-1.3v-1.1c0-0.5-0.2-0.8-0.7-0.8
			c-0.5,0-0.7,0.4-0.7,0.9v4.5c0,0.5,0.2,0.9,0.7,0.9c0.5,0,0.7-0.3,0.7-0.8v-1.5h1.3v1.4c0,1.2-0.5,2.1-2,2.1
			C100.2,75.4,99.6,74.4,99.6,73.2z"/>
		<path class="st0" d="M104.6,73.2v-4c0-1.3,0.6-2.3,2.1-2.3c1.5,0,2.1,0.9,2.1,2.3v4c0,1.3-0.6,2.3-2.1,2.3
			C105.2,75.4,104.6,74.4,104.6,73.2z M107.4,73.4v-4.5c0-0.5-0.2-0.9-0.7-0.9c-0.5,0-0.7,0.4-0.7,0.9v4.5c0,0.5,0.2,0.9,0.7,0.9
			C107.2,74.2,107.4,73.9,107.4,73.4z"/>
		<path class="st0" d="M113.6,69.9L113.6,69.9l-1,5.4H112l-1-5.4h0v5.4h-1.2V67h1.6l0.9,4.7h0l0.8-4.7h1.8v8.4h-1.3V69.9z"/>
		<path class="st0" d="M119.7,69.9L119.7,69.9l-1,5.4h-0.7l-1-5.4h0v5.4h-1.2V67h1.6l0.9,4.7h0l0.8-4.7h1.8v8.4h-1.3V69.9z"/>
		<path class="st0" d="M126,67v6.3c0,1.3-0.6,2.1-2,2.1c-1.5,0-2.1-0.8-2.1-2.1V67h1.4v6.5c0,0.5,0.2,0.8,0.7,0.8
			c0.5,0,0.7-0.3,0.7-0.8V67H126z"/>
		<path class="st0" d="M128.1,70.1v5.2h-1.2V67h1.4l1.5,4.8V67h1.2v8.4h-1.2L128.1,70.1z"/>
		<path class="st0" d="M131.9,67h1.4v8.4h-1.4V67z"/>
		<path class="st0" d="M134.1,67h3.7v1.1h-1.2v7.2h-1.4v-7.2h-1.2V67z"/>
		<path class="st0" d="M138.6,67h1.4v8.4h-1.4V67z"/>
		<path class="st0" d="M140.9,67h3.4v1.1h-1.9v2.4h1.4v1.1h-1.4v2.5h1.9v1.1h-3.4V67z"/>
		<path class="st0" d="M145,73.5v-1.1h1.3v1.1c0,0.5,0.2,0.7,0.7,0.7c0.4,0,0.6-0.3,0.6-0.7v-0.3c0-0.5-0.2-0.8-0.6-1.2l-0.8-0.8
			c-0.8-0.8-1.2-1.3-1.2-2.2v-0.3c0-1,0.6-1.8,2-1.8c1.4,0,2,0.7,2,1.9v0.7h-1.3v-0.7c0-0.5-0.2-0.7-0.7-0.7c-0.4,0-0.7,0.2-0.7,0.7
			v0.2c0,0.5,0.3,0.7,0.7,1.1l0.9,0.9c0.8,0.8,1.1,1.2,1.1,2.2v0.4c0,1.1-0.6,2-2,2C145.6,75.4,145,74.6,145,73.5z"/>
	</g>
</g>
</svg>
