<?xml version="1.0" encoding="utf-8"?>
<!-- Generator: Adobe Illustrator 24.2.0, SVG Export Plug-In . SVG Version: 6.00 Build 0)  -->
<svg version="1.1" id="Ebene_1" xmlns="http://www.w3.org/2000/svg" xmlns:xlink="http://www.w3.org/1999/xlink" x="0px" y="0px"
	 viewBox="0 0 214 192.9" style="enable-background:new 0 0 214 192.9;" xml:space="preserve">
<style type="text/css">
	.st0{fill:#FFFFFF;}
</style>
<g>
	<polygon class="st0" points="64.6,61 64.6,61 64.6,77.5 68.2,77.5 68.2,56 65.3,56 62,59.9 62,63.7 62,63.7 	"/>
	<path class="st0" d="M70.3,60.5V63h3.3v-2.7c0-1.3,0.7-1.7,1.4-1.7c0.7,0,1.3,0.3,1.3,1.6V62c0,1.8-0.1,2.4-1.3,3.7L73,67.9
		c-2,2.1-2.7,3.5-2.7,5.6v4h9.3v-3h-5.9v-1c0-1.7,0.6-2.3,1.5-3.3l2.3-2.4c1.9-2,2.3-3.2,2.3-5.4v-2.1c0-3-1.5-4.5-4.7-4.5
		C72,55.8,70.3,57.5,70.3,60.5"/>
	<path class="st0" d="M136.3,104.1c-4.4-3.4-9.5-3.8-11.6-3.8c-0.9,0-1.9,0.1-2.8,0.3l-0.3,0.1c-2.8,0.7-7.3,1.7-12.7,8.4l-0.1,0.2
		c-0.1,0.1-0.1,0.3-0.1,0.4c0,0.1,0.1,0.3,0.1,0.3l0.1,0.2c0.9,1.5,1.6,2.8,2.2,3.8c0.2,0.3,0.6,0.5,0.9,0.3
		c0.1-0.1,0.1-0.1,0.2-0.1c0.1-0.1,0.1-0.1,0.1-0.1c4.6-6.4,8.3-7.3,10.7-7.8l0.3-0.1c0.5-0.1,0.9-0.1,1.5-0.1c1.1,0,5,0.2,8,2.6
		c2.7,2.1,4,5.5,4,10.1c0,7.7-3.7,10.7-6.8,11.8c-1.2,0.5-2.5,0.7-3.8,0.7c-2,0-3.9-0.5-5.7-1.3l-0.2-0.1
		c-2.6-1.2-6.7-3.6-10.5-11.2c-7.7-15.6-14.2-17-18.5-18l-0.2-0.1c-0.9-0.2-1.9-0.3-2.8-0.3c-4.1-0.1-8.1,1.3-11.4,3.8
		c-2.8,2.3-6.2,6.6-6.2,14.6c0,4.9,1,8.1,3.6,11.5c3.3,4.1,8.3,6.5,13.6,6.5c1.3,0,2.6-0.1,3.9-0.4c2.4-0.5,4.7-1.6,6.7-3l2.3,2.1
		c0.3,0.3,0.7,0.2,0.9-0.1c0.1-0.1,0.2-0.3,0.2-0.4l1.8-10.8v-0.1c0-0.4-0.3-0.7-0.7-0.7l0,0l-10.5,2.9h-0.2c-0.1,0-0.3,0.1-0.3,0.2
		c-0.1,0.1-0.2,0.3-0.2,0.5c0,0.2,0.1,0.3,0.2,0.5l2.2,2c-1.1,0.7-2.2,1.1-3.4,1.4c-0.9,0.2-1.9,0.3-2.8,0.3c-3.4,0.1-6.8-1.4-9-4
		l-0.1-0.1c-1.8-2.4-2.4-4.4-2.4-8c0-4.6,1.3-8,4-10.1c2.9-2.3,6.7-2.4,7.8-2.4c0.5,0,1,0.1,1.5,0.1l0.2,0.1
		c3.4,0.7,8.1,1.8,14.7,15c3.4,6.9,7.7,11.4,13.2,13.8c2.6,1.3,5.4,1.9,8.3,1.9c2,0,4-0.3,5.8-1.1c3.2-1.2,10.6-5.2,10.6-17.2
		C142.6,110.7,139.2,106.4,136.3,104.1z"/>
	<path class="st0" d="M89.4,60.7v4h-1.5V56h2.1c1.5,0,2,0.7,2,1.9v1.1c0,0.9-0.3,1.5-1.2,1.7l1.4,4h-1.5L89.4,60.7z M89.4,57.2v2.7
		h0.5c0.3,0.1,0.7-0.3,0.7-0.6c0-0.1,0-0.1,0-0.1v-1.3c0-0.5-0.2-0.7-0.7-0.7C89.9,57.2,89.4,57.2,89.4,57.2z"/>
	<path class="st0" d="M92.8,56h3.5v1.2h-2.1v2.4h1.5v1.2h-1.5v2.6h2.1v1.2h-3.5V56z"/>
	<path class="st0" d="M97.1,62.8v-1.2h1.3v1.2c0,0.5,0.2,0.8,0.7,0.8s0.7-0.3,0.7-0.8v-0.3c0-0.5-0.3-0.9-0.7-1.3l-0.9-0.9
		c-0.9-0.8-1.2-1.3-1.2-2.3v-0.3c0-1.1,0.7-1.9,2.1-1.9c1.4,0,2.1,0.7,2.1,2v0.7h-1.3v-0.7c0-0.5-0.3-0.7-0.7-0.7
		c-0.3-0.1-0.7,0.1-0.8,0.5c0,0.1,0,0.1,0,0.2v0.2c0,0.5,0.3,0.8,0.7,1.2l0.9,0.9c0.8,0.8,1.2,1.3,1.2,2.3v0.4
		c0,1.2-0.7,2.1-2.1,2.1S97.1,64,97.1,62.8z"/>
	<path class="st0" d="M102,56h2.2c1.5,0,2,0.7,2,1.9v1.8c0,1.2-0.5,2-2,2h-0.7v3H102C102,64.7,102,56,102,56z M103.4,57.2v3.4h0.5
		c0.3,0.1,0.7-0.3,0.7-0.6c0-0.1,0-0.1,0-0.1v-2c0-0.5-0.2-0.7-0.7-0.7H103.4z"/>
	<path class="st0" d="M106.9,62.4v-4.2c0-1.4,0.7-2.3,2.2-2.3c1.5,0,2.3,1,2.3,2.3v4.2c0,1.3-0.7,2.3-2.3,2.3S106.9,63.8,106.9,62.4
		z M109.8,62.7V58c0-0.5-0.2-0.9-0.8-0.9c-0.6,0-0.7,0.4-0.7,0.9v4.7c0,0.5,0.2,0.9,0.7,0.9S109.8,63.2,109.8,62.7z"/>
	<path class="st0" d="M113.4,59.2v5.5h-1.3V56h1.5l1.6,5v-5h1.2v8.7H115L113.4,59.2z"/>
	<path class="st0" d="M117.1,62.8v-1.2h1.3v1.2c0,0.5,0.2,0.8,0.7,0.8c0.5,0,0.7-0.3,0.7-0.8v-0.3c0-0.5-0.3-0.9-0.7-1.3l-0.8-0.9
		c-0.9-0.8-1.2-1.3-1.2-2.3v-0.3c0-1.1,0.7-1.9,2.1-1.9c1.4,0,2.1,0.7,2.1,2v0.7H120v-0.7c0-0.5-0.2-0.7-0.7-0.7
		c-0.4,0-0.7,0.3-0.7,0.7v0.1V58c0,0.5,0.3,0.8,0.7,1.2l0.9,0.9c0.8,0.8,1.2,1.3,1.2,2.3v0.4c0,1.2-0.7,2.1-2.1,2.1
		S117.1,64,117.1,62.8z"/>
	<path class="st0" d="M122.1,56h1.5v8.7h-1.5V56z"/>
	<path class="st0" d="M124.3,56h2.1c1.5,0,2,0.7,2,1.9v0.9c0.1,0.6-0.3,1.2-0.9,1.4c0.7,0.1,1.2,0.7,1.1,1.5v1.1
		c0,1.3-0.5,1.9-2,1.9h-2.3L124.3,56L124.3,56z M125.8,59.7h0.5c0.3,0.1,0.7-0.2,0.7-0.5c0-0.1,0-0.1,0-0.1v-1.1
		c0-0.5-0.2-0.7-0.7-0.7h-0.5L125.8,59.7z M125.8,60.8v2.7h0.7c0.3,0.1,0.7-0.3,0.7-0.6c0-0.1,0-0.1,0-0.1v-1.3
		c0-0.5-0.2-0.7-0.7-0.7L125.8,60.8z"/>
	<path class="st0" d="M129.4,56h1.5v7.5h1.7v1.2h-3.2L129.4,56z"/>
	<path class="st0" d="M133.2,56h3.5v1.2h-2.1v2.4h1.5v1.2h-1.5v2.6h2.1v1.2h-3.5V56z"/>
	<path class="st0" d="M87.9,75.2V71c0-1.3,0.7-2.3,2.2-2.3s2.1,0.9,2.1,2.2v1h-1.3v-1.1c0-0.5-0.2-0.9-0.7-0.9s-0.7,0.4-0.7,0.9v4.7
		c0,0.5,0.2,0.9,0.7,0.9s0.7-0.3,0.7-0.9V74h1.3v1.5c0,1.3-0.5,2.2-2.1,2.2S87.9,76.6,87.9,75.2z"/>
	<path class="st0" d="M93.1,75.2V71c0-1.3,0.7-2.3,2.2-2.3c1.5,0,2.3,1,2.3,2.3v4.2c0,1.3-0.7,2.4-2.3,2.4S93.1,76.6,93.1,75.2z
		 M96.1,75.5v-4.7c0-0.5-0.2-0.9-0.7-0.9s-0.7,0.4-0.7,0.9v4.7c0,0.5,0.2,0.9,0.7,0.9S96,76,96.1,75.5L96.1,75.5z"/>
	<path class="st0" d="M99.7,72v5.5h-1.3v-8.7h1.5l1.6,5v-5h1.2v8.7h-1.3L99.7,72z"/>
	<path class="st0" d="M103.6,75.6v-1.2h1.4v1.2c0,0.5,0.2,0.8,0.7,0.8s0.7-0.3,0.7-0.8v-0.3c0-0.5-0.3-0.9-0.7-1.3l-0.9-0.9
		c-0.9-0.8-1.2-1.3-1.2-2.3v-0.3c0-1.1,0.7-1.9,2.1-1.9c1.4,0,2.1,0.7,2.1,2v0.7h-1.3v-0.8c0-0.5-0.2-0.7-0.7-0.7
		c-0.4,0-0.7,0.3-0.7,0.7v0.1v0.2c0,0.5,0.3,0.8,0.7,1.2l0.9,0.9c0.8,0.8,1.2,1.3,1.2,2.3v0.5c0,1.2-0.7,2.1-2.1,2.1
		S103.6,76.7,103.6,75.6z"/>
	<path class="st0" d="M113,68.8v6.6c0,1.3-0.6,2.3-2.1,2.3s-2.2-0.9-2.2-2.3v-6.6h1.5v6.7c0,0.5,0.2,0.9,0.7,0.9
		c0.5,0,0.7-0.3,0.7-0.9v-6.8H113z"/>
	<path class="st0" d="M117.9,71.8L117.9,71.8l-1.1,5.6h-0.7l-1.1-5.6l0,0v5.6h-1.3v-8.7h1.7l1,4.9l0,0l0.9-4.9h1.9v8.7h-1.3
		L117.9,71.8L117.9,71.8z"/>
	<path class="st0" d="M120.2,68.8h2.2c1.5,0,2,0.7,2,2v1.9c0,1.2-0.5,2-2,2h-0.7v2.9h-1.5V68.8z M121.7,70v3.4h0.5
		c0.3,0.1,0.7-0.3,0.7-0.6c0-0.1,0-0.1,0-0.1v-2c0-0.5-0.2-0.7-0.7-0.7H121.7z"/>
	<path class="st0" d="M124.9,68.8h3.9V70h-1.2v7.5h-1.5V70h-1.3V68.8z"/>
	<path class="st0" d="M129.5,68.8h1.5v8.7h-1.5V68.8z"/>
	<path class="st0" d="M131.8,75.2V71c0-1.3,0.7-2.3,2.2-2.3s2.3,1,2.3,2.3v4.2c0,1.3-0.7,2.4-2.3,2.4
		C132.4,77.6,131.8,76.6,131.8,75.2z M134.7,75.5v-4.7c0-0.5-0.2-0.9-0.7-0.9c-0.5,0-0.7,0.4-0.7,0.9v4.7c0,0.5,0.2,0.9,0.7,0.9
		C134.5,76.4,134.8,76,134.7,75.5L134.7,75.5z"/>
	<path class="st0" d="M138.3,72v5.5H137v-8.7h1.5l1.6,5v-5h1.2v8.7H140L138.3,72z"/>
	<path class="st0" d="M87.7,90.2l1.7-8.7H91l1.7,8.7h-1.5l-0.3-1.6h-1.6L89,90.2H87.7z M89.5,87.5h1.2L90.1,84l0,0L89.5,87.5z"/>
	<path class="st0" d="M94.5,84.8v5.5h-1.3v-8.7h1.5l1.6,5v-5h1.2v8.7h-1.3L94.5,84.8z"/>
	<path class="st0" d="M102.8,83.9v4c0,1.3-0.5,2.3-2.1,2.3h-2.3v-8.7h2.3C102.2,81.6,102.8,82.6,102.8,83.9z M100.4,89
		c0.6,0,0.9-0.3,0.9-0.9v-4.6c0.1-0.4-0.2-0.8-0.7-0.9c-0.1,0-0.1,0-0.2,0h-0.6V89C99.9,89,100.4,89,100.4,89z"/>
	<path class="st0" d="M105,81.6h2.2c1.5,0,2,0.7,2,2v1.9c0,1.2-0.5,2-2,2h-0.7v3H105V81.6z M106.5,82.8v3.4h0.5
		c0.3,0.1,0.7-0.3,0.7-0.6c0-0.1,0-0.1,0-0.1v-2c0-0.5-0.2-0.7-0.7-0.7H106.5z"/>
	<path class="st0" d="M111.5,86.3v4H110v-8.7h2.1c1.5,0,2,0.7,2,2v1.1c0,0.9-0.3,1.5-1.2,1.7l1.4,4h-1.5L111.5,86.3z M111.5,82.8
		v2.7h0.5c0.3,0.1,0.7-0.3,0.7-0.6c0-0.1,0-0.1,0-0.1v-1.3c0-0.5-0.2-0.7-0.7-0.7H111.5z"/>
	<path class="st0" d="M115,88v-4.2c0-1.4,0.7-2.4,2.2-2.4s2.3,1,2.3,2.4V88c0,1.3-0.7,2.3-2.3,2.3S115,89.4,115,88z M118,88.2v-4.7
		c0-0.5-0.2-0.9-0.8-0.9s-0.7,0.4-0.7,0.9v4.7c0,0.5,0.2,0.9,0.7,0.9S118,88.8,118,88.2z"/>
	<path class="st0" d="M124.7,83.9v4c0,1.3-0.5,2.3-2.1,2.3h-2.3v-8.7h2.3C124.1,81.6,124.7,82.6,124.7,83.9z M122.4,89
		c0.6,0,0.9-0.3,0.9-0.9v-4.6c0.1-0.4-0.2-0.8-0.7-0.9c-0.1,0-0.1,0-0.2,0h-0.6V89C121.8,89,122.4,89,122.4,89z"/>
	<path class="st0" d="M129.8,81.6v6.6c0,1.3-0.6,2.3-2.1,2.3c-1.5,0-2.2-0.9-2.2-2.3v-6.6h1.5v6.8c0,0.5,0.2,0.9,0.7,0.9
		c0.5,0,0.7-0.3,0.7-0.9v-6.8H129.8z"/>
	<path class="st0" d="M130.7,88v-4.2c0-1.4,0.7-2.4,2.2-2.4s2.1,0.9,2.1,2.2v1.1h-1.3v-1.1c0-0.5-0.2-0.9-0.7-0.9
		c-0.5,0-0.8,0.4-0.8,0.9v4.7c0,0.5,0.2,0.9,0.7,0.9c0.5,0,0.7-0.3,0.7-0.9v-1.6h1.3v1.5c0,1.3-0.5,2.2-2.1,2.2
		C131.3,90.4,130.7,89.4,130.7,88z"/>
	<path class="st0" d="M135.6,81.6h3.9v1.2h-1.2v7.5h-1.5v-7.5h-1.2V81.6z"/>
	<path class="st0" d="M140.2,81.6h1.5v8.7h-1.5V81.6z"/>
	<path class="st0" d="M142.5,88v-4.2c0-1.4,0.7-2.4,2.2-2.4s2.3,1,2.3,2.4V88c0,1.3-0.7,2.3-2.3,2.3C143.1,90.4,142.5,89.4,142.5,88
		z M145.4,88.2v-4.7c0-0.5-0.2-0.9-0.7-0.9c-0.5,0-0.7,0.4-0.7,0.9v4.7c0,0.5,0.2,0.9,0.7,0.9C145.3,89.1,145.4,88.8,145.4,88.2z"/>
	<path class="st0" d="M149,84.8v5.5h-1.3v-8.7h1.5l1.6,5v-5h1.2v8.7h-1.3L149,84.8z"/>
</g>
</svg>
