<?xml version="1.0" encoding="utf-8"?>
<!-- Generator: Adobe Illustrator 24.1.2, SVG Export Plug-In . SVG Version: 6.00 Build 0)  -->
<svg version="1.1" id="Ebene_1" xmlns="http://www.w3.org/2000/svg" xmlns:xlink="http://www.w3.org/1999/xlink" x="0px" y="0px"
	 viewBox="0 0 214 192.9" style="enable-background:new 0 0 214 192.9;" xml:space="preserve">
<style type="text/css">
	.st0{fill:#FFFFFF;}
</style>
<polygon class="st0" points="42.9,43.1 42.9,43.1 42.9,68 48.4,68 48.4,35.5 44,35.5 39,41.4 39,47.1 39,47.1 "/>
<path class="st0" d="M51.6,42.2v3.9h5v-4.1c0-2,1-2.5,2.1-2.5c1.1,0,2,0.4,2,2.4v2.7c0,2.7-0.2,3.7-2,5.6l-3.1,3.3
	c-3,3.2-4.1,5.3-4.1,8.5v6h14.1v-4.5h-8.9V62c0-2.5,0.9-3.5,2.3-5l3.5-3.7c2.8-3,3.5-4.9,3.5-8.2V42c0-4.6-2.3-6.8-7.1-6.8
	S51.6,37.7,51.6,42.2"/>
<path class="st0" d="M151.3,108.2c-6.6-5.2-14.4-5.7-17.5-5.7c-1.4,0-2.8,0.1-4.2,0.4l-0.4,0.1c-4.2,1-11.1,2.6-19.2,12.7l-0.2,0.3
	c-0.1,0.2-0.2,0.4-0.2,0.6c0,0.2,0.1,0.4,0.2,0.5l0.2,0.3c1.3,2.2,2.4,4.2,3.3,5.8c0.3,0.5,0.9,0.7,1.4,0.5c0.1-0.1,0.2-0.1,0.3-0.2
	c0.1-0.1,0.1-0.1,0.2-0.2c7-9.7,12.5-11,16.1-11.8l0.4-0.1c0.7-0.1,1.4-0.2,2.2-0.2c1.7,0,7.6,0.3,12.1,3.9
	c4.1,3.2,6.1,8.3,6.1,15.3c0,11.6-5.6,16.1-10.3,17.8c-1.8,0.7-3.8,1-5.8,1c-3,0-5.9-0.7-8.6-2l-0.3-0.2c-4-1.8-10.1-5.4-15.8-16.9
	c-11.7-23.5-21.5-25.7-28-27.2l-0.3-0.1c-1.4-0.3-2.8-0.4-4.2-0.4c-6.2-0.1-12.3,1.9-17.3,5.7c-4.2,3.4-9.3,10-9.3,22
	c0,7.4,1.5,12.2,5.4,17.4c5,6.2,12.5,9.8,20.5,9.8c2,0,4-0.2,5.9-0.6c3.7-0.8,7.1-2.4,10.1-4.6l3.4,3.1c0.4,0.4,1,0.3,1.4-0.1
	c0.2-0.2,0.3-0.4,0.3-0.6l2.7-16.3V138c0-0.6-0.4-1-1-1l0,0l-15.9,4.4h-0.3c-0.2,0-0.4,0.1-0.5,0.3c-0.2,0.2-0.3,0.5-0.3,0.7
	c0,0.3,0.1,0.5,0.3,0.7l3.3,3c-1.6,1-3.3,1.7-5.1,2.1c-1.4,0.3-2.8,0.4-4.2,0.4c-5.2,0.1-10.2-2.1-13.6-6.1l-0.1-0.1
	c-2.7-3.6-3.7-6.6-3.7-12.1c0-6.9,2-12.1,6-15.3c4.4-3.5,10.1-3.7,11.8-3.7c0.8,0,1.5,0.1,2.3,0.2l0.3,0.1
	c5.2,1.1,12.3,2.7,22.2,22.6c5.2,10.5,11.7,17.3,20,20.9c3.9,1.9,8.2,2.9,12.6,2.9c3,0,6-0.5,8.8-1.6c4.8-1.8,16-7.9,16-26
	C160.8,118.1,155.6,111.6,151.3,108.2z"/>
<path class="st0" d="M80.4,42.6v6h-2.2V35.5h3.2c2.2,0,3,1.1,3,2.9v1.7c0,1.4-0.5,2.3-1.8,2.5l2.1,6h-2.3L80.4,42.6z M80.4,37.3v4.1
	h0.7c0.5,0.1,1-0.4,1.1-0.9c0-0.1,0-0.1,0-0.2v-1.9c0-0.7-0.3-1.1-1.1-1.1H80.4z"/>
<path class="st0" d="M85.6,35.5h5.3v1.8h-3.1V41H90v1.8h-2.2v4h3.1v1.8h-5.3V35.5z"/>
<path class="st0" d="M92,45.8V44h2v1.8c0,0.7,0.3,1.2,1.1,1.2c0.8,0,1-0.5,1-1.2v-0.5c0-0.7-0.4-1.4-1-1.9l-1.3-1.3
	c-1.3-1.2-1.8-2-1.8-3.5v-0.5c0-1.6,1-2.9,3.1-2.9s3.1,1.1,3.1,3v1h-2v-1.1c0-0.8-0.4-1.1-1-1.1c-0.5-0.1-1.1,0.2-1.2,0.8
	c0,0.1,0,0.2,0,0.3v0.3c0,0.7,0.4,1.2,1.1,1.8l1.4,1.4c1.2,1.2,1.8,2,1.8,3.4v0.6c0,1.8-1,3.1-3.2,3.1S92,47.5,92,45.8z"/>
<path class="st0" d="M99.4,35.5h3.3c2.2,0,3,1.1,3,2.9v2.7c0,1.8-0.8,3-3,3h-1.1v4.5h-2.2V35.5z M101.6,37.3v5.2h0.8
	c0.5,0.1,1-0.4,1.1-0.9c0-0.1,0-0.1,0-0.2v-3c0-0.7-0.3-1.1-1.1-1.1L101.6,37.3z"/>
<path class="st0" d="M106.8,45.2v-6.4c0-2.1,1-3.5,3.3-3.5s3.4,1.5,3.4,3.5v6.4c0,2-1,3.5-3.4,3.5S106.8,47.3,106.8,45.2z
	 M111.3,45.6v-7.1c0-0.8-0.3-1.4-1.2-1.4s-1.1,0.6-1.1,1.4v7.1c0,0.8,0.3,1.4,1.1,1.4S111.3,46.4,111.3,45.6z"/>
<path class="st0" d="M116.6,40.3v8.3h-1.9V35.5h2.2l2.4,7.5v-7.5h1.8v13.1h-2L116.6,40.3z"/>
<path class="st0" d="M122.3,45.8V44h2v1.8c0,0.7,0.3,1.2,1.1,1.2s1-0.5,1-1.2v-0.5c0-0.7-0.4-1.4-1-1.9l-1.2-1.3
	c-1.3-1.2-1.8-2-1.8-3.5v-0.4c0-1.6,1-2.9,3.1-2.9s3.1,1.1,3.1,3v1h-2v-1.1c0-0.8-0.3-1.1-1-1.1c-0.6,0-1,0.4-1,1c0,0,0,0.1,0,0.1
	v0.3c0,0.7,0.4,1.2,1,1.8l1.4,1.4c1.2,1.2,1.8,2,1.8,3.4v0.6c0,1.8-1,3.1-3.2,3.1S122.3,47.5,122.3,45.8z"/>
<path class="st0" d="M129.8,35.5h2.2v13.1h-2.2V35.5z"/>
<path class="st0" d="M133.2,35.5h3.2c2.2,0,3,1,3,2.9v1.3c0.1,0.9-0.4,1.8-1.3,2.1c1,0.2,1.8,1.1,1.7,2.2v1.7c0,1.9-0.8,2.9-3,2.9
	h-3.5V35.5z M135.4,41h0.8c0.5,0.1,1-0.3,1-0.8c0-0.1,0-0.2,0-0.2v-1.6c0-0.7-0.3-1.1-1.1-1.1h-0.8L135.4,41z M135.4,42.7v4.1h1
	c0.5,0.1,1-0.4,1.1-0.9c0-0.1,0-0.1,0-0.2v-2c0-0.7-0.3-1.1-1.1-1.1L135.4,42.7z"/>
<path class="st0" d="M140.8,35.5h2.2v11.3h2.6v1.8h-4.9L140.8,35.5z"/>
<path class="st0" d="M146.6,35.5h5.3v1.8h-3.1V41h2.2v1.8h-2.2v4h3.1v1.8h-5.3V35.5z"/>
<path class="st0" d="M78.2,64.5v-6.4c0-2,1-3.5,3.3-3.5s3.1,1.4,3.1,3.3v1.5h-2v-1.7c0-0.8-0.3-1.3-1.1-1.3c-0.8,0-1.1,0.6-1.1,1.4
	v7.1c0,0.8,0.3,1.4,1.1,1.4c0.8,0,1.1-0.5,1.1-1.3v-2.4h2v2.3c0,1.9-0.8,3.3-3.1,3.3S78.2,66.6,78.2,64.5z"/>
<path class="st0" d="M86,64.5v-6.4c0-2,1-3.5,3.3-3.5c2.3,0,3.4,1.5,3.4,3.5v6.4c0,2-1,3.6-3.4,3.6S86,66.6,86,64.5z M90.5,64.9
	v-7.1c0-0.8-0.3-1.4-1.1-1.4c-0.8,0-1.1,0.6-1.1,1.4v7.1c0,0.8,0.3,1.4,1.1,1.4S90.4,65.7,90.5,64.9L90.5,64.9z"/>
<path class="st0" d="M96,59.7v8.3h-1.9V54.8h2.2l2.4,7.5v-7.5h1.8v13.1h-1.9L96,59.7z"/>
<path class="st0" d="M101.9,65.1v-1.8h2.1v1.8c0,0.7,0.3,1.2,1.1,1.2s1-0.5,1-1.2v-0.5c0-0.7-0.4-1.4-1-1.9l-1.3-1.3
	c-1.3-1.2-1.8-2-1.8-3.5v-0.5c0-1.6,1-2.9,3.1-2.9s3.1,1.1,3.1,3v1.1h-2v-1.2c0-0.8-0.3-1.1-1-1.1c-0.6,0-1,0.4-1,1c0,0,0,0.1,0,0.1
	v0.3c0,0.7,0.4,1.2,1,1.8l1.4,1.4c1.2,1.2,1.8,2,1.8,3.4V65c0,1.8-1,3.1-3.2,3.1S101.9,66.8,101.9,65.1z"/>
<path class="st0" d="M116,54.8v10c0,2-0.9,3.4-3.1,3.4s-3.3-1.3-3.3-3.4v-10h2.2v10.2c0,0.8,0.3,1.3,1.1,1.3s1.1-0.5,1.1-1.3V54.8
	H116z"/>
<path class="st0" d="M123.5,59.4L123.5,59.4l-1.6,8.5h-1l-1.7-8.5l0,0v8.5h-1.9V54.8h2.5l1.5,7.4l0,0l1.3-7.4h2.8v13.2h-2V59.4z"/>
<path class="st0" d="M127,54.8h3.3c2.2,0,3,1.1,3,3v2.8c0,1.8-0.8,3-3,3h-1.1V68H127V54.8z M129.2,56.6v5.2h0.8
	c0.5,0.1,1-0.4,1.1-0.9c0-0.1,0-0.1,0-0.2v-3c0-0.7-0.3-1.1-1.1-1.1L129.2,56.6z"/>
<path class="st0" d="M134,54.8h5.9v1.8h-1.8v11.3h-2.2V56.6H134V54.8z"/>
<path class="st0" d="M141,54.8h2.2v13.1H141V54.8z"/>
<path class="st0" d="M144.5,64.5v-6.4c0-2,1-3.5,3.3-3.5s3.4,1.5,3.4,3.5v6.4c0,2-1,3.6-3.4,3.6C145.4,68.1,144.5,66.6,144.5,64.5z
	 M148.9,64.9v-7.1c0-0.8-0.3-1.4-1.1-1.4s-1.1,0.6-1.1,1.4v7.1c0,0.8,0.3,1.4,1.1,1.4S149,65.7,148.9,64.9L148.9,64.9z"/>
<path class="st0" d="M154.3,59.7v8.3h-1.9V54.8h2.2l2.4,7.5v-7.5h1.8v13.1h-1.9L154.3,59.7z"/>
<path class="st0" d="M77.8,87.2l2.5-13.2h2.5l2.5,13.2H83l-0.4-2.4h-2.4l-0.4,2.4H77.8z M80.6,83.1h1.8l-0.9-5.3l0,0L80.6,83.1z"/>
<path class="st0" d="M88.1,79v8.3h-1.9V74.1h2.2l2.4,7.5v-7.5h1.8v13.2h-1.9L88.1,79z"/>
<path class="st0" d="M100.6,77.6v6.1c0,2-0.8,3.5-3.2,3.5H94V74.1h3.4C99.8,74.1,100.6,75.6,100.6,77.6z M97.1,85.4
	c0.9,0,1.3-0.5,1.3-1.3v-6.9c0.1-0.6-0.3-1.2-1-1.3c-0.1,0-0.2,0-0.3,0h-0.9v9.5H97.1z"/>
<path class="st0" d="M104,74.1h3.3c2.2,0,3,1.1,3,3v2.8c0,1.8-0.8,3-3,3h-1.1v4.5H104V74.1z M106.3,75.9v5.2h0.8
	c0.5,0.1,1-0.4,1.1-0.9c0-0.1,0-0.1,0-0.2v-3c0-0.7-0.3-1.1-1.1-1.1L106.3,75.9z"/>
<path class="st0" d="M113.8,81.2v6h-2.2V74.1h3.2c2.2,0,3,1.1,3,3v1.7c0,1.4-0.5,2.3-1.8,2.5l2.1,6h-2.3L113.8,81.2z M113.8,75.9V80
	h0.7c0.5,0.1,1-0.4,1.1-0.9c0-0.1,0-0.1,0-0.2V77c0-0.7-0.3-1.1-1.1-1.1H113.8z"/>
<path class="st0" d="M119.1,83.8v-6.4c0-2.1,1-3.6,3.3-3.6s3.4,1.5,3.4,3.6v6.4c0,2-1,3.5-3.4,3.5S119.1,85.9,119.1,83.8z
	 M123.6,84.2v-7.1c0-0.8-0.3-1.4-1.2-1.4s-1.1,0.6-1.1,1.4v7.1c0,0.8,0.3,1.3,1.1,1.3S123.6,85,123.6,84.2z"/>
<path class="st0" d="M133.7,77.6v6.1c0,2-0.8,3.5-3.2,3.5h-3.4V74.1h3.4C132.9,74.1,133.7,75.6,133.7,77.6z M130.2,85.4
	c0.9,0,1.3-0.5,1.3-1.3v-6.9c0.1-0.6-0.3-1.2-1-1.3c-0.1,0-0.2,0-0.3,0h-0.9v9.5H130.2z"/>
<path class="st0" d="M141.5,74.1v10c0,2-0.9,3.4-3.1,3.4s-3.3-1.3-3.3-3.4v-10h2.2v10.2c0,0.8,0.3,1.3,1.1,1.3s1.1-0.5,1.1-1.3V74.1
	H141.5z"/>
<path class="st0" d="M142.8,83.8v-6.4c0-2.1,1-3.6,3.3-3.6c2.3,0,3.1,1.3,3.1,3.3v1.6h-2v-1.7c0-0.8-0.3-1.3-1.1-1.3
	c-0.8,0-1.2,0.6-1.2,1.4v7.1c0,0.8,0.3,1.3,1.1,1.3c0.8,0,1.1-0.5,1.1-1.3v-2.4h2v2.3c0,1.9-0.8,3.3-3.1,3.3
	C143.7,87.4,142.8,85.9,142.8,83.8z"/>
<path class="st0" d="M150.2,74.1h5.9v1.8h-1.8v11.3H152V75.9h-1.8V74.1z"/>
<path class="st0" d="M157.1,74.1h2.2v13.2h-2.2V74.1z"/>
<path class="st0" d="M160.6,83.8v-6.4c0-2.1,1-3.6,3.3-3.6s3.4,1.5,3.4,3.6v6.4c0,2-1,3.5-3.4,3.5C161.6,87.4,160.6,85.9,160.6,83.8
	z M165.1,84.2v-7.1c0-0.8-0.3-1.4-1.1-1.4c-0.8,0-1.1,0.6-1.1,1.4v7.1c0,0.8,0.3,1.3,1.1,1.3S165.1,85,165.1,84.2z"/>
<path class="st0" d="M170.5,79v8.3h-1.9V74.1h2.2l2.4,7.5v-7.5h1.8v13.2H173L170.5,79z"/>
</svg>
