<?xml version="1.0" encoding="utf-8"?>
<!-- Generator: Adobe Illustrator 24.2.0, SVG Export Plug-In . SVG Version: 6.00 Build 0)  -->
<svg version="1.1" id="Ebene_2" xmlns="http://www.w3.org/2000/svg" xmlns:xlink="http://www.w3.org/1999/xlink" x="0px" y="0px"
	 viewBox="0 0 214 192.9" style="enable-background:new 0 0 214 192.9;" xml:space="preserve">
<style type="text/css">
	.st0{fill:#FFFFFF;}
</style>
<g>
	<polygon class="st0" points="68.5,55.7 68.5,78.1 64.7,78.1 64.7,61 64.7,61 62,63.7 62,63.7 62,59.8 65.5,55.7 	"/>
	<path class="st0" d="M80.9,60.6v1.9c0,1.9-1,3.1-2.6,3.6c1.9,0.4,2.8,1.8,2.8,3.8v3.3c0,3.1-1.7,5.1-5.5,5.1
		c-3.8,0-5.2-2.2-5.2-5.6v-2.9h3.4v3.2c0,1.3,0.5,2.2,1.8,2.2c1.2,0,1.7-0.8,1.7-2v-3.7c0-1.2-0.5-1.8-1.8-1.8h-1.6v-2.9h1.4
		c1.2,0,2-0.6,2-1.8v-2.4c0-1.2-0.4-2-1.6-2c-1.2,0-1.6,0.8-1.6,2.2v2.3h-3.4v-2c0-3.3,1.4-5.6,5.3-5.6
		C79.4,55.5,80.9,57.4,80.9,60.6"/>
	<path class="st0" d="M151.7,116c-2.9-4.1-16.2-20.5-40.8-20.5c-24.6,0-37.9,16.4-40.8,20.5c-0.1,0.2-0.2,0.3-0.3,0.5
		c0.1,0.1,0.2,0.3,0.3,0.5c2.9,4.1,16.2,20.5,40.8,20.5c24.6,0,37.9-16.4,40.8-20.5c0.1-0.2,0.2-0.3,0.3-0.5
		C151.9,116.3,151.8,116.2,151.7,116 M97.1,105.9c0.2-0.3,1-1.3,1-1.4c0.2-0.2,0.6-0.3,0.8-0.3c0.3-0.1,0.6,0.1,0.7,0.3
		c0,0.2-0.1,1-0.2,1.1c-0.4,0.4-1.3,0.9-1.8,0.8C97.2,106.3,97.1,106,97.1,105.9 M96.2,107.6c0,0,0.1-0.1,0.1-0.1
		c0.3-0.4,0.9-0.4,1.4-0.5c0.4-0.1,1,0.1,1.1,0.4c0.1,0.3-1.1,0.8-1.3,1c-0.6,0.5-1.5,1.7-2.1,1.8c-0.2,0-0.3,0-0.4,0
		C95.3,109.3,95.8,108.4,96.2,107.6 M105.5,126.5c-0.3,1.3-0.7,1.8-1.1,2.2c-0.3,0.4-1.6,1-2.3,0.9c-0.8-0.1-0.9-2.1-0.9-3.2
		c0-0.4-0.5,0.7-0.8-1.5c-0.2-1.4-1.1,0.1-1.2-0.8c-0.1-0.9-0.5-0.8-1-1.4c-0.5-0.6-1.1,0.1-1.7,0.4c-0.7,0.3-0.4,0.5-1.3,0.2
		c0,0,0,0-0.1,0c-0.9-2.1-1.3-4.3-1.3-6.7c0-0.6,0-1.1,0.1-1.7c0-0.1,0.1-0.1,0.1-0.2c0.9-1.1,0.9-1.3,0.9-1.3l1-0.3
		c0,0,1.6,0.2,2.8,0.7c1,0.4,2.6,1.2,3.5,0.8c0.7-0.3,1.2-0.6,1.1-1.2c-0.1-0.7-0.6-0.9-1.3-0.4c-0.2,0.2-0.8-1-1.2-1
		c-0.4,0.1,0.5,1.4,0.2,1.5c-0.3,0.1-1-1.4-1.2-1.7c-0.1-0.2-0.6-0.8-1.1-0.4c-1,1-2.7,0.9-3,1.2c-1,0.8-1.3-0.2-1.2-0.9
		c0-0.1,0.1-0.3,0.1-0.4c0.3-0.4,1.5-0.5,1.9-0.2c0.4,0.3,0.8-0.1,0.9-0.3c0.2-0.2,0.1-0.5,0-0.7c-0.1-0.2,0.2-0.4,0.5-0.5
		c0.2-0.1,1-0.6,1.3-0.8c0.3-0.2,1.9-0.4,2.6,0c0.7,0.4,1.4,0.1,1.7-0.3c0.4-0.5,1-0.9,1.2-1c0.2-0.1-0.6-0.9-1.3,0
		c-0.7,0.9-1.1,1-1.4,1c-0.3,0-2.3-0.5-2.6-1.1c-0.2-0.6,0.6-1.1,1.4-1.4c0.7-0.3,2.7-0.3,3.2-0.5c1-0.2,2.4-0.8,3-0.3
		c0.7,0.4-2.8,1.2-1.7,1.9c0.4,0.2,2.2-1.1,2.9-1.4c1.5-0.8-1.4-1-1.1-2.6c0.4-1.7-3.6-1.1-5.6-0.9c2.7-1.7,5.8-2.7,9.2-2.7
		c8.1,0,14.9,5.6,16.7,13.1c0,0.4,0,0.6-0.1,0.8c-0.2,0.6-1.3,1.2-2,0.2c-0.2-0.3-0.9-0.9-0.9,0.2c0,1.2,1.2,1.3,0.1,2
		c-1.1,0.7-1.3,0.5-1.8,0.7c-0.5,0.2-1,1.4-0.9,2.1c0.1,0.7,1.7,2.4,0.5,2.4c-0.3,0-2.3-1.4-2.7-2.3c-0.4-0.9-0.7-1.9-1-2.6
		c-0.3-0.7-1-0.9-1.6-0.5c-0.6,0.4,0.2,0.8-0.3,1.7c-0.4,0.9-0.8,1.7-1.4,1c-1.7-1.9-4.1-1-4.5-3.1c-0.2-1.2-1.2-1-2-1.7
		c-0.8-0.7-1.3-1-1.4-0.5c-0.1,0.4,2.6,2.6,2.8,3.2c0.3,0.8-0.8,1.6-1.6,1.8c-0.8,0.2-1.2-0.5-2-1.3c-0.8-0.8-1.1-1.4-1.2-0.8
		c-0.1,0.9,0.8,2.3,1.6,2.8c0.7,0.4,1.5,0.6,1.2,1.4c-0.2,0.7,0,0.3-0.8,1.1c-0.8,0.8-0.9,1-0.9,2.1c0.1,1.1-0.2,1.1-0.4,2
		C106.2,126,105.8,125.2,105.5,126.5 M123.9,119.7c0.6,0,1.4,0.8,1.1,1.1c-0.3,0.3-1.2,0.2-1.6-0.1
		C122.9,120.3,123.6,119.7,123.9,119.7 M123.1,119.2c-0.2-0.1-0.3-0.2-0.5-0.7c-0.1-0.4,0.2-0.7,0.6-0.5c0.4,0.2,0.8,0.7,0.8,1
		C124,119.3,123.3,119.2,123.1,119.2 M115.6,119.1c-0.3,0.3-1.2,0.2-1.6-0.1c-0.4-0.3,0.3-0.9,0.5-0.9
		C115,118,115.9,118.8,115.6,119.1 M108.6,122.5c-0.2,0.4-0.9,3.3-1.3,2.9c-0.4-0.3,0.2-3.3,0.3-3.6
		C108.2,120.7,109.7,120.7,108.6,122.5 M110.9,133.7c-1.7,0-3.3-0.2-4.8-0.7c-0.2-0.2-0.3-0.5-0.2-0.8c0.5-1.4,2.1-1.9,3.4-2
		c2.8-0.3,6.4,1.8,7,1.5c0.6-0.3,1.8-1.9,3.5-1.8c1.2,0,1.2,0.2,1.6,0.4C118.4,132.4,114.8,133.7,110.9,133.7 M123,128.7
		c-0.2,0-0.3-0.1-0.5-0.2c-0.9-0.5-0.8,0.3-1.3,0.1c-0.5-0.2,0.5-1.2-0.9-0.3c-1.4,0.9-1-0.1-1.6-1.7c-0.6-1.5,0.7-3.3,1.8-3.7
		c1.5-0.5,2.4-0.6,3.1-0.8c2.1-0.5,2.5-1.7,2.9-1c0.1,0.1,0.1,0.3,0.2,0.4c0.1,0.2,0.3,0.7,0.3,1.1C126.1,125,124.7,127,123,128.7
		 M127.7,120.1c-0.5-0.1-2.4-2.8-0.9-4.5c0.3-0.3-0.5-1.1-0.3-1.2c0.8-0.1,1.3,0.5,1.5,1.2c0,0.3,0,0.7,0,1
		C128.1,117.8,127.9,118.9,127.7,120.1"/>
	<g>
		<path class="st0" d="M89.9,62.6v-4.5c0-1.5,0.7-2.5,2.3-2.5c1.7,0,2.2,1,2.2,2.3V59H93v-1.2c0-0.6-0.2-0.9-0.8-0.9
			c-0.6,0-0.8,0.4-0.8,1v5c0,0.6,0.2,1,0.8,1c0.6,0,0.8-0.4,0.8-0.9v-1.7h1.4v1.6c0,1.3-0.5,2.3-2.2,2.3
			C90.6,65.1,89.9,64,89.9,62.6z"/>
		<path class="st0" d="M95.5,55.7H97v8h1.9V65h-3.4V55.7z"/>
		<path class="st0" d="M99.7,55.7h1.6V65h-1.6V55.7z"/>
		<path class="st0" d="M106.7,58.9L106.7,58.9l-1.1,6h-0.7l-1.2-6h0v6h-1.3v-9.3h1.8l1,5.2h0l0.9-5.2h2V65h-1.4V58.9z"/>
		<path class="st0" d="M108.9,65l1.8-9.3h1.8l1.8,9.3h-1.6l-0.3-1.7h-1.7l-0.3,1.7H108.9z M110.9,62h1.2l-0.6-3.7h0L110.9,62z"/>
		<path class="st0" d="M114,55.7h4.1V57h-1.3v8h-1.6v-8H114V55.7z"/>
		<path class="st0" d="M119,55.7h3.7V57h-2.2v2.7h1.5v1.3h-1.5v2.8h2.2V65H119V55.7z"/>
	</g>
	<g>
		<path class="st0" d="M89.7,78.1l1.8-9.3h1.8l1.8,9.3h-1.6l-0.3-1.7h-1.7l-0.3,1.7H89.7z M91.6,75.2h1.2l-0.6-3.7h0L91.6,75.2z"/>
		<path class="st0" d="M95.4,75.7v-4.5c0-1.5,0.7-2.5,2.3-2.5c1.7,0,2.2,1,2.2,2.3v1.1h-1.4V71c0-0.6-0.2-0.9-0.8-0.9
			c-0.6,0-0.8,0.4-0.8,1v5c0,0.6,0.2,1,0.8,1c0.6,0,0.8-0.4,0.8-0.9v-1.7h1.4v1.6c0,1.3-0.5,2.3-2.2,2.3
			C96.1,78.2,95.4,77.2,95.4,75.7z"/>
		<path class="st0" d="M100.5,68.9h4.1v1.3h-1.3v8h-1.6v-8h-1.3V68.9z"/>
		<path class="st0" d="M105.5,68.9h1.6v9.3h-1.6V68.9z"/>
		<path class="st0" d="M108.1,75.7v-4.5c0-1.5,0.7-2.5,2.4-2.5c1.7,0,2.4,1.1,2.4,2.5v4.5c0,1.4-0.7,2.5-2.4,2.5
			C108.8,78.2,108.1,77.2,108.1,75.7z M111.2,76v-5c0-0.6-0.2-1-0.8-1c-0.5,0-0.8,0.4-0.8,1v5c0,0.6,0.2,1,0.8,1
			C111,76.9,111.2,76.5,111.2,76z"/>
		<path class="st0" d="M115.1,72.3v5.8h-1.3v-9.3h1.5l1.7,5.3v-5.3h1.3v9.3H117L115.1,72.3z"/>
	</g>
</g>
</svg>
