<?xml version="1.0" encoding="utf-8"?>
<!-- Generator: Adobe Illustrator 24.2.0, SVG Export Plug-In . SVG Version: 6.00 Build 0)  -->
<svg version="1.1" id="Ebene_2" xmlns="http://www.w3.org/2000/svg" xmlns:xlink="http://www.w3.org/1999/xlink" x="0px" y="0px"
	 viewBox="0 0 214 192.9" style="enable-background:new 0 0 214 192.9;" xml:space="preserve">
<style type="text/css">
	.st0{fill:#FFFFFF;}
</style>
<g>
	<polygon class="st0" points="69.5,46.8 69.5,72.8 65.1,72.8 65.1,52.9 65.1,52.9 62,56 62,56 62,51.5 66,46.8 	"/>
	<path class="st0" d="M82.9,72.8v-4.2h1.8v-3.4h-1.8V46.8h-4.3L71,65.9v2.7h7.7v4.2H82.9z M74.8,65.1l3.9-10.7h0v10.7H74.8z"/>
	<path class="st0" d="M151.9,130.1c-1.6-2.2-12.1-15.6-26.8-15.6c-12.8,0-26.5,11.6-26.5,11.6s-5.1-10.5-15.6-11.5
		c-0.1,0-0.1,0-0.2,0h-0.1c-0.2,0-0.4,0.2-0.4,0.4c0,0.2,0.2,0.4,0.2,0.4c1.4,2.2,4.8,8.6,4.8,15c0,6.4-3.5,12.8-4.8,15.1l-0.1,0.1
		c0,0.1-0.1,0.1-0.1,0.2c0,0.2,0.2,0.4,0.4,0.4l0.1,0c0,0,0.1,0,0.1,0c10.5-1,15.7-11.5,15.7-11.5s13.7,11.6,26.5,11.6
		c14.7,0,25.2-13.4,26.8-15.6c0-0.1,0.1-0.1,0.1-0.2c0-0.1,0-0.1,0-0.2c0-0.1,0-0.1,0-0.2C151.9,130.2,151.9,130.2,151.9,130.1
		 M133.2,132.1c-2.4,0-4.3-1.9-4.3-4.3c0-2.4,1.9-4.3,4.3-4.3c2.4,0,4.3,1.9,4.3,4.3C137.5,130.2,135.6,132.1,133.2,132.1"/>
	<path class="st0" d="M82.6,89.4C82.5,89.4,82.5,89.4,82.6,89.4c-0.3,0-0.5,0.2-0.5,0.4v2.9c0,0.1,0,0.2,0.1,0.3
		c7.1,6.2,13.8,0.4,15.4-1.1c0,0,0.1-0.1,0.1-0.1c0.1,0,0.1-0.1,0.2-0.1c0.1,0,0.2,0,0.3,0.1c0,0,0,0,0,0c8,7.7,16.4,1.5,18.2,0
		l0.2-0.2c0,0,0.1,0,0.2,0c0.1,0,0.1,0,0.2,0l0.2,0.2c1.7,1.5,10.2,7.7,18.2,0c0,0,0,0,0,0c0.1-0.1,0.2-0.1,0.3-0.1
		c0.1,0,0.2,0,0.2,0.1c0,0,0.1,0.1,0.1,0.1c1.6,1.5,8.3,7.3,15.4,1.1c0.1-0.1,0.1-0.2,0.1-0.3v-2.9c0-0.2-0.2-0.4-0.4-0.4
		c0,0-0.1,0-0.1,0c-0.1,0-0.1,0.1-0.2,0.1c-2.2,1.1-9,3.7-15.1-2.1c-0.1-0.1-0.1-0.1-0.2-0.2c-0.1,0-0.1,0-0.2,0c0,0-0.1,0-0.1,0
		c-0.1,0-0.2,0.1-0.2,0.2c-1.8,1.4-10.2,7.1-17.7,0.1l-0.1-0.1c-0.1-0.1-0.2-0.1-0.3-0.1c-0.1,0-0.2,0.1-0.3,0.1l-0.1,0.1
		c-7.5,7-15.9,1.3-17.7-0.1c0-0.1-0.1-0.1-0.2-0.2c0,0-0.1,0-0.1,0c-0.1,0-0.1,0-0.2,0c-0.1,0.1-0.1,0.1-0.2,0.2
		c-6.2,5.8-12.9,3.2-15.1,2.1C82.7,89.5,82.6,89.4,82.6,89.4"/>
	<path class="st0" d="M97.6,102.5c0,0,0.1-0.1,0.1-0.1c0.1,0,0.1-0.1,0.2-0.1c0.1,0,0.2,0,0.3,0.1c0,0,0,0,0,0
		c8,7.6,16.4,1.4,18.2,0l0.2-0.2c0,0,0.1,0,0.2,0c0.1,0,0.1,0,0.2,0l0.2,0.2c1.7,1.4,10.2,7.6,18.2,0c0,0,0,0,0,0
		c0.1-0.1,0.2-0.1,0.3-0.1c0.1,0,0.2,0,0.2,0.1c0.1,0,0.1,0.1,0.1,0.1c1.6,1.5,8.3,7.3,15.4,1.1c0.1-0.1,0.1-0.2,0.1-0.3v-2.9
		c0-0.2-0.2-0.4-0.4-0.4c0,0-0.1,0-0.1,0c-0.1,0-0.1,0.1-0.2,0.1c-2.2,1.1-9,3.7-15.1-2.1c-0.1-0.1-0.1-0.1-0.2-0.2
		c-0.1,0-0.1,0-0.2,0c0,0-0.1,0-0.1,0c-0.1,0-0.2,0.1-0.2,0.2c-1.8,1.4-10.2,7.1-17.7,0.1l-0.1-0.1c-0.1-0.1-0.2-0.1-0.3-0.1
		c-0.1,0-0.2,0-0.3,0.1l-0.1,0.1c-7.5,7-15.9,1.3-17.7-0.1c0-0.1-0.1-0.1-0.2-0.2c0,0-0.1,0-0.1,0c-0.1,0-0.1,0-0.2,0
		C98,97.9,98,98,97.9,98c-6.2,5.8-12.9,3.2-15.1,2.1c-0.1,0-0.1-0.1-0.2-0.1c0,0-0.1,0-0.1,0c-0.2,0-0.4,0.2-0.4,0.4v2.9
		c0,0.1,0,0.2,0.1,0.3C89.3,109.9,96,104.1,97.6,102.5"/>
	<g>
		<path class="st0" d="M93.9,46.7h1.8v9.1h2.1v1.4h-3.9V46.7z"/>
		<path class="st0" d="M98.6,46.7h1.8v10.6h-1.8V46.7z"/>
		<path class="st0" d="M101.4,46.7h4.2v1.4h-2.4v3h1.8v1.4h-1.8v4.7h-1.8V46.7z"/>
		<path class="st0" d="M106.4,46.7h4.2v1.4h-2.5v3h1.8v1.4h-1.8v3.2h2.5v1.4h-4.2V46.7z"/>
		<path class="st0" d="M113.9,46.7h2.6c1.8,0,2.4,0.8,2.4,2.3v1.1c0,0.9-0.3,1.4-1.1,1.7c0.9,0.2,1.3,0.8,1.3,1.8v1.4
			c0,1.5-0.7,2.3-2.4,2.3h-2.8V46.7z M115.7,51.2h0.6c0.6,0,0.8-0.3,0.8-0.9V49c0-0.6-0.3-0.9-0.9-0.9h-0.6V51.2z M115.7,52.5v3.3
			h0.8c0.6,0,0.9-0.3,0.9-0.9v-1.6c0-0.6-0.3-0.9-0.9-0.9H115.7z"/>
		<path class="st0" d="M119.9,46.7h4.2v1.4h-2.5v3h1.8v1.4h-1.8v3.2h2.5v1.4h-4.2V46.7z"/>
		<path class="st0" d="M125.2,46.7h1.8v9.1h2.1v1.4h-3.9V46.7z"/>
		<path class="st0" d="M129.8,54.5v-5.1c0-1.6,0.8-2.8,2.7-2.8c1.9,0,2.7,1.2,2.7,2.8v5.1c0,1.6-0.8,2.8-2.7,2.8
			C130.6,57.4,129.8,56.2,129.8,54.5z M133.4,54.8v-5.7c0-0.6-0.3-1.1-0.9-1.1c-0.6,0-0.9,0.5-0.9,1.1v5.7c0,0.6,0.3,1.1,0.9,1.1
			C133.1,55.9,133.4,55.5,133.4,54.8z"/>
		<path class="st0" d="M139.9,50.7l-1,6.5h-1.7l-1.4-10.6h1.7l0.8,6.7h0l0.9-6.7h1.4l1,6.7h0l0.8-6.7h1.5l-1.4,10.6h-1.7L139.9,50.7
			L139.9,50.7z"/>
	</g>
	<g>
		<path class="st0" d="M97.7,66.2l-1,6.5h-1.7l-1.4-10.6h1.7l0.8,6.7h0l0.9-6.7h1.4l1,6.7h0l0.8-6.7h1.5l-1.4,10.6h-1.7L97.7,66.2
			L97.7,66.2z"/>
		<path class="st0" d="M101.6,72.7l2-10.6h2l2,10.6h-1.8l-0.3-1.9h-1.9l-0.3,1.9H101.6z M103.8,69.4h1.4l-0.7-4.2h0L103.8,69.4z"/>
		<path class="st0" d="M107.3,62.2h4.7v1.4h-1.5v9.1h-1.8v-9.1h-1.5V62.2z"/>
		<path class="st0" d="M112.8,62.2h4.2v1.4h-2.5v3h1.8v1.4h-1.8v3.2h2.5v1.4h-4.2V62.2z"/>
		<path class="st0" d="M119.8,67.9v4.8H118V62.2h2.6c1.8,0,2.4,0.9,2.4,2.4v1.4c0,1.1-0.4,1.8-1.4,2l1.7,4.8h-1.9L119.8,67.9z
			 M119.8,63.6v3.3h0.6c0.6,0,0.9-0.3,0.9-0.9v-1.6c0-0.6-0.3-0.9-0.9-0.9H119.8z"/>
	</g>
</g>
</svg>
