<?xml version="1.0" encoding="utf-8"?>
<!-- Generator: Adobe Illustrator 24.2.0, SVG Export Plug-In . SVG Version: 6.00 Build 0)  -->
<svg version="1.1" id="Ebene_2" xmlns="http://www.w3.org/2000/svg" xmlns:xlink="http://www.w3.org/1999/xlink" x="0px" y="0px"
	 viewBox="0 0 214 192.9" style="enable-background:new 0 0 214 192.9;" xml:space="preserve">
<style type="text/css">
	.st0{fill:#FFFFFF;}
</style>
<g>
	<polygon class="st0" points="68.9,49.3 68.9,73.4 64.9,73.4 64.9,55 64.9,55 62,57.9 62,57.9 62,53.7 65.7,49.3 	"/>
	<polygon class="st0" points="70.8,49.3 80.9,49.3 80.9,53.1 75.6,73.4 71.6,73.4 77,52.6 70.8,52.6 	"/>
	<path class="st0" d="M141,111.6c0-8.4-6.7-15.2-14.9-15.5c-2.1-6-7.9-10.4-14.6-10.4c-6.7,0-12.5,4.3-14.6,10.4
		c-8.3,0.3-14.9,7.1-14.9,15.5c0,5,2.3,9.4,6,12.2c-0.4,1.4-0.6,2.8-0.6,4.3c0,8.6,7,15.5,15.5,15.5c3.2,0,6.3-1,8.8-2.7
		c2.5,1.6,5.4,2.6,8.6,2.6c8.6,0,15.5-7,15.5-15.5c0-1.5-0.2-2.9-0.6-4.2C138.6,121,141,116.6,141,111.6 M123.8,101.3
		c0,6.2-4.6,11.4-10.6,12.2c-0.1-0.6-0.2-1.3-0.2-1.9c0-6.2,4.6-11.4,10.6-12.2C123.7,100,123.8,100.6,123.8,101.3 M111.4,136.9
		c-2.3-2.3-3.8-5.4-3.8-8.9c0-3.4,1.4-6.5,3.7-8.8c2.3,2.3,3.8,5.4,3.8,8.9C115.1,131.6,113.7,134.7,111.4,136.9 M99.2,99.4
		c6,0.9,10.6,6,10.6,12.2c0,0.6-0.1,1.3-0.2,1.9c-6-0.9-10.6-6-10.6-12.2C99,100.6,99.1,100,99.2,99.4 M108.4,117.2
		c-2,4.1-6.2,6.8-11.1,6.8c-2.1,0-4-0.5-5.7-1.4c2-4.1,6.2-6.8,11.1-6.8C104.8,115.8,106.7,116.3,108.4,117.2 M114.3,117.1
		c1.7-0.9,3.7-1.4,5.7-1.4c4.9,0,9.1,2.8,11.1,6.9c-1.7,0.9-3.7,1.4-5.7,1.4C120.6,124,116.4,121.2,114.3,117.1 M111.4,88.9
		c5.1,0,9.4,3.1,11.4,7.5c-5,0.9-9.2,4.2-11.4,8.7c-2.1-4.5-6.3-7.8-11.4-8.7C101.9,92,106.3,88.9,111.4,88.9 M84.9,111.6
		c0-6.4,4.9-11.7,11.1-12.3c-0.1,0.6-0.1,1.3-0.1,2c0,4.5,2,8.6,5.1,11.5c-5.1,0.6-9.5,3.7-11.9,8.1
		C86.5,118.5,84.9,115.3,84.9,111.6 M90.3,128.2c0-0.9,0.1-1.7,0.3-2.6c2,1,4.3,1.5,6.7,1.5c2.7,0,5.3-0.7,7.5-1.9
		c-0.2,0.9-0.3,1.9-0.3,2.9c0,4.2,1.7,8,4.4,10.8c-1.8,1.1-4,1.7-6.2,1.7C95.9,140.5,90.3,135,90.3,128.2 M132.5,128.1
		c0,6.8-5.6,12.4-12.4,12.4c-2.2,0-4.3-0.6-6.1-1.6c2.6-2.8,4.3-6.5,4.3-10.7c0-1-0.1-2-0.3-3c2.2,1.2,4.8,1.9,7.5,1.9
		c2.4,0,4.7-0.6,6.8-1.6C132.4,126.4,132.5,127.2,132.5,128.1 M121.9,112.7c3.1-2.8,5-6.9,5-11.4c0-0.7,0-1.3-0.1-2
		c6.2,0.7,11.1,5.9,11.1,12.3c0,3.6-1.6,6.9-4.1,9.2C131.4,116.4,127.1,113.3,121.9,112.7"/>
	<g>
		<path class="st0" d="M89.2,49.3h2.4c1.7,0,2.3,0.8,2.3,2.2v2.1c0,1.4-0.6,2.2-2.3,2.2h-0.8v3.3h-1.6V49.3z M90.8,50.7v3.8h0.6
			c0.6,0,0.8-0.3,0.8-0.8v-2.2c0-0.5-0.2-0.8-0.8-0.8H90.8z"/>
		<path class="st0" d="M94,59.1l1.8-9.7h1.9l1.9,9.7h-1.7l-0.3-1.8h-1.7l-0.3,1.8H94z M96.1,56h1.3l-0.6-3.9h0L96.1,56z"/>
		<path class="st0" d="M102,54.6v4.5h-1.6v-9.7h2.4c1.7,0,2.3,0.8,2.3,2.2v1.2c0,1-0.4,1.7-1.3,1.9l1.6,4.4h-1.7L102,54.6z
			 M102,50.7v3h0.5c0.6,0,0.8-0.3,0.8-0.8v-1.4c0-0.5-0.2-0.8-0.8-0.8H102z"/>
		<path class="st0" d="M105.6,49.3h4.4v1.3h-1.3v8.4H107v-8.4h-1.3V49.3z"/>
		<path class="st0" d="M112.4,53v6.1H111v-9.7h1.6l1.8,5.6v-5.6h1.4v9.7h-1.4L112.4,53z"/>
		<path class="st0" d="M117.1,49.3h3.9v1.3h-2.3v2.8h1.6v1.3h-1.6v3h2.3v1.3h-3.9V49.3z"/>
		<path class="st0" d="M123.7,54.6v4.5H122v-9.7h2.4c1.7,0,2.3,0.8,2.3,2.2v1.2c0,1-0.4,1.7-1.3,1.9l1.6,4.4h-1.7L123.7,54.6z
			 M123.7,50.7v3h0.5c0.6,0,0.8-0.3,0.8-0.8v-1.4c0-0.5-0.2-0.8-0.8-0.8H123.7z"/>
		<path class="st0" d="M127.5,57v-1.3h1.5V57c0,0.5,0.2,0.9,0.8,0.9c0.5,0,0.7-0.3,0.7-0.9v-0.4c0-0.6-0.2-0.9-0.7-1.4l-1-1
			c-0.9-0.9-1.4-1.5-1.4-2.6v-0.3c0-1.2,0.7-2.1,2.3-2.1c1.6,0,2.3,0.8,2.3,2.2v0.8h-1.5v-0.8c0-0.6-0.3-0.8-0.8-0.8
			c-0.5,0-0.8,0.3-0.8,0.8v0.2c0,0.5,0.3,0.9,0.8,1.3l1,1c0.9,0.9,1.3,1.5,1.3,2.5v0.5c0,1.3-0.7,2.3-2.4,2.3
			C128.1,59.2,127.5,58.3,127.5,57z"/>
		<path class="st0" d="M136.4,54.8h-1.6v4.3h-1.6v-9.7h1.6v4.1h1.6v-4.1h1.7v9.7h-1.7V54.8z"/>
		<path class="st0" d="M139.1,49.3h1.6v9.7h-1.6V49.3z"/>
		<path class="st0" d="M141.9,49.3h2.4c1.7,0,2.3,0.8,2.3,2.2v2.1c0,1.4-0.6,2.2-2.3,2.2h-0.8v3.3h-1.6V49.3z M143.5,50.7v3.8h0.6
			c0.6,0,0.8-0.3,0.8-0.8v-2.2c0-0.5-0.2-0.8-0.8-0.8H143.5z"/>
		<path class="st0" d="M147.2,57v-1.3h1.5V57c0,0.5,0.2,0.9,0.8,0.9c0.5,0,0.7-0.3,0.7-0.9v-0.4c0-0.6-0.2-0.9-0.7-1.4l-1-1
			c-0.9-0.9-1.4-1.5-1.4-2.6v-0.3c0-1.2,0.7-2.1,2.3-2.1c1.6,0,2.3,0.8,2.3,2.2v0.8h-1.5v-0.8c0-0.6-0.3-0.8-0.8-0.8
			c-0.5,0-0.8,0.3-0.8,0.8v0.2c0,0.5,0.3,0.9,0.8,1.3l1,1c0.9,0.9,1.3,1.5,1.3,2.5v0.5c0,1.3-0.7,2.3-2.4,2.3
			C147.8,59.2,147.2,58.3,147.2,57z"/>
	</g>
	<g>
		<path class="st0" d="M89.2,63.5h3.9v1.4h-2.2v2.8h1.7V69h-1.7v4.4h-1.7V63.5z"/>
		<path class="st0" d="M93.6,70.8V66c0-1.5,0.8-2.7,2.5-2.7c1.8,0,2.5,1.1,2.5,2.7v4.8c0,1.5-0.8,2.7-2.5,2.7
			C94.4,73.5,93.6,72.4,93.6,70.8z M97,71.1v-5.3c0-0.6-0.3-1-0.9-1c-0.6,0-0.8,0.4-0.8,1v5.3c0,0.6,0.3,1,0.8,1
			C96.7,72.1,97,71.7,97,71.1z"/>
		<path class="st0" d="M101.4,68.8v4.5h-1.7v-9.9h2.4c1.7,0,2.3,0.8,2.3,2.2V67c0,1.1-0.4,1.7-1.3,1.9l1.6,4.5H103L101.4,68.8z
			 M101.4,64.8v3.1h0.6c0.6,0,0.8-0.3,0.8-0.8v-1.5c0-0.5-0.2-0.8-0.8-0.8H101.4z"/>
		<path class="st0" d="M107.1,63.5h4.4v1.4h-1.4v8.5h-1.7v-8.5h-1.4V63.5z"/>
		<path class="st0" d="M115.5,69h-1.6v4.4h-1.7v-9.9h1.7v4.2h1.6v-4.2h1.7v9.9h-1.7V69z"/>
		<path class="st0" d="M118.3,63.5h4v1.4H120v2.8h1.6V69H120v3h2.3v1.4h-4V63.5z"/>
		<path class="st0" d="M127.6,68.1h2.4v5.3h-1.2v-1.1c-0.2,0.7-0.7,1.2-1.6,1.2c-1.4,0-2.1-1.1-2.1-2.7V66c0-1.5,0.7-2.7,2.5-2.7
			c1.8,0,2.4,1,2.4,2.5v0.9h-1.5v-1c0-0.6-0.2-1-0.8-1c-0.6,0-0.9,0.4-0.9,1v5.3c0,0.6,0.2,1,0.8,1c0.5,0,0.8-0.3,0.8-0.9v-1.8h-0.8
			V68.1z"/>
		<path class="st0" d="M130.9,70.8V66c0-1.5,0.8-2.7,2.5-2.7c1.8,0,2.5,1.1,2.5,2.7v4.8c0,1.5-0.8,2.7-2.5,2.7
			C131.6,73.5,130.9,72.4,130.9,70.8z M134.3,71.1v-5.3c0-0.6-0.3-1-0.9-1c-0.6,0-0.8,0.4-0.8,1v5.3c0,0.6,0.3,1,0.8,1
			C134,72.1,134.3,71.7,134.3,71.1z"/>
		<path class="st0" d="M136.4,73.4l1.9-9.9h1.9l1.9,9.9h-1.7l-0.3-1.8h-1.8l-0.3,1.8H136.4z M138.5,70.2h1.3l-0.7-4h0L138.5,70.2z"
			/>
		<path class="st0" d="M143,63.5h1.7V72h2v1.4H143V63.5z"/>
		<path class="st0" d="M147.2,71.2v-1.3h1.5v1.4c0,0.6,0.2,0.9,0.8,0.9c0.5,0,0.8-0.3,0.8-0.9v-0.4c0-0.6-0.2-0.9-0.7-1.4l-1-1
			c-0.9-0.9-1.4-1.5-1.4-2.6v-0.3c0-1.2,0.7-2.2,2.3-2.2c1.7,0,2.3,0.8,2.3,2.2v0.8h-1.5v-0.9c0-0.6-0.3-0.8-0.8-0.8
			c-0.5,0-0.8,0.3-0.8,0.8v0.2c0,0.6,0.3,0.9,0.8,1.3l1.1,1c0.9,0.9,1.3,1.5,1.3,2.6v0.5c0,1.4-0.7,2.3-2.4,2.3
			S147.2,72.5,147.2,71.2z"/>
	</g>
</g>
</svg>
