<?xml version="1.0" encoding="utf-8"?>
<!-- Generator: Adobe Illustrator 24.2.0, SVG Export Plug-In . SVG Version: 6.00 Build 0)  -->
<svg version="1.1" id="Ebene_2" xmlns="http://www.w3.org/2000/svg" xmlns:xlink="http://www.w3.org/1999/xlink" x="0px" y="0px"
	 viewBox="0 0 214 192.9" style="enable-background:new 0 0 214 192.9;" xml:space="preserve">
<style type="text/css">
	.st0{fill:#FFFFFF;}
</style>
<g>
	<path class="st0" d="M74.1,66.5h-7.6v-1.3c0-2.2,0.8-3,2-4.2l3-3.1c2.4-2.6,2.9-4.2,2.9-7v-2.7c0-4-1.9-5.8-6.1-5.8
		c-4.1,0-6.2,2.2-6.2,6v3.3h4.2v-3.5c0-1.7,0.8-2.2,1.8-2.2c0.9,0,1.7,0.4,1.7,2.1v2.3c0,2.3-0.2,3.2-1.7,4.8L65.5,58
		c-2.5,2.7-3.5,4.5-3.5,7.2v5.1h12.1V66.5z"/>
	<path class="st0" d="M103.1,147.7v1.9c0,0,0,0,0,0c0,0,0,0,0,0c0,0.5,0.4,0.9,0.9,0.9c0,0,0,0,0,0c0,0,0,0,0,0h22.6c0,0,0,0,0,0
		s0,0,0,0c0.5,0,0.9-0.4,0.9-0.9c0,0,0,0,0,0c0,0,0,0,0,0v-2.2c12.7-4.2,22.3-14.5,24.4-27.1c0,0,0-0.1,0-0.1c0,0,0-0.1,0-0.1
		c0-0.5-0.4-0.9-0.9-0.9H79.4H79c-0.5,0-0.9,0.4-0.9,0.9l0,0.4C80.3,133.3,90.1,143.7,103.1,147.7"/>
	<path class="st0" d="M127.6,88.5c-0.3,0.4-7.3,10.5,0.2,18.6c3.4,3.7,3.1,7,2.1,9.2h4.8c1-3.3,0.6-7.4-3.3-11.6
		c-5.5-6,0.1-14.1,0.2-14.2c0.7-0.9,0.3-2.1-0.8-2.7C129.6,87.3,128.2,87.6,127.6,88.5"/>
	<path class="st0" d="M115.5,116.3h4.8c1-3.3,0.6-7.4-3.3-11.6c-5.5-6,0.1-14,0.2-14.2c0.6-0.9,0.3-2.1-0.8-2.7
		c-1.1-0.5-2.5-0.3-3.1,0.7c-0.3,0.4-7.3,10.5,0.2,18.6C116.8,110.8,116.5,114.1,115.5,116.3"/>
	<path class="st0" d="M98.9,88.5c-0.3,0.4-7.3,10.5,0.2,18.6c3.4,3.7,3.1,7,2.1,9.2h4.8c1-3.3,0.6-7.4-3.3-11.6
		c-5.5-6,0.1-14.1,0.2-14.2c0.6-0.9,0.3-2.1-0.8-2.7C100.9,87.3,99.5,87.6,98.9,88.5"/>
	<g>
		<path class="st0" d="M89.4,52.3h2.9v1.5h-4.8v-1.5l3-8.1h-2.7v-1.5h4.6v1.5L89.4,52.3z"/>
		<path class="st0" d="M93.6,42.7h4.5v1.5h-2.6v3.2h1.9v1.5h-1.9v3.4h2.6v1.5h-4.5V42.7z"/>
		<path class="st0" d="M101.1,48.7v5.1h-1.9V42.7h2.7c1.9,0,2.6,0.9,2.6,2.5v1.4c0,1.2-0.4,1.9-1.5,2.2l1.8,5.1h-2L101.1,48.7z
			 M101.1,44.2v3.5h0.6c0.6,0,0.9-0.3,0.9-0.9v-1.7c0-0.6-0.3-0.9-0.9-0.9H101.1z"/>
		<path class="st0" d="M105.8,51v-5.4c0-1.8,0.9-3,2.8-3c2,0,2.9,1.3,2.9,3V51c0,1.7-0.9,3-2.9,3C106.6,54,105.8,52.7,105.8,51z
			 M109.6,51.3v-6c0-0.7-0.3-1.2-1-1.2c-0.7,0-1,0.5-1,1.2v6c0,0.7,0.3,1.2,1,1.2C109.3,52.4,109.6,51.9,109.6,51.3z"/>
	</g>
	<g>
		<path class="st0" d="M91.3,65.3h-1.8v4.9h-1.9V59.1h1.9v4.7h1.8v-4.7h1.9v11.2h-1.9V65.3z"/>
		<path class="st0" d="M99.9,59.1v8.5c0,1.7-0.7,2.9-2.7,2.9c-2,0-2.8-1.1-2.8-2.9v-8.5h1.9v8.7c0,0.7,0.3,1.1,0.9,1.1
			c0.7,0,0.9-0.4,0.9-1.1v-8.7H99.9z"/>
		<path class="st0" d="M102.7,63.2v7h-1.6V59.1h1.9l2,6.4v-6.4h1.6v11.2h-1.7L102.7,63.2z"/>
		<path class="st0" d="M110.7,64.3h2.7v6H112v-1.2c-0.2,0.8-0.8,1.4-1.8,1.4c-1.6,0-2.4-1.3-2.4-3V62c0-1.8,0.8-3,2.8-3
			c2.1,0,2.7,1.2,2.7,2.8v1h-1.7v-1.1c0-0.7-0.3-1.1-0.9-1.1s-1,0.5-1,1.2v6c0,0.7,0.3,1.2,0.9,1.2c0.6,0,0.9-0.3,0.9-1.1v-2h-0.9
			V64.3z"/>
		<path class="st0" d="M114.6,59.1h4.5v1.5h-2.6v3.2h1.9v1.5h-1.9v3.4h2.6v1.5h-4.5V59.1z"/>
		<path class="st0" d="M122.1,65.1v5.1h-1.9V59.1h2.7c1.9,0,2.6,0.9,2.6,2.5V63c0,1.2-0.4,1.9-1.5,2.2l1.8,5.1h-2L122.1,65.1z
			 M122.1,60.6v3.5h0.6c0.6,0,0.9-0.3,0.9-0.9v-1.7c0-0.6-0.3-0.9-0.9-0.9H122.1z"/>
	</g>
</g>
</svg>
