<?xml version="1.0" encoding="utf-8"?>
<!-- Generator: Adobe Illustrator 24.2.0, SVG Export Plug-In . SVG Version: 6.00 Build 0)  -->
<svg version="1.1" id="Ebene_2" xmlns="http://www.w3.org/2000/svg" xmlns:xlink="http://www.w3.org/1999/xlink" x="0px" y="0px"
	 viewBox="0 0 214 192.9" style="enable-background:new 0 0 214 192.9;" xml:space="preserve">
<style type="text/css">
	.st0{fill:#FFFFFF;}
</style>
<g>
	<path class="st0" d="M67.5,75.6c4.1,0,5.8-2.2,5.8-5.5v-3.5c0-2.2-1-3.6-3-4.1c1.7-0.5,2.8-1.9,2.8-3.9v-2.1c0-3.4-1.6-5.5-5.3-5.5
		c-4.2,0-5.6,2.5-5.6,6v2.1h3.7v-2.4c0-1.5,0.5-2.3,1.7-2.3c1.3,0,1.7,0.8,1.7,2.2v2.6c0,1.3-0.8,1.9-2.1,1.9h-1.5v3.1h1.7
		c1.4,0,2,0.7,2,1.9v4c0,1.3-0.6,2.2-1.8,2.2c-1.4,0-1.9-0.9-1.9-2.3v-3.4H62v3.1C62,73.3,63.4,75.6,67.5,75.6"/>
	<path class="st0" d="M149.7,115.6c0-3.3-2.1-6-5.4-6c-1.6,0-3.6,1.8-4.6,2.9c-1.1-1.1-2.9-2.9-4.5-2.9c-3.2,0-5.5,2.7-5.5,6
		c0,1.7,0.7,3.2,1.7,4.3l0,0l8.3,8.3l8.3-8.3l0,0C149.1,118.7,149.7,117.2,149.7,115.6z"/>
	<g>
		<path class="st0" d="M114.3,141.8C114.3,141.8,114.3,141.8,114.3,141.8c-0.7,0-1.2-0.5-1.3-1.1l-4.2-24.6l-6.4,11.9
			c-0.3,0.5-0.9,0.8-1.4,0.7c-0.6-0.1-1-0.6-1.1-1.2l-2.7-19l-5,11.2c-0.2,0.5-0.7,0.8-1.2,0.8H71.6c-0.8,0-1.4-0.6-1.4-1.4
			c0-0.8,0.6-1.4,1.4-1.4H90l6.5-14.7c0.2-0.6,0.8-0.9,1.4-0.8c0.6,0.1,1.1,0.6,1.2,1.2l2.8,19.6l6.3-11.7c0.3-0.5,0.8-0.8,1.4-0.7
			c0.6,0.1,1,0.5,1.1,1.1l3.9,22.8L129,87.1c0.2-0.5,0.6-0.9,1.2-1c0.6,0,1.1,0.3,1.3,0.8l7.5,15.5c0.3,0.7,0,1.5-0.6,1.8
			c-0.7,0.3-1.5,0-1.8-0.6l-6-12.4l-14.9,49.5C115.5,141.4,114.9,141.8,114.3,141.8z"/>
	</g>
	<g>
		<path class="st0" d="M86.9,55.9h2.3v5.2h-1.2V60c-0.2,0.7-0.7,1.2-1.6,1.2c-1.4,0-2-1.1-2-2.6v-4.7c0-1.5,0.7-2.6,2.4-2.6
			c1.8,0,2.3,1,2.3,2.4v0.9h-1.5v-1c0-0.6-0.2-0.9-0.8-0.9c-0.6,0-0.8,0.4-0.8,1v5.2c0,0.6,0.2,1,0.8,1c0.5,0,0.8-0.3,0.8-0.9v-1.7
			h-0.8V55.9z"/>
		<path class="st0" d="M90.3,58.6v-4.7c0-1.5,0.7-2.6,2.5-2.6c1.7,0,2.5,1.1,2.5,2.6v4.7c0,1.5-0.7,2.6-2.5,2.6
			C91.1,61.2,90.3,60.1,90.3,58.6z M93.6,58.8v-5.2c0-0.6-0.3-1-0.8-1c-0.6,0-0.8,0.4-0.8,1v5.2c0,0.6,0.3,1,0.8,1
			C93.4,59.8,93.6,59.4,93.6,58.8z"/>
		<path class="st0" d="M96.3,58.6v-4.7c0-1.5,0.7-2.6,2.5-2.6c1.7,0,2.5,1.1,2.5,2.6v4.7c0,1.5-0.7,2.6-2.5,2.6
			C97.1,61.2,96.3,60.1,96.3,58.6z M99.6,58.8v-5.2c0-0.6-0.3-1-0.8-1c-0.6,0-0.8,0.4-0.8,1v5.2c0,0.6,0.3,1,0.8,1
			C99.4,59.8,99.6,59.4,99.6,58.8z"/>
		<path class="st0" d="M107.2,54v4.5c0,1.5-0.6,2.6-2.4,2.6h-2.5v-9.7h2.5C106.6,51.4,107.2,52.5,107.2,54z M104.7,59.7
			c0.7,0,0.9-0.4,0.9-1v-5.1c0-0.6-0.3-1-0.9-1H104v7H104.7z"/>
		<path class="st0" d="M113.7,56.8h-1.6v4.3h-1.6v-9.7h1.6v4.1h1.6v-4.1h1.6v9.7h-1.6V56.8z"/>
		<path class="st0" d="M116.4,51.4h3.9v1.3H118v2.8h1.6v1.3H118v2.9h2.3v1.3h-3.9V51.4z"/>
		<path class="st0" d="M121.1,61.1l1.8-9.7h1.9l1.8,9.7h-1.7l-0.3-1.8h-1.7l-0.3,1.8H121.1z M123.1,58h1.3l-0.6-3.9h0L123.1,58z"/>
		<path class="st0" d="M127.4,51.4h1.6v8.4h1.9v1.3h-3.6V51.4z"/>
		<path class="st0" d="M130.8,51.4h4.3v1.3h-1.3v8.4h-1.6v-8.4h-1.3V51.4z"/>
		<path class="st0" d="M139.2,56.8h-1.6v4.3H136v-9.7h1.6v4.1h1.6v-4.1h1.6v9.7h-1.6V56.8z"/>
	</g>
	<g>
		<path class="st0" d="M84.2,75.3l1.8-9.7h1.9l1.8,9.7h-1.7l-0.3-1.8h-1.7l-0.3,1.8H84.2z M86.3,72.2h1.3l-0.6-3.9h0L86.3,72.2z"/>
		<path class="st0" d="M92,69.2v6.1h-1.4v-9.7h1.6l1.8,5.6v-5.6h1.4v9.7h-1.4L92,69.2z"/>
		<path class="st0" d="M101.2,68.2v4.5c0,1.5-0.6,2.6-2.4,2.6h-2.5v-9.7h2.5C100.6,65.6,101.2,66.7,101.2,68.2z M98.7,73.9
			c0.7,0,0.9-0.4,0.9-1v-5.1c0-0.6-0.3-1-0.9-1H98v7H98.7z"/>
		<path class="st0" d="M107.5,69.3l-0.9,6H105l-1.3-9.7h1.6l0.8,6.1h0l0.8-6.1h1.3l0.9,6.1h0l0.7-6.1h1.4l-1.3,9.7h-1.5L107.5,69.3
			L107.5,69.3z"/>
		<path class="st0" d="M112.1,65.6h3.9v1.3h-2.3v2.8h1.6V71h-1.6v2.9h2.3v1.3h-3.9V65.6z"/>
		<path class="st0" d="M117,65.6h1.6v8.4h1.9v1.3H117V65.6z"/>
		<path class="st0" d="M121.5,65.6h1.6v8.4h1.9v1.3h-3.6V65.6z"/>
		<path class="st0" d="M124.8,69.5h2.3v1.3h-2.3V69.5z"/>
		<path class="st0" d="M128.1,65.6h2.4c1.6,0,2.2,0.8,2.2,2.1v1c0,0.8-0.3,1.3-1,1.5c0.8,0.2,1.2,0.7,1.2,1.6v1.3
			c0,1.4-0.6,2.1-2.2,2.1h-2.5V65.6z M129.7,69.7h0.6c0.5,0,0.8-0.3,0.8-0.8v-1.2c0-0.5-0.2-0.8-0.8-0.8h-0.6V69.7z M129.7,70.9v3
			h0.7c0.5,0,0.8-0.3,0.8-0.8v-1.5c0-0.5-0.2-0.8-0.8-0.8H129.7z"/>
		<path class="st0" d="M133.8,65.6h3.9v1.3h-2.3v2.8h1.6V71h-1.6v2.9h2.3v1.3h-3.9V65.6z"/>
		<path class="st0" d="M138.7,65.6h1.6v9.7h-1.6V65.6z"/>
		<path class="st0" d="M142.8,69.2v6.1h-1.4v-9.7h1.6l1.8,5.6v-5.6h1.4v9.7h-1.4L142.8,69.2z"/>
		<path class="st0" d="M149.7,70.1h2.3v5.2h-1.2v-1.1c-0.2,0.7-0.7,1.2-1.6,1.2c-1.4,0-2-1.1-2-2.6v-4.7c0-1.5,0.7-2.6,2.4-2.6
			c1.8,0,2.3,1,2.3,2.4v0.9h-1.5v-1c0-0.6-0.2-0.9-0.8-0.9s-0.8,0.4-0.8,1V73c0,0.6,0.2,1,0.8,1c0.5,0,0.8-0.3,0.8-0.9v-1.7h-0.8
			V70.1z"/>
	</g>
</g>
</svg>
