<?xml version="1.0" encoding="utf-8"?>
<!-- Generator: Adobe Illustrator 24.2.0, SVG Export Plug-In . SVG Version: 6.00 Build 0)  -->
<svg version="1.1" id="Ebene_2" xmlns="http://www.w3.org/2000/svg" xmlns:xlink="http://www.w3.org/1999/xlink" x="0px" y="0px"
	 viewBox="0 0 214 192.9" style="enable-background:new 0 0 214 192.9;" xml:space="preserve">
<style type="text/css">
	.st0{fill:#FFFFFF;}
</style>
<g>
	<path class="st0" d="M69.8,72.2H74v-4.3h1.8v-3.5H74V45.8h-4.4L62,65.2v2.7h7.8V72.2z M65.9,64.4l4-10.9h0v10.9H65.9z"/>
	<polygon class="st0" points="107.4,105 83.9,91.4 83.9,135.3 107.4,142.4 	"/>
	<polygon class="st0" points="109.9,105.1 109.9,142.4 133.6,135.3 133.6,91.4 	"/>
	<path class="st0" d="M152,90.3c0-1.5-1.2-2.8-2.8-2.8c-1.5,0-2.8,1.2-2.8,2.8v3h5.6V90.3z"/>
	<polygon class="st0" points="147.1,134.5 146.4,134.5 149.2,144.2 152,134.5 151.3,134.5 152,134.5 152,95.5 151.3,95.5 
		150.6,95.5 149.9,95.5 148.5,95.5 147.8,95.5 147.1,95.5 146.4,95.5 146.4,134.5 	"/>
	<polygon class="st0" points="138.6,93.3 136.1,91.3 136.1,136.5 110,144.9 108.8,144.9 108.6,144.9 107.4,144.9 81.4,137.6 
		81.4,91.3 78.9,93.3 78.9,139.4 107.2,147.3 108.6,147.3 108.8,147.3 110.1,147.3 136.3,139 138.6,138.3 	"/>
	<g>
		<path class="st0" d="M86.7,61.5H91v1.5h-2.5V66h1.8v1.5h-1.8v3.2H91v1.5h-4.3V61.5z"/>
		<path class="st0" d="M97.5,64.3v5c0,1.6-0.7,2.9-2.6,2.9h-2.8V61.5h2.8C96.8,61.5,97.5,62.7,97.5,64.3z M94.6,70.7
			c0.7,0,1-0.4,1-1.1V64c0-0.6-0.3-1.1-1-1.1h-0.8v7.8H94.6z"/>
		<path class="st0" d="M103.9,61.5v8.1c0,1.7-0.7,2.7-2.5,2.7c-1.9,0-2.7-1.1-2.7-2.7v-8.1h1.8v8.3c0,0.6,0.3,1.1,0.9,1.1
			c0.6,0,0.9-0.4,0.9-1.1v-8.3H103.9z"/>
		<path class="st0" d="M105,69.4v-5.2c0-1.7,0.8-2.9,2.7-2.9c2,0,2.5,1.1,2.5,2.7v1.3h-1.6v-1.4c0-0.7-0.2-1-0.9-1
			c-0.6,0-0.9,0.5-0.9,1.1v5.7c0,0.6,0.3,1.1,0.9,1.1c0.6,0,0.9-0.4,0.9-1v-2h1.6v1.8c0,1.5-0.6,2.7-2.5,2.7
			C105.8,72.3,105,71,105,69.4z"/>
		<path class="st0" d="M110.8,72.1l2-10.7h2.1l2,10.7h-1.8l-0.3-2h-1.9l-0.3,2H110.8z M113.1,68.8h1.4l-0.7-4.3h0L113.1,68.8z"/>
		<path class="st0" d="M116.7,61.5h4.8v1.5H120v9.2h-1.8v-9.2h-1.5V61.5z"/>
		<path class="st0" d="M122.5,61.5h1.8v10.7h-1.8V61.5z"/>
		<path class="st0" d="M125.5,69.4v-5.2c0-1.7,0.8-2.9,2.7-2.9c1.9,0,2.7,1.2,2.7,2.9v5.2c0,1.7-0.8,2.9-2.7,2.9
			C126.3,72.3,125.5,71,125.5,69.4z M129.1,69.7v-5.7c0-0.6-0.3-1.1-0.9-1.1c-0.6,0-0.9,0.5-0.9,1.1v5.7c0,0.6,0.3,1.1,0.9,1.1
			C128.8,70.8,129.1,70.3,129.1,69.7z"/>
		<path class="st0" d="M133.6,65.4v6.7h-1.5V61.5h1.8l1.9,6.1v-6.1h1.5v10.7h-1.6L133.6,65.4z"/>
	</g>
	<g>
		<path class="st0" d="M88.7,57.2v-0.7c-1.4-0.3-2.1-1.3-2.1-2.8v-5.2c0-1.7,0.8-2.9,2.7-2.9c1.9,0,2.7,1.2,2.7,2.9v5.2
			c0,1.2-0.4,2.1-1.3,2.5l1.3,0.3v1.3L88.7,57.2z M90.3,54.1v-5.8c0-0.6-0.3-1.1-0.9-1.1c-0.6,0-0.9,0.5-0.9,1.1v5.8
			c0,0.6,0.3,1.1,0.9,1.1C90.1,55.2,90.3,54.7,90.3,54.1z"/>
		<path class="st0" d="M98.5,45.8v8.1c0,1.7-0.7,2.7-2.5,2.7c-1.9,0-2.7-1.1-2.7-2.7v-8.1h1.8V54c0,0.6,0.3,1.1,0.9,1.1
			c0.6,0,0.9-0.4,0.9-1.1v-8.3H98.5z"/>
		<path class="st0" d="M99.2,56.5l2-10.7h2.1l2,10.7h-1.8l-0.3-2h-1.9l-0.3,2H99.2z M101.5,53.1h1.4l-0.7-4.3h0L101.5,53.1z"/>
		<path class="st0" d="M106.2,45.8h1.8V55h2.1v1.5h-3.9V45.8z"/>
		<path class="st0" d="M111,45.8h1.8v10.7H111V45.8z"/>
		<path class="st0" d="M113.6,45.8h4.8v1.5h-1.5v9.2h-1.8v-9.2h-1.5V45.8z"/>
		<path class="st0" d="M122.8,52.4v4.1H121v-4.1l-2-6.6h1.9l1.1,4.1h0l1.1-4.1h1.7L122.8,52.4z"/>
	</g>
</g>
</svg>
