<?xml version="1.0" encoding="utf-8"?>
<!-- Generator: Adobe Illustrator 24.2.0, SVG Export Plug-In . SVG Version: 6.00 Build 0)  -->
<svg version="1.1" id="Ebene_2" xmlns="http://www.w3.org/2000/svg" xmlns:xlink="http://www.w3.org/1999/xlink" x="0px" y="0px"
	 viewBox="0 0 214 192.9" style="enable-background:new 0 0 214 192.9;" xml:space="preserve">
<style type="text/css">
	.st0{fill:#FFFFFF;}
</style>
<g>
	<path class="st0" d="M67.9,71.5c4.3,0,5.9-2.3,5.9-6.1v-3.5c0-3.9-1.6-5.9-4.5-5.9c-1.7,0-2.7,0.8-3.3,1.9h0v-5.2
		c0-1.5,0.5-2.5,1.9-2.5c1.4,0,1.9,0.9,1.9,2.3v1.6h3.7V53c0-3.5-1.2-6-5.6-6c-4.2,0-5.8,2.7-5.8,6.5v11.7
		C62,68.8,63.6,71.5,67.9,71.5 M66,61.5c0.1-1.3,0.6-2.2,1.9-2.2c1.4,0,1.9,0.8,1.9,2.4v4.2c0,1.5-0.6,2.4-1.9,2.4
		c-1.3,0-1.9-0.9-1.9-2.4V61.5z"/>
	<path class="st0" d="M131.3,85.4c-0.1-0.1-0.2-0.2-0.4-0.2H87.7c-0.1,0-0.3,0.1-0.4,0.2c-0.1,0.1-0.1,0.3-0.1,0.4l7.3,43.9
		c0,0.2,0.3,0.4,0.5,0.4h8.9l0.6,7.1l-3.7,0l8.7,8.7l8.7-8.7l-3.7,0l0.6-7.1h9.1c0.2,0,0.5-0.2,0.5-0.4l6.8-43.8
		C131.4,85.6,131.4,85.5,131.3,85.4z M114.6,120.5c0,0-2,2-5.2,1.8c-3.2,0.2-5.2-1.8-5.2-1.8c-3.2-3.2-2.1-7.2-1-9.3
		c0.7-1.3,5.7-8.8,6.1-9.4v-0.1c0,0,0,0,0,0l0,0v0.1c0.4,0.6,5.4,8.1,6.1,9.4C116.7,113.2,117.8,117.2,114.6,120.5z M128.3,94.6
		c-1.2-0.5-2.7-0.3-4.1,0.2c-5.4,2.2-9,3-14.6,1.2c-3.5-1.1-6.9-3.4-10.8-2c-2.6,0.9-5,1.8-8,1.8l-1.7-8.7h40.4L128.3,94.6z"/>
	<g>
		<path class="st0" d="M83.7,71.2l1.8-9.7h1.9l1.8,9.7h-1.7l-0.3-1.8h-1.7l-0.3,1.8H83.7z M85.8,68.1h1.3l-0.6-3.9h0L85.8,68.1z"/>
		<path class="st0" d="M91.3,65.1v6.1h-1.4v-9.7h1.6l1.8,5.6v-5.6h1.4v9.7h-1.4L91.3,65.1z"/>
		<path class="st0" d="M100.7,64.1v4.5c0,1.5-0.6,2.6-2.4,2.6h-2.5v-9.7h2.5C100.1,61.5,100.7,62.6,100.7,64.1z M98.2,69.9
			c0.7,0,0.9-0.4,0.9-1v-5.1c0-0.6-0.3-1-0.9-1h-0.7v7.1H98.2z"/>
		<path class="st0" d="M104.4,69.1v-1.3h1.5v1.3c0,0.5,0.2,0.9,0.8,0.9c0.5,0,0.7-0.3,0.7-0.9v-0.4c0-0.6-0.2-0.9-0.7-1.4l-1-1
			c-0.9-0.9-1.4-1.5-1.4-2.6v-0.3c0-1.2,0.7-2.1,2.3-2.1c1.6,0,2.3,0.8,2.3,2.2v0.8h-1.5v-0.8c0-0.6-0.3-0.8-0.8-0.8
			c-0.5,0-0.8,0.3-0.8,0.8v0.2c0,0.5,0.3,0.9,0.8,1.3l1,1c0.9,0.9,1.3,1.4,1.3,2.5V69c0,1.3-0.7,2.3-2.4,2.3
			C105,71.3,104.4,70.4,104.4,69.1z"/>
		<path class="st0" d="M109.5,71.2l1.8-9.7h1.9l1.8,9.7h-1.7l-0.3-1.8h-1.7l-0.3,1.8H109.5z M111.6,68.1h1.3l-0.6-3.9h0L111.6,68.1z
			"/>
		<path class="st0" d="M117.3,65.1v6.1h-1.4v-9.7h1.6l1.8,5.6v-5.6h1.4v9.7h-1.4L117.3,65.1z"/>
		<path class="st0" d="M121.9,61.5h1.6v9.7h-1.6V61.5z"/>
		<path class="st0" d="M124.3,61.5h4.3v1.3h-1.3v8.4h-1.6v-8.4h-1.3V61.5z"/>
		<path class="st0" d="M128.3,71.2l1.8-9.7h1.9l1.8,9.7h-1.7l-0.3-1.8h-1.7l-0.3,1.8H128.3z M130.3,68.1h1.3l-0.6-3.9h0L130.3,68.1z
			"/>
		<path class="st0" d="M133.3,61.5h4.3v1.3h-1.3v8.4h-1.6v-8.4h-1.3V61.5z"/>
		<path class="st0" d="M138.5,61.5h1.6v9.7h-1.6V61.5z"/>
		<path class="st0" d="M141.2,68.7V64c0-1.5,0.7-2.6,2.5-2.6c1.7,0,2.5,1.1,2.5,2.6v4.7c0,1.5-0.7,2.6-2.5,2.6
			C142,71.3,141.2,70.2,141.2,68.7z M144.6,69v-5.2c0-0.6-0.3-1-0.8-1c-0.6,0-0.8,0.4-0.8,1V69c0,0.6,0.3,1,0.8,1
			C144.3,70,144.6,69.5,144.6,69z"/>
		<path class="st0" d="M148.6,65.1v6.1h-1.4v-9.7h1.6l1.8,5.6v-5.6h1.4v9.7h-1.4L148.6,65.1z"/>
	</g>
	<g>
		<path class="st0" d="M83.9,54.4v-4.7c0-1.5,0.7-2.6,2.4-2.6c1.8,0,2.3,1,2.3,2.4v1.1h-1.5v-1.3c0-0.6-0.2-0.9-0.8-0.9
			c-0.6,0-0.8,0.4-0.8,1v5.2c0,0.6,0.2,1,0.8,1c0.6,0,0.8-0.4,0.8-0.9v-1.8h1.5v1.7c0,1.4-0.6,2.4-2.3,2.4
			C84.6,57,83.9,55.9,83.9,54.4z"/>
		<path class="st0" d="M89.7,47.1h1.6v8.4h1.9v1.3h-3.6V47.1z"/>
		<path class="st0" d="M94.1,47.1H98v1.3h-2.3v2.8h1.6v1.3h-1.6v3H98v1.3h-3.9V47.1z"/>
		<path class="st0" d="M98.8,56.9l1.8-9.7h1.9l1.8,9.7h-1.7l-0.3-1.8h-1.7l-0.3,1.8H98.8z M100.9,53.8h1.3l-0.6-3.9h0L100.9,53.8z"
			/>
		<path class="st0" d="M106.5,50.8v6.1h-1.4v-9.7h1.6l1.8,5.6v-5.6h1.4v9.7h-1.4L106.5,50.8z"/>
		<path class="st0" d="M116.9,50.9l-0.9,6h-1.5l-1.3-9.7h1.6l0.8,6.2h0l0.8-6.2h1.3l0.9,6.2h0l0.7-6.2h1.4l-1.3,9.7h-1.5L116.9,50.9
			L116.9,50.9z"/>
		<path class="st0" d="M120.7,56.9l1.8-9.7h1.9l1.8,9.7h-1.7l-0.3-1.8h-1.7l-0.3,1.8H120.7z M122.8,53.8h1.3l-0.6-3.9h0L122.8,53.8z
			"/>
		<path class="st0" d="M126.1,47.1h4.3v1.3H129v8.4h-1.6v-8.4h-1.3V47.1z"/>
		<path class="st0" d="M131.2,47.1h3.9v1.3h-2.3v2.8h1.6v1.3h-1.6v3h2.3v1.3h-3.9V47.1z"/>
		<path class="st0" d="M137.6,52.4v4.5H136v-9.7h2.4c1.6,0,2.3,0.8,2.3,2.2v1.2c0,1-0.4,1.7-1.3,1.9l1.6,4.4h-1.7L137.6,52.4z
			 M137.6,48.5v3h0.5c0.6,0,0.8-0.3,0.8-0.8v-1.4c0-0.5-0.2-0.8-0.8-0.8H137.6z"/>
	</g>
</g>
</svg>
