<?xml version="1.0" encoding="utf-8"?>
<!-- Generator: Adobe Illustrator 24.2.0, SVG Export Plug-In . SVG Version: 6.00 Build 0)  -->
<svg version="1.1" id="Ebene_2" xmlns="http://www.w3.org/2000/svg" xmlns:xlink="http://www.w3.org/1999/xlink" x="0px" y="0px"
	 viewBox="0 0 214 192.9" style="enable-background:new 0 0 214 192.9;" xml:space="preserve">
<style type="text/css">
	.st0{fill:#FFFFFF;}
</style>
<g>
	<path class="st0" d="M72.8,70.2v-2.4c0-2.1-0.7-3.6-2.4-4.3c1.4-0.7,2.1-2,2.1-3.8v-0.9c0-3.4-1.8-5.2-5.1-5.2c-3.3,0-5,1.8-5,5.2
		v0.9c0,1.8,0.6,3.1,2,3.8c-1.7,0.8-2.4,2.3-2.4,4.3v2.4c0,3.3,1.6,5.6,5.4,5.6C71.3,75.8,72.8,73.5,72.8,70.2 M65.8,58.6
		c0-1.3,0.4-2.1,1.6-2.1c1.2,0,1.7,0.8,1.7,2.1v1.5c0,1.3-0.4,2.1-1.7,2.1c-1.2,0-1.6-0.8-1.6-2.1V58.6z M69.2,70.6
		c0,1.3-0.5,2.2-1.8,2.2c-1.3,0-1.8-0.9-1.8-2.2v-3.5c0-1.3,0.5-2.2,1.8-2.2c1.3,0,1.8,0.9,1.8,2.2V70.6z"/>
	<path class="st0" d="M126,97.6L115.1,108c-0.4,0.4-0.6,0.7-0.6,1.6v29.1c0,0.3,0.3,0.6,0.6,0.6h11.3c0.3,0,0.6-0.3,0.6-0.6V97.9
		C127,97.6,126.7,96.9,126,97.6"/>
	<path class="st0" d="M94.6,111.2l-10.9,10.4c-0.4,0.4-0.6,0.7-0.6,1.6v15.6c0,0.3,0.3,0.6,0.6,0.6h11.3c0.3,0,0.6-0.3,0.6-0.6
		v-27.2C95.5,111.1,95.3,110.5,94.6,111.2"/>
	<path class="st0" d="M130.9,85.1c0-0.1,0-0.2-0.1-0.2c-0.1-0.1-0.1-0.1-0.2-0.1l-0.1,0l-0.1,0l-8.4,1.9l-0.2,0
		c-0.1,0-0.1,0-0.2,0.1c-0.1,0.1-0.1,0.3,0,0.4l0.1,0.1l1.9,1.9l-18.9,18.9l-8.7-8.7c-0.1-0.1-0.3-0.1-0.4,0l-2.4,2.4c0,0,0,0,0,0
		l-14,14c-0.1,0.1-0.1,0.3,0,0.4l2.4,2.4c0.1,0.1,0.3,0.1,0.4,0L96,104.6l6.3,6.3c0,0,0,0,0,0l2.4,2.4c0.1,0.1,0.3,0.1,0.4,0
		l21.5-21.5l2,2c0.1,0.1,0.3,0.1,0.4,0c0.1-0.1,0.1-0.1,0.1-0.2l0,0L130.9,85.1L130.9,85.1z"/>
	<path class="st0" d="M110.3,113l-5.3,5.3c-0.1,0.1-0.2,0.1-0.3,0l-4.8-4.9c-0.9-0.9-1.1-0.2-1.1,0.2v25.1c0,0.3,0.3,0.6,0.6,0.6
		h11.3c0.3,0,0.6-0.3,0.6-0.6v-25.5C111.4,112.8,111.1,112.2,110.3,113"/>
	<g>
		<path class="st0" d="M85.2,56.2v4.1c0,1.3-0.6,2.4-2.1,2.4h-2.3v-8.8h2.3C84.7,53.8,85.2,54.8,85.2,56.2z M82.9,61.4
			c0.6,0,0.8-0.4,0.8-0.9v-4.6c0-0.5-0.2-0.9-0.8-0.9h-0.6v6.4H82.9z"/>
		<path class="st0" d="M86.2,53.8h3.5V55h-2v2.5h1.5v1.2h-1.5v2.7h2v1.2h-3.5V53.8z"/>
		<path class="st0" d="M90.4,60.3v-4.2c0-1.4,0.6-2.4,2.2-2.4c1.6,0,2.1,0.9,2.1,2.2v1h-1.3v-1.2c0-0.5-0.2-0.9-0.7-0.9
			c-0.5,0-0.8,0.4-0.8,0.9v4.7c0,0.5,0.2,0.9,0.8,0.9c0.5,0,0.7-0.3,0.7-0.9V59h1.3v1.5c0,1.3-0.5,2.2-2.1,2.2
			C91.1,62.7,90.4,61.7,90.4,60.3z"/>
		<path class="st0" d="M95.6,53.8h3.5V55h-2v2.5h1.5v1.2h-1.5v2.7h2v1.2h-3.5V53.8z"/>
		<path class="st0" d="M101.2,57.1v5.5H100v-8.8h1.4l1.6,5v-5h1.2v8.8H103L101.2,57.1z"/>
		<path class="st0" d="M105,53.8h3.9V55h-1.2v7.6h-1.5V55H105V53.8z"/>
		<path class="st0" d="M114.4,57.2l-0.8,5.4h-1.4l-1.2-8.8h1.4l0.7,5.6h0l0.7-5.6h1.2l0.8,5.6h0l0.7-5.6h1.2l-1.1,8.8h-1.4
			L114.4,57.2L114.4,57.2z"/>
		<path class="st0" d="M118.4,60.3v-4.2c0-1.4,0.7-2.4,2.2-2.4c1.6,0,2.2,1,2.2,2.4v4.2c0,1.4-0.7,2.4-2.2,2.4
			C119,62.7,118.4,61.7,118.4,60.3z M121.4,60.6v-4.7c0-0.5-0.2-0.9-0.8-0.9c-0.5,0-0.8,0.4-0.8,0.9v4.7c0,0.5,0.2,0.9,0.8,0.9
			C121.1,61.5,121.4,61.1,121.4,60.6z"/>
		<path class="st0" d="M125.2,58.6v4h-1.5v-8.8h2.1c1.5,0,2,0.7,2,2v1.1c0,0.9-0.3,1.5-1.2,1.7l1.4,4h-1.6L125.2,58.6z M125.2,55
			v2.7h0.5c0.5,0,0.7-0.3,0.7-0.7v-1.3c0-0.5-0.2-0.7-0.7-0.7H125.2z"/>
		<path class="st0" d="M130.3,58.3v4.3h-1.5v-8.8h1.5v3.9l1.6-3.9h1.4l-1.7,3.9l1.7,4.8h-1.6L130.3,58.3z"/>
		<path class="st0" d="M135.5,62.6l1.7-8.8h1.7l1.7,8.8h-1.5l-0.3-1.6h-1.6l-0.3,1.6H135.5z M137.3,59.8h1.2l-0.6-3.5h0L137.3,59.8z
			"/>
		<path class="st0" d="M142.2,57.1v5.5H141v-8.8h1.4l1.6,5v-5h1.2v8.8h-1.3L142.2,57.1z"/>
		<path class="st0" d="M150.6,56.2v4.1c0,1.3-0.6,2.4-2.1,2.4h-2.3v-8.8h2.3C150,53.8,150.6,54.8,150.6,56.2z M148.3,61.4
			c0.6,0,0.8-0.4,0.8-0.9v-4.6c0-0.5-0.2-0.9-0.8-0.9h-0.6v6.4H148.3z"/>
	</g>
	<g>
		<path class="st0" d="M80.8,66.7h3.5v1.2h-2v2.5h1.5v1.2h-1.5v2.7h2v1.2h-3.5V66.7z"/>
		<path class="st0" d="M85,73.2V69c0-1.4,0.6-2.4,2.2-2.4c1.6,0,2.1,0.9,2.1,2.2v1h-1.3v-1.2c0-0.5-0.2-0.9-0.7-0.9
			c-0.5,0-0.8,0.4-0.8,0.9v4.7c0,0.5,0.2,0.9,0.8,0.9c0.5,0,0.7-0.3,0.7-0.9v-1.6h1.3v1.5c0,1.3-0.5,2.2-2.1,2.2
			C85.6,75.6,85,74.6,85,73.2z"/>
		<path class="st0" d="M90.1,73.2V69c0-1.4,0.7-2.4,2.2-2.4c1.6,0,2.2,1,2.2,2.4v4.2c0,1.4-0.7,2.4-2.2,2.4
			C90.7,75.6,90.1,74.6,90.1,73.2z M93,73.5v-4.7c0-0.5-0.2-0.9-0.8-0.9c-0.5,0-0.8,0.4-0.8,0.9v4.7c0,0.5,0.2,0.9,0.8,0.9
			C92.8,74.4,93,74,93,73.5z"/>
		<path class="st0" d="M96.6,70v5.5h-1.2v-8.8h1.4l1.6,5v-5h1.2v8.8h-1.3L96.6,70z"/>
		<path class="st0" d="M100.5,73.2V69c0-1.4,0.7-2.4,2.2-2.4c1.6,0,2.2,1,2.2,2.4v4.2c0,1.4-0.7,2.4-2.2,2.4
			C101.1,75.6,100.5,74.6,100.5,73.2z M103.5,73.5v-4.7c0-0.5-0.2-0.9-0.8-0.9c-0.5,0-0.8,0.4-0.8,0.9v4.7c0,0.5,0.2,0.9,0.8,0.9
			C103.2,74.4,103.5,74,103.5,73.5z"/>
		<path class="st0" d="M109.8,69.8L109.8,69.8l-1,5.7h-0.7l-1.1-5.7h0v5.7h-1.2v-8.8h1.7l1,4.9h0l0.9-4.9h1.9v8.8h-1.3V69.8z"/>
		<path class="st0" d="M112,66.7h1.5v8.8H112V66.7z"/>
		<path class="st0" d="M114.3,73.2V69c0-1.4,0.6-2.4,2.2-2.4c1.6,0,2.1,0.9,2.1,2.2v1h-1.3v-1.2c0-0.5-0.2-0.9-0.7-0.9
			c-0.5,0-0.8,0.4-0.8,0.9v4.7c0,0.5,0.2,0.9,0.8,0.9c0.5,0,0.7-0.3,0.7-0.9v-1.6h1.3v1.5c0,1.3-0.5,2.2-2.1,2.2
			C115,75.6,114.3,74.6,114.3,73.2z"/>
		<path class="st0" d="M123.3,70.8h2.1v4.7h-1.1v-1c-0.2,0.7-0.6,1.1-1.4,1.1c-1.3,0-1.8-1-1.8-2.4V69c0-1.4,0.7-2.4,2.2-2.4
			c1.6,0,2.1,0.9,2.1,2.2v0.8h-1.3v-0.9c0-0.5-0.2-0.9-0.7-0.9c-0.5,0-0.8,0.4-0.8,0.9v4.7c0,0.5,0.2,0.9,0.7,0.9
			c0.5,0,0.7-0.3,0.7-0.8V72h-0.7V70.8z"/>
		<path class="st0" d="M127.8,71.5v4h-1.5v-8.8h2.1c1.5,0,2,0.7,2,2v1.1c0,0.9-0.3,1.5-1.2,1.7l1.4,4h-1.6L127.8,71.5z M127.8,67.9
			v2.7h0.5c0.5,0,0.7-0.3,0.7-0.7v-1.3c0-0.5-0.2-0.7-0.7-0.7H127.8z"/>
		<path class="st0" d="M131.1,73.2V69c0-1.4,0.7-2.4,2.2-2.4c1.6,0,2.2,1,2.2,2.4v4.2c0,1.4-0.7,2.4-2.2,2.4
			C131.8,75.6,131.1,74.6,131.1,73.2z M134.1,73.5v-4.7c0-0.5-0.2-0.9-0.8-0.9c-0.5,0-0.8,0.4-0.8,0.9v4.7c0,0.5,0.2,0.9,0.8,0.9
			C133.9,74.4,134.1,74,134.1,73.5z"/>
		<path class="st0" d="M139.4,70.1l-0.8,5.4h-1.4l-1.2-8.8h1.4l0.7,5.6h0l0.7-5.6h1.2l0.8,5.6h0l0.7-5.6h1.2l-1.1,8.8h-1.4
			L139.4,70.1L139.4,70.1z"/>
		<path class="st0" d="M143.2,66.7h3.9v1.2h-1.2v7.6h-1.5v-7.6h-1.2V66.7z"/>
		<path class="st0" d="M150.5,71.6h-1.4v3.9h-1.5v-8.8h1.5v3.7h1.4v-3.7h1.5v8.8h-1.5V71.6z"/>
	</g>
</g>
</svg>
