<svg xmlns="http://www.w3.org/2000/svg" viewBox="0 0 655.5 173.97"><defs><style>.a{fill:#63b335;}.b{fill:#e5b735;}.c{fill:#c51c2e;}.d{fill:#4c9f37;}.e{fill:#3f7f45;}.f{fill:#fcc310;}.g{fill:#e8422e;}.h{fill:#f59d2d;}.i{fill:#1896d4;}.j{fill:#a31b43;}.k{fill:#2ebce0;}.l{fill:#ed6930;}.m{fill:#e6243c;}.n{fill:#de1868;}.o{fill:#1a496a;}.p{fill:#c99a2d;}.q{fill:#02699e;}.r{fill:#010202;}</style></defs><path class="a" d="M44.7,62.16a49.65,49.65,0,0,1,7.8-10l-25.57-28A87.4,87.4,0,0,0,10.69,45.22Z"/><path class="b" d="M107.38,42.36a48.49,48.49,0,0,1,10.73,6.71l25.64-28A87.14,87.14,0,0,0,121,6.9Z"/><path class="c" d="M166.11,50.79l-34,16.94a48.58,48.58,0,0,1,3.41,12l37.8-3.57a86,86,0,0,0-7.22-25.38"/><path class="d" d="M129.68,62.82l34-16.94a87.38,87.38,0,0,0-15.88-21.09l-25.65,28a48.8,48.8,0,0,1,7.54,10"/><path class="e" d="M38,87c0-.76,0-1.53.06-2.29L.19,81.29C.07,83.17,0,85.06,0,87a87.26,87.26,0,0,0,2.57,21L39.1,97.53A49.09,49.09,0,0,1,38,87"/><path class="f" d="M124.92,118.05a48.91,48.91,0,0,1-9.22,8.67l20,32.33a87.42,87.42,0,0,0,19.55-18.16Z"/><path class="g" d="M136.05,87a48.45,48.45,0,0,1-1.12,10.43l36.52,10.49A86.91,86.91,0,0,0,174,87c0-1.79-.06-3.57-.17-5.34L136,85.2q0,.89,0,1.77"/><path class="h" d="M49.69,118.77l-30.23,23A87.8,87.8,0,0,0,39.2,159.63l20-32.3a49.38,49.38,0,0,1-9.47-8.56"/><path class="i" d="M38.56,79.22A48.58,48.58,0,0,1,42.18,67l-34-16.92A86.37,86.37,0,0,0,.71,75.83Z"/><path class="j" d="M131,162l-19.93-32.29a48.79,48.79,0,0,1-11.64,4.73l7,37.34A86.49,86.49,0,0,0,131,162"/><path class="k" d="M133.48,102.69a49.8,49.8,0,0,1-5.31,10.93l30.32,22.87A86.51,86.51,0,0,0,170,113.18Z"/><path class="l" d="M94.08,135.51A50.1,50.1,0,0,1,87,136a51.21,51.21,0,0,1-5.71-.33l-7,37.34a86.91,86.91,0,0,0,26.84-.21Z"/><path class="m" d="M90.14,38a48.36,48.36,0,0,1,12.14,2.35L115.91,4.91A86.34,86.34,0,0,0,90.14,0Z"/><path class="n" d="M75.88,134.75a48.64,48.64,0,0,1-12-4.55l-20,32.31a86.79,86.79,0,0,0,25,9.55Z"/><path class="o" d="M72.26,40.18A49.21,49.21,0,0,1,84.65,38V0A86.54,86.54,0,0,0,58.53,4.76Z"/><path class="p" d="M46.36,114.41a48.75,48.75,0,0,1-5.78-11.6L4.08,113.28a86.56,86.56,0,0,0,12,24.1Z"/><path class="q" d="M56.61,48.49a48.57,48.57,0,0,1,10.52-6.36L53.4,6.72A87,87,0,0,0,31,20.43Z"/><path class="r" d="M319.34,85h14.1v31.48h-7.13V110c-1.32,4.43-4.1,7.13-9.5,7.13-8.53,0-12.45-6.78-12.45-15.91V72.72c0-9.21,4.44-15.91,14.9-15.91,11,0,14.18,6.09,14.18,14.79v5.21h-9.05v-6c0-3.65-1.4-5.73-5-5.73s-5.12,2.52-5.12,6.09v31.64c0,3.57,1.47,6.08,4.87,6.08,3.22,0,4.87-1.82,4.87-5.64V92.82h-4.7Z"/><polygon class="r" points="338.23 57.52 348.16 57.52 348.16 108.38 360 108.38 360 116.47 338.23 116.47 338.23 57.52"/><path class="r" d="M363.21,101.25V72.72c0-9.21,4.54-15.89,15-15.89s15.07,6.68,15.07,15.89v28.53c0,9.13-4.53,15.91-15.07,15.91s-15-6.78-15-15.91m20.13,1.56V71.17c0-3.57-1.57-6.1-5.15-6.1s-5.05,2.53-5.05,6.1v31.64c0,3.57,1.57,6.09,5.05,6.09s5.15-2.52,5.15-6.09"/><path class="r" d="M398,57.52h14.37c9.93,0,13.24,4.6,13.24,12.94v6c0,5-1.84,8.09-5.92,9.39,4.95,1.13,7.39,4.43,7.39,9.83v7.82c0,8.35-3.73,12.95-13.66,12.95H398ZM408,82.38h3.48c3.23,0,4.71-1.66,4.71-4.78V70.38c0-3.22-1.48-4.78-4.79-4.78H408Zm0,7.56v18.44h4.35c3.31,0,4.88-1.66,4.88-4.79V94.73c0-3.13-1.48-4.79-5-4.79Z"/><path class="r" d="M429.21,116.46l11.15-58.94h11.32l11.23,58.94H452.72l-1.83-10.77H440.36l-1.74,10.77Zm12.45-18.69h7.92l-3.91-23.64h-.09Z"/><polygon class="r" points="466.14 57.52 476.07 57.52 476.07 108.38 487.9 108.38 487.9 116.47 466.14 116.47 466.14 57.52"/><path class="r" d="M514.81,85h14.1v31.48h-7.14V110c-1.31,4.43-4.1,7.13-9.49,7.13-8.54,0-12.45-6.78-12.45-15.91V72.72c0-9.21,4.43-15.91,14.88-15.91,11,0,14.2,6.09,14.2,14.79v5.21h-9v-6c0-3.65-1.41-5.73-5-5.73s-5.13,2.52-5.13,6.09v31.64c0,3.57,1.48,6.08,4.88,6.08,3.22,0,4.87-1.82,4.87-5.64V92.82h-4.69Z"/><path class="r" d="M533.7,101.25V72.72c0-9.21,4.52-15.89,15-15.89s15.06,6.68,15.06,15.89v28.53c0,9.13-4.53,15.91-15.06,15.91s-15-6.78-15-15.91m20.11,1.56V71.17c0-3.57-1.58-6.1-5.14-6.1s-5.06,2.53-5.06,6.1v31.64c0,3.57,1.57,6.09,5.06,6.09s5.14-2.52,5.14-6.09"/><path class="r" d="M565.65,116.46l11.14-58.94h11.33l11.23,58.94h-10.2l-1.82-10.77H576.79L575,116.46ZM578.1,97.77H586L582.1,74.13H582Z"/><polygon class="r" points="602.56 57.52 612.48 57.52 612.48 108.38 624.33 108.38 624.33 116.47 602.56 116.47 602.56 57.52"/><path class="r" d="M627,103.77V95.85h9.22V104c0,3.3,1.5,5.21,4.89,5.21,3.13,0,4.52-2.09,4.52-5.21v-2.27c0-3.39-1.39-5.47-4.44-8.34l-5.84-5.83c-5.65-5.56-8.26-9-8.26-15.73v-2c0-7.3,4.26-13,13.92-13,9.93,0,13.85,4.88,13.85,13.4V75h-9.06V69.86c0-3.39-1.56-5-4.69-5-2.8,0-4.71,1.57-4.71,4.88V70.9c0,3.31,1.83,5.22,4.71,8l6.35,6.26c5.39,5.48,8,8.79,8,15.31v2.87c0,8.08-4.35,13.82-14.46,13.82s-14-5.65-14-13.39"/><polygon class="r" points="203.55 57.52 229.92 57.52 229.92 65.6 221.73 65.6 221.73 116.47 211.73 116.47 211.73 65.6 203.55 65.6 203.55 57.52"/><polygon class="r" points="253.16 90.47 243.59 90.47 243.59 116.47 233.67 116.47 233.67 57.52 243.59 57.52 243.59 82.47 253.16 82.47 253.16 57.52 263.18 57.52 263.18 116.47 253.16 116.47 253.16 90.47"/><polygon class="r" points="267.97 57.52 291.65 57.52 291.65 65.6 277.9 65.6 277.9 82.47 287.73 82.47 287.73 90.47 277.9 90.47 277.9 108.38 291.65 108.38 291.65 116.47 267.97 116.47 267.97 57.52"/></svg>