<svg xmlns="http://www.w3.org/2000/svg" viewBox="0 0 215.48 57.19"><defs><style>.a{fill:#62b134;}.b{fill:#e4b634;}.c{fill:#c41b2d;}.d{fill:#4b9e37;}.e{fill:#3e7e45;}.f{fill:#fbc10d;}.g{fill:#e7412e;}.h{fill:#f49c2c;}.i{fill:#1595d3;}.j{fill:#a21a43;}.k{fill:#2cbadf;}.l{fill:#ec692f;}.m{fill:#e5233b;}.n{fill:#dc1668;}.o{fill:#18486a;}.p{fill:#c7982c;}.q{fill:#00689d;}.r{fill:#010101;}</style></defs><title>Element 10</title><path class="a" d="M14.69,20.43a16.75,16.75,0,0,1,2.57-3.29L8.85,7.92a28.51,28.51,0,0,0-5.33,7Z"/><path class="b" d="M35.3,13.92a16.18,16.18,0,0,1,3.52,2.21l8.43-9.2a28.26,28.26,0,0,0-7.47-4.66Z"/><path class="c" d="M54.6,16.7,43.43,22.26a16,16,0,0,1,1.12,3.95L57,25A28.21,28.21,0,0,0,54.6,16.7"/><path class="d" d="M42.63,20.65,53.8,15.08a28.61,28.61,0,0,0-5.22-6.93l-8.43,9.2a16,16,0,0,1,2.48,3.3"/><path class="e" d="M12.47,28.59c0-.25,0-.5,0-.75L.06,26.72C0,27.34,0,28,0,28.59A28.62,28.62,0,0,0,.85,35.5l12-3.44a16.54,16.54,0,0,1-.38-3.47"/><path class="f" d="M41.07,38.81a16.77,16.77,0,0,1-3,2.85L44.6,52.28a28.67,28.67,0,0,0,6.42-6Z"/><path class="g" d="M44.72,28.59A15.54,15.54,0,0,1,44.35,32l12,3.45a28.43,28.43,0,0,0,.84-6.88c0-.59,0-1.17-.06-1.76L44.71,28c0,.19,0,.38,0,.58"/><path class="h" d="M16.33,39,6.4,46.59a28.62,28.62,0,0,0,6.49,5.88l6.56-10.61A16.09,16.09,0,0,1,16.33,39"/><path class="i" d="M12.68,26a15.53,15.53,0,0,1,1.19-4L2.7,16.47A28.41,28.41,0,0,0,.23,24.93Z"/><path class="j" d="M43.07,53.25,36.52,42.63a16,16,0,0,1-3.83,1.56L35,56.46a28.61,28.61,0,0,0,8.06-3.21"/><path class="k" d="M43.88,33.76a16.58,16.58,0,0,1-1.75,3.59l10,7.52a28.38,28.38,0,0,0,3.77-7.67Z"/><path class="l" d="M30.92,44.55a16,16,0,0,1-2.32.16,14.6,14.6,0,0,1-1.88-.11L24.41,56.88a29,29,0,0,0,4.19.31,28.39,28.39,0,0,0,4.64-.38Z"/><path class="m" d="M29.63,12.5a15.5,15.5,0,0,1,4,.77L38.1,1.61A28.27,28.27,0,0,0,29.63,0Z"/><path class="n" d="M24.94,44.3a16.36,16.36,0,0,1-4-1.5L14.42,53.42a28.28,28.28,0,0,0,8.22,3.14Z"/><path class="o" d="M23.75,13.21a16.16,16.16,0,0,1,4.08-.73V0a28.71,28.71,0,0,0-8.59,1.56Z"/><path class="p" d="M15.24,37.61a16,16,0,0,1-1.9-3.81l-12,3.44a28.68,28.68,0,0,0,4,7.92Z"/><path class="q" d="M18.61,15.94a15.94,15.94,0,0,1,3.46-2.09L17.56,2.21A28.54,28.54,0,0,0,10.2,6.72Z"/><path class="r" d="M105,27.94h4.64V38.28h-2.34V36.17a3,3,0,0,1-3.13,2.34c-2.8,0-4.09-2.23-4.09-5.23V23.91c0-3,1.46-5.23,4.9-5.23,3.6,0,4.66,2,4.66,4.86v1.71h-3v-2c0-1.2-.46-1.89-1.63-1.89s-1.68.83-1.68,2V33.8c0,1.17.48,2,1.6,2s1.6-.6,1.6-1.86V30.51H105Z"/><polygon class="r" points="111.19 18.91 114.45 18.91 114.45 35.63 118.34 35.63 118.34 38.28 111.19 38.28 111.19 18.91"/><path class="r" d="M119.4,33.28V23.91c0-3,1.49-5.23,4.92-5.23s5,2.2,5,5.23v9.37c0,3-1.49,5.23-5,5.23s-4.92-2.23-4.92-5.23m6.61.52V23.39c0-1.17-.51-2-1.69-2s-1.66.83-1.66,2V33.8c0,1.17.52,2,1.66,2S126,35,126,33.8"/><path class="r" d="M130.85,18.91h4.72c3.26,0,4.35,1.51,4.35,4.25v2c0,1.62-.6,2.66-1.95,3.09a2.94,2.94,0,0,1,2.44,3.22V34c0,2.74-1.23,4.25-4.5,4.25h-5.06Zm3.26,8.17h1.14a1.37,1.37,0,0,0,1.55-1.57V23.14a1.37,1.37,0,0,0-1.57-1.57h-1.12Zm0,2.49v6.06h1.43a1.41,1.41,0,0,0,1.6-1.58V31.14c0-1-.48-1.57-1.63-1.57Z"/><path class="r" d="M141.09,38.28l3.67-19.37h3.72l3.69,19.37h-3.35l-.6-3.54h-3.46l-.58,3.54Zm4.1-6.14h2.6l-1.29-7.77h0Z"/><polygon class="r" points="153.23 18.91 156.5 18.91 156.5 35.63 160.38 35.63 160.38 38.28 153.23 38.28 153.23 18.91"/><path class="r" d="M169.23,27.94h4.64V38.28h-2.35V36.17a2.94,2.94,0,0,1-3.12,2.34c-2.81,0-4.09-2.23-4.09-5.23V23.91c0-3,1.45-5.23,4.89-5.23,3.61,0,4.67,2,4.67,4.86v1.71h-3v-2c0-1.2-.46-1.89-1.64-1.89s-1.68.83-1.68,2V33.8c0,1.17.48,2,1.6,2s1.6-.6,1.6-1.86V30.51h-1.54Z"/><path class="r" d="M175.44,33.28V23.91c0-3,1.49-5.23,4.92-5.23s4.95,2.2,4.95,5.23v9.37c0,3-1.49,5.23-4.95,5.23s-4.92-2.23-4.92-5.23m6.61.52V23.39c0-1.17-.52-2-1.69-2s-1.66.83-1.66,2V33.8c0,1.17.52,2,1.66,2s1.69-.83,1.69-2"/><path class="r" d="M185.94,38.28l3.67-19.37h3.72L197,38.28h-3.35l-.6-3.54h-3.46L189,38.28Zm4.1-6.14h2.6l-1.29-7.77h0Z"/><polygon class="r" points="198.08 18.91 201.34 18.91 201.34 35.63 205.23 35.63 205.23 38.28 198.08 38.28 198.08 18.91"/><path class="r" d="M206.12,34.11v-2.6h3v2.66c0,1.09.49,1.71,1.61,1.71s1.48-.68,1.48-1.71v-.74a3.49,3.49,0,0,0-1.46-2.75l-1.91-1.91c-1.86-1.83-2.72-2.95-2.72-5.18v-.65c0-2.41,1.4-4.26,4.58-4.26s4.55,1.6,4.55,4.4v1.57h-3V23c0-1.12-.51-1.66-1.54-1.66a1.43,1.43,0,0,0-1.55,1.6v.4c0,1.08.6,1.71,1.55,2.63l2.09,2c1.77,1.81,2.63,2.89,2.63,5V34c0,2.66-1.43,4.54-4.75,4.54s-4.61-1.85-4.61-4.4"/><polygon class="r" points="66.91 18.91 75.58 18.91 75.58 21.57 72.89 21.57 72.89 38.28 69.6 38.28 69.6 21.57 66.91 21.57 66.91 18.91"/><polygon class="r" points="83.22 29.74 80.07 29.74 80.07 38.28 76.81 38.28 76.81 18.91 80.07 18.91 80.07 27.11 83.22 27.11 83.22 18.91 86.51 18.91 86.51 38.28 83.22 38.28 83.22 29.74"/><polygon class="r" points="88.09 18.91 95.87 18.91 95.87 21.57 91.35 21.57 91.35 27.11 94.59 27.11 94.59 29.74 91.35 29.74 91.35 35.63 95.87 35.63 95.87 38.28 88.09 38.28 88.09 18.91"/></svg>