<?xml version="1.0" encoding="utf-8"?>
<!-- Generator: Adobe Illustrator 24.2.1, SVG Export Plug-In . SVG Version: 6.00 Build 0)  -->
<svg version="1.1" id="Ebene_1" xmlns="http://www.w3.org/2000/svg" xmlns:xlink="http://www.w3.org/1999/xlink" x="0px" y="0px"
	 viewBox="0 0 101.5 72.6" style="enable-background:new 0 0 101.5 72.6;" xml:space="preserve">
<style type="text/css">
	.st0{fill:#3F3F3F;}
</style>
<path class="st0" d="M52.5,71.6c-0.6,1-1.9,1.3-2.9,0.7c-0.3-0.2-0.5-0.4-0.7-0.7L0.5,6.1C-0.3,5-0.1,3.5,0.9,2.7
	c0.2-0.1,0.3-0.2,0.5-0.3l3.9-2c1.6-0.7,3.4-0.3,4.5,1.1L49,54.3c0.6,1,1.9,1.3,2.9,0.7c0.3-0.2,0.5-0.4,0.7-0.7L91.7,1.4
	c1.1-1.3,2.9-1.8,4.5-1.1l3.9,2c1.2,0.6,1.8,2,1.2,3.2c-0.1,0.2-0.2,0.4-0.3,0.5L52.5,71.6z"/>
</svg>
