<?xml version="1.0" encoding="utf-8"?>
<!-- Generator: Adobe Illustrator 24.2.1, SVG Export Plug-In . SVG Version: 6.00 Build 0)  -->
<svg version="1.1" id="Ebene_1" xmlns="http://www.w3.org/2000/svg" xmlns:xlink="http://www.w3.org/1999/xlink" x="0px" y="0px"
	 viewBox="0 0 101.5 72.6" style="enable-background:new 0 0 101.5 72.6;" xml:space="preserve">
<style type="text/css">
	.st0{fill:#3F3F3F;}
</style>
<path class="st0" d="M52.5,1c-0.6-1-1.9-1.3-2.9-0.6C49.4,0.5,49.2,0.7,49,1L0.5,66.5c-0.8,1.1-0.7,2.6,0.4,3.5
	c0.2,0.1,0.3,0.2,0.5,0.3l3.9,2c1.6,0.7,3.4,0.3,4.5-1.1L49,18.2c0.6-1,1.9-1.3,2.9-0.7c0.3,0.2,0.5,0.4,0.7,0.7l39.1,52.9
	c1.1,1.3,2.9,1.8,4.5,1.1l3.9-2c1.2-0.6,1.8-2,1.2-3.3c-0.1-0.2-0.2-0.4-0.3-0.5L52.5,1z"/>
</svg>
