<svg xmlns="http://www.w3.org/2000/svg" viewBox="0 0 102.33 103.03"><defs><style>.a{fill:#f6f5f4;}</style></defs><title>Element 4</title><path class="a" d="M6.29,27.83c4.62,0,6.62-2.45,6.62-6.22v-4c0-2.48-1.08-4.09-3.37-4.61a4.34,4.34,0,0,0,3.13-4.41V6.22c0-3.85-1.84-6.22-6-6.22C1.88,0,.24,2.81.24,6.82v2.4H4.41V6.46c0-1.69.52-2.65,2-2.65s2,1,2,2.44V9.18c0,1.45-1,2.21-2.45,2.21H4.17v3.49H6.09c1.61,0,2.25.76,2.25,2.2v4.49C8.34,23,7.7,24,6.29,24s-2.12-1-2.12-2.65V17.48H0v3.57c0,4.13,1.64,6.78,6.29,6.78"/><path class="a" d="M99.76,73.25c0-3.8-2.43-6.87-6.12-6.87-1.84,0-4.07,2-5.27,3.26-1.21-1.25-3.29-3.27-5.13-3.27-3.69,0-6.28,3.08-6.28,6.88a6.93,6.93,0,0,0,2,4.85h0l9.45,9.47,9.44-9.45h0A7,7,0,0,0,99.76,73.25Z"/><path class="a" d="M59.52,103h-.1A1.54,1.54,0,0,1,58,101.74l-4.8-28L45.91,87.27a1.55,1.55,0,0,1-1.63.79A1.57,1.57,0,0,1,43,86.75L39.92,65.17,34.28,77.86a1.56,1.56,0,0,1-1.42.92h-22a1.56,1.56,0,0,1,0-3.11h21L39.28,59a1.54,1.54,0,0,1,1.63-.9,1.53,1.53,0,0,1,1.32,1.32l3.19,22.25,7.17-13.3a1.55,1.55,0,0,1,1.62-.8,1.57,1.57,0,0,1,1.28,1.27l4.44,25.9L76.14,40.89A1.55,1.55,0,0,1,79,40.67l8.53,17.67a1.55,1.55,0,0,1-2.8,1.35L78,45.61,61,101.93A1.53,1.53,0,0,1,59.52,103Z"/><path class="a" d="M28.35,5.4H31v5.88H29.65v-1.2a1.66,1.66,0,0,1-1.77,1.33c-1.59,0-2.32-1.26-2.32-3V3.11c0-1.72.83-3,2.78-3S31,1.27,31,2.9v1H29.3V2.75c0-.68-.26-1.07-.93-1.07s-1,.47-1,1.14V8.73c0,.67.28,1.14.91,1.14s.91-.34.91-1.06V6.86h-.88Z"/><path class="a" d="M32.21,8.44V3.11c0-1.72.84-3,2.79-3s2.81,1.25,2.81,3V8.44c0,1.71-.84,3-2.81,3S32.21,10.15,32.21,8.44ZM36,8.73V2.82c0-.67-.29-1.14-1-1.14s-.94.47-.94,1.14V8.73c0,.67.29,1.14.94,1.14S36,9.4,36,8.73Z"/><path class="a" d="M39,8.44V3.11c0-1.72.85-3,2.8-3s2.81,1.25,2.81,3V8.44c0,1.71-.84,3-2.81,3S39,10.15,39,8.44Zm3.76.29V2.82c0-.67-.29-1.14-1-1.14s-.94.47-.94,1.14V8.73c0,.67.29,1.14.94,1.14S42.79,9.4,42.79,8.73Z"/><path class="a" d="M51.4,3.22V8.33c0,1.69-.69,2.95-2.68,2.95H45.86V.27h2.86C50.71.27,51.4,1.52,51.4,3.22ZM48.5,9.77c.76,0,1-.45,1-1.12V2.88a1,1,0,0,0-1-1.1h-.79v8Z"/><path class="a" d="M58.79,6.42H57v4.86H55.14V.27H57V4.93h1.79V.27h1.86v11H58.79Z"/><path class="a" d="M61.88.27H66.3V1.78H63.73V4.93h1.84V6.42H63.73V9.77H66.3v1.51H61.88Z"/><path class="a" d="M67.16,11.28l2.08-11h2.11l2.1,11h-1.9l-.34-2h-2l-.33,2Zm2.32-3.49H71l-.73-4.42h0Z"/><path class="a" d="M74.38.27h1.85v9.5h2.21v1.51H74.38Z"/><path class="a" d="M78.18.27h4.93V1.78H81.58v9.5H79.71V1.78H78.18Z"/><path class="a" d="M87.77,6.42H86v4.86H84.13V.27H86V4.93h1.79V.27h1.87v11H87.77Z"/><path class="a" d="M25.28,27.45l2.08-11h2.11l2.1,11h-1.9l-.34-2h-2l-.32,2ZM27.6,24h1.48l-.73-4.42h0Z"/><path class="a" d="M34.06,20.52v6.93H32.5v-11h1.82l2,6.32V16.43h1.54v11H36.23Z"/><path class="a" d="M44.62,19.38v5.11c0,1.69-.7,3-2.68,3H39.08v-11h2.86C43.92,16.43,44.62,17.68,44.62,19.38Zm-2.91,6.55c.77,0,1.06-.45,1.06-1.12V19a1,1,0,0,0-1.06-1.1h-.78v8Z"/><path class="a" d="M51.71,20.64l-1,6.81H48.93l-1.48-11h1.79l.86,7h0l.92-7h1.52l1,7h0l.84-7H56l-1.43,11H52.82l-1.09-6.81Z"/><path class="a" d="M57,16.43h4.42v1.51H58.82v3.15h1.83v1.5H58.82v3.34h2.56v1.52H57Z"/><path class="a" d="M62.54,16.43h1.85v9.5H66.6v1.52H62.54Z"/><path class="a" d="M67.61,16.43h1.85v9.5h2.21v1.52H67.61Z"/><path class="a" d="M71.43,20.93H74v1.49h-2.6Z"/><path class="a" d="M75.14,16.43h2.68c1.85,0,2.47.86,2.47,2.42V20a1.59,1.59,0,0,1-1.11,1.75,1.68,1.68,0,0,1,1.39,1.84V25c0,1.56-.7,2.43-2.56,2.43H75.14ZM77,21.07h.65a.78.78,0,0,0,.88-.89V18.83c0-.6-.28-.89-.9-.89H77Zm0,1.42v3.44h.81a.8.8,0,0,0,.91-.89V23.38c0-.58-.27-.89-.92-.89Z"/><path class="a" d="M81.66,16.43h4.42v1.51H83.51v3.15h1.84v1.5H83.51v3.34h2.57v1.52H81.66Z"/><path class="a" d="M87.23,16.43h1.85v11H87.23Z"/><path class="a" d="M91.88,20.52v6.93H90.32v-11h1.82l2,6.32V16.43h1.54v11H94.06Z"/><path class="a" d="M99.7,21.56h2.63v5.89H101V26.24a1.67,1.67,0,0,1-1.77,1.34c-1.59,0-2.33-1.27-2.33-3V19.27c0-1.72.83-3,2.78-3s2.65,1.13,2.65,2.76v1h-1.69V18.91c0-.68-.26-1.07-.92-1.07s-1,.47-1,1.14v5.91c0,.67.27,1.14.91,1.14s.91-.34.91-1.05V23H99.7Z"/></svg>