<svg xmlns="http://www.w3.org/2000/svg" viewBox="0 0 116.23 108.49"><defs><style>.a{fill:#f6f5f4;}</style></defs><title>Element 5</title><path class="a" d="M13.39,7.25C13.39,3.05,11.54,0,6.73,0S0,2.64,0,6.85v4c0,4.45,1.76,6.7,5.05,6.7a3.92,3.92,0,0,0,3.77-2.21h0V21.2c0,1.65-.64,2.81-2.29,2.81s-2.24-1-2.24-2.65v-1.8H.16V21c0,4,1.44,6.82,6.49,6.82,4.81,0,6.74-3.09,6.74-7.34ZM8.86,11.42c-.08,1.53-.72,2.49-2.17,2.49s-2.16-1-2.16-2.73V6.45c0-1.72.64-2.72,2.2-2.72s2.13,1,2.13,2.72Z"/><path class="a" d="M90.56,77.75l-16-9.26V50A1.09,1.09,0,0,0,74,49L57.41,39.47a1.11,1.11,0,0,0-1.09,0L39.74,49a1.08,1.08,0,0,0-.54,1v18.5l-16,9.26a1.08,1.08,0,0,0-.55.94V97.83a1.09,1.09,0,0,0,.55,1l16.57,9.57a1.15,1.15,0,0,0,1.1,0l16-9.25,16,9.25a1.07,1.07,0,0,0,.55.14,1,1,0,0,0,.54-.14l16.58-9.57a1.09,1.09,0,0,0,.55-1V78.69A1.08,1.08,0,0,0,90.56,77.75ZM55.77,95.94,42.48,88.26l13.29-7.67ZM71.25,69.13,58,76.8V61.45ZM55.77,76.8,42.48,69.13l13.29-7.68Zm3.28,1.89,14.39-8.3,14.39,8.3L73.44,87ZM72.34,67.23,59.05,59.56l13.29-7.68ZM54.68,59.56l-13.3,7.67V51.88Zm-15.48,46L24.81,97.2V80.59L39.2,88.9Zm2.18,0V90.16l13.3,7.67ZM88.92,97.2l-14.39,8.31V88.9l14.39-8.31Z"/><path class="a" d="M20.53.63H22.3V11.14H20.53Z"/><path class="a" d="M24.58,4.54v6.6H23.09V.63h1.74l1.9,6v-6h1.48V11.14H26.66Z"/><path class="a" d="M34.27,3.45V8.32c0,1.61-.67,2.82-2.56,2.82H29V.63h2.73C33.6.63,34.27,1.82,34.27,3.45ZM31.49,9.7c.73,0,1-.44,1-1.07V3.13a.93.93,0,0,0-1-1.06h-.74V9.7Z"/><path class="a" d="M40.17.63v8c0,1.63-.69,2.68-2.49,2.68A2.37,2.37,0,0,1,35,8.58V.63h1.77V8.75c0,.62.25,1,.87,1s.87-.42.87-1V.63Z"/><path class="a" d="M40.86,8.88V7.47H42.5V8.91c0,.58.26.93.87.93s.8-.38.8-.93V8.5A1.87,1.87,0,0,0,43.38,7l-1-1c-1-1-1.48-1.6-1.48-2.81V2.82A2.19,2.19,0,0,1,43.35.51c1.77,0,2.47.86,2.47,2.38v.86H44.21V2.83q0-.9-.84-.9a.78.78,0,0,0-.84.87V3c0,.59.33.93.84,1.42L44.5,5.56c1,1,1.43,1.56,1.43,2.73V8.8a2.28,2.28,0,0,1-2.58,2.46A2.19,2.19,0,0,1,40.86,8.88Z"/><path class="a" d="M46,.63h4.7V2.07H49.27v9.07H47.49V2.07H46Z"/><path class="a" d="M53.09,6.32v4.82H51.32V.63h2.57c1.79,0,2.44.88,2.44,2.36V4.33c0,1.14-.41,1.8-1.41,2l1.69,4.78H54.75Zm0-4.25V5.34h.59a.76.76,0,0,0,.86-.87V2.92c0-.57-.26-.85-.86-.85Z"/><path class="a" d="M60.11,7.14v4H58.34v-4l-2-6.51h1.84l1.07,4h0l1.07-4h1.69Z"/><path class="a" d="M63.58,9.59,62.68,12h-1l.22-2.51h1.67Z"/><path class="a" d="M65.75.63h1.77V11.14H65.75Z"/><path class="a" d="M69.8,4.54v6.6H68.31V.63h1.74l1.9,6v-6h1.48V11.14H71.88Z"/><path class="a" d="M75.69,4.54v6.6H74.2V.63h1.74l1.91,6v-6h1.47V11.14H77.77Z"/><path class="a" d="M80.09,8.43V3.34c0-1.64.81-2.83,2.67-2.83s2.68,1.19,2.68,2.83V8.43a2.68,2.68,0,1,1-5.35,0Zm3.58.27V3.06c0-.63-.27-1.08-.91-1.08s-.9.45-.9,1.08V8.7c0,.64.28,1.09.9,1.09S83.67,9.34,83.67,8.7Z"/><path class="a" d="M91.88.63l-2,10.51H88L86,.63h1.79L89,8h0L90.22.63Z"/><path class="a" d="M91.32,11.14,93.3.63h2l2,10.51H95.5l-.32-1.92H93.3L93,11.14Zm2.21-3.33h1.41l-.69-4.22h0Z"/><path class="a" d="M96.84.63h4.69V2.07h-1.45v9.07H98.29V2.07H96.84Z"/><path class="a" d="M102.12.63h1.77V11.14h-1.77Z"/><path class="a" d="M104.68,8.43V3.34c0-1.64.81-2.83,2.67-2.83A2.5,2.5,0,0,1,110,3.34V8.43a2.68,2.68,0,1,1-5.35,0Zm3.58.27V3.06c0-.63-.28-1.08-.91-1.08s-.9.45-.9,1.08V8.7c0,.64.28,1.09.9,1.09S108.26,9.34,108.26,8.7Z"/><path class="a" d="M112.29,4.54v6.6H110.8V.63h1.74l1.91,6v-6h1.47V11.14h-1.55Z"/><path class="a" d="M20.25,27.34l2-10.51h2l2,10.51H24.43l-.32-1.93H22.23l-.31,1.93ZM22.46,24h1.41l-.69-4.21h0Z"/><path class="a" d="M28.38,20.73v6.61H26.9V16.83h1.73l1.91,6v-6H32V27.34H30.46Z"/><path class="a" d="M38.23,19.65v4.86c0,1.62-.67,2.83-2.56,2.83H32.94V16.83h2.73C37.56,16.83,38.23,18,38.23,19.65Zm-2.78,6.24c.73,0,1-.43,1-1.07v-5.5a.92.92,0,0,0-1-1.05h-.74v7.62Z"/><path class="a" d="M40.71,16.83h1.77V27.34H40.71Z"/><path class="a" d="M44.91,20.73v6.61H43.42V16.83h1.74l1.91,6v-6h1.47V27.34H47Z"/><path class="a" d="M49.47,16.83h4.14v1.44H51.24v3H53V22.7H51.24v4.64H49.47Z"/><path class="a" d="M56.07,22.52v4.82H54.31V16.83h2.57c1.78,0,2.43.88,2.43,2.35v1.35c0,1.13-.4,1.8-1.41,2l1.69,4.78H57.73Zm0-4.25v3.27h.59a.76.76,0,0,0,.87-.87V19.12c0-.57-.26-.85-.87-.85Z"/><path class="a" d="M59.92,27.34l2-10.51h2l2,10.51H64.1l-.32-1.93H61.9l-.31,1.93ZM62.13,24h1.41l-.69-4.21h0Z"/><path class="a" d="M66.32,25.07V23.66H68V25.1c0,.59.27.93.87.93s.81-.37.81-.93v-.4a1.91,1.91,0,0,0-.79-1.49l-1-1c-1-1-1.47-1.59-1.47-2.8V19a2.19,2.19,0,0,1,2.48-2.31c1.76,0,2.46.87,2.46,2.39v.85H69.67V19c0-.61-.28-.9-.84-.9A.78.78,0,0,0,68,19v.21c0,.59.33.93.84,1.43L70,21.76c1,1,1.43,1.56,1.43,2.72V25a2.27,2.27,0,0,1-2.57,2.46A2.19,2.19,0,0,1,66.32,25.07Z"/><path class="a" d="M71.81,16.83H76.5v1.44H75.05v9.07H73.26V18.27H71.81Z"/><path class="a" d="M79,22.52v4.82H77.25V16.83h2.57c1.78,0,2.43.88,2.43,2.35v1.35c0,1.13-.4,1.8-1.41,2l1.69,4.78H80.67Zm0-4.25v3.27h.59a.76.76,0,0,0,.87-.87V19.12c0-.57-.26-.85-.87-.85Z"/><path class="a" d="M88.27,16.83v8c0,1.63-.7,2.68-2.5,2.68a2.37,2.37,0,0,1-2.63-2.68v-8h1.77V25c0,.62.24,1,.86,1s.87-.42.87-1V16.83Z"/><path class="a" d="M89.2,24.62V19.54c0-1.64.77-2.84,2.64-2.84s2.49,1.09,2.49,2.64v1.24H92.72V19.2c0-.65-.22-1-.85-1s-.9.45-.9,1.08V24.9c0,.64.26,1.09.9,1.09s.85-.41.85-1V23h1.61v1.81c0,1.5-.62,2.62-2.49,2.62S89.2,26.25,89.2,24.62Z"/><path class="a" d="M94.63,16.83h4.69v1.44H97.87v9.07H96.08V18.27H94.63Z"/><path class="a" d="M105.2,16.83v8c0,1.63-.7,2.68-2.5,2.68a2.37,2.37,0,0,1-2.63-2.68v-8h1.76V25c0,.62.25,1,.87,1s.87-.42.87-1V16.83Z"/><path class="a" d="M107.9,22.52v4.82h-1.77V16.83h2.57c1.78,0,2.43.88,2.43,2.35v1.35c0,1.13-.4,1.8-1.41,2l1.69,4.78h-1.86Zm0-4.25v3.27h.58a.76.76,0,0,0,.87-.87V19.12c0-.57-.26-.85-.87-.85Z"/><path class="a" d="M112,16.83h4.21v1.44h-2.44v3h1.75V22.7h-1.75v3.19h2.44v1.45H112Z"/></svg>