<svg xmlns="http://www.w3.org/2000/svg" viewBox="0 0 109.15 99.42"><defs><style>.a{fill:#f6f5f4;}</style></defs><title>Element 7</title><polygon class="a" points="7.86 0.32 7.86 27.5 3.29 27.5 3.29 6.7 3.25 6.7 0.04 10.02 0 10.02 0 5.25 4.21 0.32 7.86 0.32"/><path class="a" d="M22.93,6.21V8.58A4.35,4.35,0,0,1,19.8,13c2.29.52,3.37,2.12,3.37,4.61v4c0,3.76-2,6.21-6.61,6.21s-6.3-2.65-6.3-6.78V17.48h4.17v3.89C14.43,23,15,24,16.56,24c1.4,0,2-1,2-2.44V17.08c0-1.45-.64-2.21-2.25-2.21H14.43V11.38h1.73c1.48,0,2.44-.76,2.44-2.2V6.25c0-1.48-.52-2.44-2-2.44s-2,1-2,2.64V9.22H10.5V6.82c0-4,1.65-6.82,6.37-6.82,4.21,0,6.06,2.37,6.06,6.21"/><path class="a" d="M108.76,73.43a61.67,61.67,0,0,0-99,0c-.16.21-.29.4-.39.56.1.16.23.34.39.56a61.69,61.69,0,0,0,99,0l.39-.56c-.11-.16-.23-.35-.39-.56M42.6,61.13c.27-.39,1.17-1.52,1.27-1.66a1.6,1.6,0,0,1,1-.42c.32-.06.74.12.79.36a2.66,2.66,0,0,1-.28,1.32,3.42,3.42,0,0,1-2.2,1c-.49-.08-.68-.45-.59-.6m-1.07,2.13.11-.13a2.79,2.79,0,0,1,1.64-.6c.52-.09,1.21.17,1.3.52s-1.3,1-1.56,1.2c-.72.66-1.84,2-2.5,2.16a.8.8,0,0,1-.54-.06,21.24,21.24,0,0,1,1.55-3.09M52.71,86.19a5.93,5.93,0,0,1-1.27,2.67,4.33,4.33,0,0,1-2.84,1.08c-1-.07-1.08-2.59-1.08-3.89,0-.45-.63.88-1-1.82-.21-1.74-1.32.18-1.4-1s-.63-.92-1.22-1.64-1.3.07-2.11.43-.48.55-1.62.19l-.08,0a20.81,20.81,0,0,1-1.63-8.1c0-.7,0-1.39.1-2.07a1.37,1.37,0,0,1,.13-.2c1.1-1.3,1.08-1.61,1.08-1.61L41,69.8a20.35,20.35,0,0,1,3.41.85c1.21.46,3.11,1.48,4.21,1,.8-.33,1.43-.77,1.35-1.43-.09-.84-.75-1-1.54-.47-.29.2-.92-1.26-1.41-1.19s.61,1.73.19,1.8-1.25-1.72-1.4-2-.79-1-1.37-.46c-1.22,1.17-3.22,1.09-3.62,1.39-1.22.92-1.54-.3-1.51-1l.15-.51a2.52,2.52,0,0,1,2.32-.26c.54.36.92-.09,1.13-.31s.14-.56,0-.84.27-.5.54-.58a12.77,12.77,0,0,0,1.58-.94,5.23,5.23,0,0,1,3.16,0,1.67,1.67,0,0,0,2.08-.42,5.4,5.4,0,0,1,1.51-1.25c.3-.14-.74-1.12-1.6-.06s-1.3,1.16-1.71,1.16-2.8-.6-3.1-1.36.75-1.33,1.64-1.76,3.31-.41,3.93-.55c1.26-.28,2.88-.91,3.69-.36s-3.39,1.5-2,2.24c.49.27,2.71-1.27,3.47-1.67,1.79-.92-1.74-1.23-1.28-3.1.52-2.12-4.32-1.3-6.74-1.12A20.81,20.81,0,0,1,79.54,69.23a3.4,3.4,0,0,1-.11,1,1.36,1.36,0,0,1-2.43.19c-.21-.31-1.11-1.15-1.07.29s1.4,1.59.07,2.46a5.23,5.23,0,0,1-2.19.87,2.82,2.82,0,0,0-1.06,2.5c.15.79,2,3,.64,2.87-.33,0-2.82-1.72-3.23-2.81s-.91-2.28-1.24-3.15a1.24,1.24,0,0,0-2-.57c-.74.51.2,1-.33,2.1s-.91,2-1.69,1.15c-2-2.33-5-1.18-5.45-3.77-.25-1.4-1.46-1.27-2.47-2.06s-1.58-1.23-1.75-.65,3.18,3.14,3.42,3.82c.35,1-1,1.89-2,2.13S55.28,75,54.31,74s-1.39-1.73-1.46-.93a4.54,4.54,0,0,0,1.91,3.45c.84.53,1.78.78,1.51,1.64s0,.38-1,1.31a2.55,2.55,0,0,0-1,2.54c.07,1.3-.27,1.37-.48,2.45s-.67.15-1.08,1.73M75,77.89c.7,0,1.75.92,1.34,1.29a1.87,1.87,0,0,1-2-.18c-.52-.41.34-1.08.65-1.11m-.88-.64c-.23-.08-.43-.29-.6-.8a.47.47,0,0,1,.68-.6c.43.22,1,.85,1,1.19s-.84.3-1.06.21m-9.19,0A1.89,1.89,0,0,1,63,77c-.52-.41.33-1.08.65-1.11.7-.06,1.75.92,1.34,1.29m-8.5,4.13c-.29.47-1.07,4-1.59,3.56s.21-4.06.36-4.34c.82-1.5,2.6-1.43,1.23.78M59.3,94.91a20.94,20.94,0,0,1-5.85-.83.85.85,0,0,1-.25-1c.64-1.68,2.56-2.34,4.07-2.48,3.38-.33,7.81,2.19,8.52,1.78S67.92,90.1,70,90.18a3.27,3.27,0,0,1,1.9.47A20.73,20.73,0,0,1,59.3,94.91m14.68-6a3.65,3.65,0,0,1-.66-.25c-1.13-.57-1,.35-1.55.15s.63-1.51-1-.41-1.22-.17-2-2,.84-4,2.15-4.45a27.24,27.24,0,0,1,3.78-1c2.5-.62,3-2.1,3.48-1.2l.25.48a3.44,3.44,0,0,1,.32,1.36A20.93,20.93,0,0,1,74,88.86m5.7-10.51c-.56-.15-2.9-3.38-1.05-5.51.31-.35-.62-1.38-.37-1.4,1-.08,1.55.55,1.82,1.46,0,.39,0,.8,0,1.2a21.2,21.2,0,0,1-.43,4.25"/><path class="a" d="M33.87,8.63V3.19c0-1.76.83-3,2.82-3S39.36,1.31,39.36,3V4.3H37.63V2.82c0-.7-.23-1.09-.91-1.09s-1,.48-1,1.16v6c0,.68.28,1.16,1,1.16s.91-.43.91-1.09V6.92h1.73V8.86c0,1.61-.66,2.81-2.67,2.81S33.87,10.37,33.87,8.63Z"/><path class="a" d="M40.57.28h1.89V10h2.26v1.54H40.57Z"/><path class="a" d="M45.75.28h1.89V11.53H45.75Z"/><path class="a" d="M54.26,4.23h0l-1.28,7.3h-.88l-1.41-7.3h0v7.3H49.05V.28h2.21l1.22,6.34h0L53.6.28H56V11.53H54.26Z"/><path class="a" d="M56.93,11.53,59.05.28h2.16l2.14,11.25H61.41l-.35-2h-2l-.33,2ZM59.3,8h1.51l-.74-4.52h0Z"/><path class="a" d="M63.1.28h5V1.83H66.57v9.7H64.66V1.83H63.1Z"/><path class="a" d="M69.17.28h4.52V1.83H71.07V5.05h1.87V6.57H71.07V10h2.62v1.54H69.17Z"/><path class="a" d="M33.54,27.5l2.13-11.25h2.15L40,27.5H38l-.35-2.06h-2l-.34,2.06Zm2.38-3.57h1.51l-.75-4.51h0Z"/><path class="a" d="M40.49,24.6V19.15c0-1.76.83-3,2.83-3S46,17.28,46,18.94v1.32H44.26V18.79c0-.7-.23-1.1-.91-1.1s-1,.48-1,1.16v6c0,.68.28,1.17,1,1.17s.91-.44.91-1.1V22.89H46v1.94c0,1.61-.67,2.8-2.67,2.8S40.49,26.34,40.49,24.6Z"/><path class="a" d="M46.67,16.25h5v1.54H50.13V27.5h-1.9V17.79H46.67Z"/><path class="a" d="M52.74,16.25h1.89V27.5H52.74Z"/><path class="a" d="M55.89,24.6V19.15c0-1.76.86-3,2.86-3s2.87,1.28,2.87,3V24.6c0,1.74-.87,3-2.87,3S55.89,26.34,55.89,24.6Zm3.83.29v-6c0-.68-.29-1.16-1-1.16s-1,.48-1,1.16v6c0,.68.3,1.17,1,1.17S59.72,25.57,59.72,24.89Z"/><path class="a" d="M64.44,20.43V27.5h-1.6V16.25H64.7l2,6.45V16.25h1.58V27.5H66.66Z"/></svg>